<svg viewBox="0 0 500 500" xmlns="http://www.w3.org/2000/svg"><rect fill="#dc3346" height="500" rx="86.21" width="500"/><g fill="#fff" transform="translate(-6 -7)"><path d="m138.34 272.92-11.41 22.76c-1.83-13.39 1.52-25.89-.35-38.51-5.5 1.74-6 9.31-12.57 7.78-1.19-.28-.93 1.81-.88 2.86.71 15.18 3 30 10.62 43.48 2.09 3.71 4.22 7.81 7.83 9.88 7.08 4 8.49 10.05 7.94 17.31a18.26 18.26 0 0 0 .24 5.64c2.28 9.3 1.1 17.3-6.59 24.1-4.48 4-3.9 10.17-3.8 15.88-17.28-6.49-27.4-25-23.19-42 1.91-7.75 4.82-15.33 6-23.18 2-12.88-.67-25.34-6-37.14a111.8 111.8 0 0 0 -8.11-15.64c-14.49-21.84-12.91-44.27-3-67.07 3.57-8.19 7.41-16.25 11.3-24.29 7.77-16.09 12.67-32.85 13.19-50.85.31-10.59 4.86-19.49 12.21-27a115.47 115.47 0 0 1 37.49-26c7.77-3.34 15.63-4.92 24.07-2.84a24.09 24.09 0 0 0 21.35-4.42c7-5.37 15-6.75 23.75-7.41 20-1.5 37.66 4.15 54.31 14.32 12.87 7.87 26.63 14 40.15 20.58 11.15 5.43 19 13.64 22.51 25.73a88.26 88.26 0 0 0 18.26 33.11c11 12.74 14.68 26.92 9.73 43.33-4 13.13-.07 24.06 10.49 32.78 6.18 5.1 12.35 10.24 18.15 15.76 8.9 8.48 13.35 18.86 12.46 32.28-10.65-6.73-16.1-19.73-30.81-20.43 31.22 21.23 38.39 74.69 13.84 99.89-4.14-3.44-5.16-8.59-7.11-13.14-2.15-5-4.83-9.41-10.85-9.81-6.19-.41-10 3.36-12.89 8.32-4.74 8.25-6.78 17.49-9.48 26.48-2.23 7.43-4.24 14.94-8.19 21.72a19.44 19.44 0 0 1 -6 6.85c-2 1.3-4.26 2.77-6.52 1.82-2.56-1.07-1-3.8-1-5.73-.23-9.88-5.07-17.51-11.73-24.16-4.19-4.19-6.65-8.22-2.1-13.72 1.14-1.37 1.52-3.42 2.07-5.21 3.28-10.61 5.28-20.88 15.28-29.13 10.48-8.62 11-23.75 14.21-36.62l-1.6-.9-15 25c-7.23-8.91-6.15-18.69-4.44-28.5a74.38 74.38 0 0 1 2.63-11c7.42-21.88 2.11-42.2-7.8-61.88-3.24-6.4-7.65-12-14-15.51-15.41-8.44-24.26-21-28.21-38.37-4.51-19.84-25.36-33.63-45.83-32.6-7.87.39-14.83 3-20.3 8.61-2.53 2.61-4.14 3.16-7.5 1.16-10.74-6.39-22.65-7.75-34.83-6.24-13.33 1.66-22.39 9-27.1 21.69-7.32 19.76-10.27 40.05-8 61.06.67 6.33 1.29 12.67 1.72 19 .21 3.08 1.49 3.88 4.45 3.52a122.57 122.57 0 0 1 59.68 7.2 40.54 40.54 0 0 0 30.44-.36c24.31-9.88 49.33-8.44 74.51-5.45a42.52 42.52 0 0 1 5.61.69c3.62.93 9.16-1 10.21 4 1.17 5.62 3.57 11.91-2.61 16.94-3.77 3.07-5 7.95-6 12.57-2.64 12.19-9.89 19.83-22.27 21.45-15.19 2-30.44 3.12-45.55-1.26-6.64-1.93-11.14-5.56-13.26-12.32-1.9-6-3.56-12.23-6.82-17.76-5-8.54-13.92-8.69-19-.12a36.88 36.88 0 0 0 -4.83 11.67c-2.42 13.29-11 19.13-23.48 20.52a142.44 142.44 0 0 1 -37.32-.65 27.43 27.43 0 0 1 -18.37-10.52zm147.66 7.64c5.34-.37 12.16-.62 18.92-1.36 10.54-1.15 15.91-6.13 18.53-16.43a49 49 0 0 0 1.48-14c-.4-10.89-5.2-16.55-16.05-17.81-14.79-1.72-29.54-.62-44.15 2.14a29.07 29.07 0 0 0 -11 4.54c-2.84 1.93-5.28 4.45-5.43 7.89-.82 18.83 4.61 34.22 27.77 35 2.85.11 5.67.03 9.93.03zm-113.91-50c-3.32 0-8.92-1-14.6-.16-2.92.44-4.7 1-4.81 4.49-.29 9.18-4.52 17.19-8.15 25.33-3.91 8.77-2.17 14.83 7 17.21 15.37 4 31.28 5.1 46.79 1.11 11.61-3 17.74-15.63 16.73-31.07-.5-7.62-6.78-12.46-18.9-15-7.15-1.47-14.42-1.4-24.02-1.9z"/><path d="m251.41 400.55c-1.27 18.76-5.84 36.48-16 52.58-2.33 3.67-3.65 3.7-6.6.74-10-10-12.18-23-14-36-1-7.19-.93-14.54-1.78-21.77-.53-4.53 1.41-7.07 5.16-8.86a32 32 0 0 1 21.28-2.43c10.87 2.42 12.53 4.61 11.94 15.74z"/><path d="m290.93 352.76c-3.78 8.74-11 9.57-18.39 9.3a81.43 81.43 0 0 1 -22.82-4.27 52.68 52.68 0 0 0 -34.53 0 82.84 82.84 0 0 1 -22.84 4.23c-7.21.28-14-.78-18.77-10 14.07 5.48 25 .1 36-5.31 6.51-3.2 13.14-6.71 20.55-2a4.33 4.33 0 0 0 4.73 0c7.07-4.61 13.5-1.26 20 1.5 5.39 2.3 10.65 5 16.14 7 6.36 2.44 12.93 1.25 19.93-.45z"/></g></svg>