<svg viewBox="0 0 496 496" xmlns="http://www.w3.org/2000/svg" xmlns:xlink="http://www.w3.org/1999/xlink"><linearGradient id="a" gradientUnits="userSpaceOnUse" x1="2" x2="498" y1="250" y2="250"><stop offset="0" stop-color="#009c8b"/><stop offset="0" stop-color="#3f2d87"/><stop offset=".51" stop-color="#aa2b87"/><stop offset="1" stop-color="#d51317"/></linearGradient><linearGradient id="b" gradientUnits="userSpaceOnUse" x1="102.06" x2="202.57" y1="250" y2="250"><stop offset=".01" stop-color="#fffde8"/><stop offset=".45" stop-color="#ffface"/><stop offset="1" stop-color="#fff48f"/></linearGradient><linearGradient id="c" x1="297.24" x2="397.94" xlink:href="#b"/><g transform="translate(-2 -2)"><path d="m448.4 475.68q-198.4 44.64-396.8 0c-12.11-2.79-24.49-15.17-27.28-27.28q-44.64-198.4 0-396.8c2.79-12.11 15.17-24.49 27.28-27.28q198.4-44.64 396.8 0c12.11 2.79 24.49 15.17 27.28 27.28q44.64 198.4 0 396.8c-2.79 12.11-15.17 24.49-27.28 27.28z" fill="url(#a)"/><g fill="#662483"><path d="m279.58 29.2c-2.13.95-.18-2.44 0 0z" fill-rule="evenodd"/><path d="m228.23 29.56c-2.13 1-.17-2.44 0 0z" fill-rule="evenodd"/><path d="m295 34.23c-2.13.95-.17-2.44 0 0z" fill-rule="evenodd"/><path d="m243.85 33.69v1.08c-.22.24-.78.18-1.25.18a.89.89 0 0 1 1.25-1.26z" fill-rule="evenodd"/><path d="m192.32 34.94c-2.13 1-.18-2.44 0 0z" fill-rule="evenodd"/><path d="m259.47 38.36a2.39 2.39 0 0 1 0 1.79 2.38 2.38 0 0 1 -1.79 0 1.28 1.28 0 0 1 1.79-1.79z" fill-rule="evenodd"/><path d="m310.46 39.25c-2.12.95-.18-2.44 0 0z" fill-rule="evenodd"/><path d="m207.94 39.07v1.08c-.23.25-.78.18-1.26.18a.89.89 0 0 1 1.26-1.26z" fill-rule="evenodd"/><path d="m273.66 43c3-.9 1.39 4.35-.72 2.34a1.44 1.44 0 0 1 .72-2.34z" fill-rule="evenodd"/><path d="m221.95 43.38c.13-.41 1-.07 1.44-.18 2.15 1.36-.79 4.31-2.16 2.15-.1-.99.03-1.76.72-1.97z" fill-rule="evenodd"/><path d="m326.09 44.28c-2.13.95-.18-2.44 0 0z" fill-rule="evenodd"/><path d="m171.85 45.36c-2.14 1-.18-2.44 0 0z" fill-rule="evenodd"/><path d="m289.28 47.69a1.73 1.73 0 0 1 1.62.54c1.7 2.35-3.52 4.43-3.23.9a1.71 1.71 0 0 1 1.61-1.44z" fill-rule="evenodd"/><path d="m237.39 47.87c1.78-.61 2.51.34 2.69 1.26.58 2.94-3.5 3.41-4 1.08-.25-1.54.29-1.99 1.31-2.34z" fill-rule="evenodd"/><path d="m341.53 49.3c-2.13 1-.17-2.44 0 0z" fill-rule="evenodd"/><path d="m187.83 49.13a1.41 1.41 0 0 1 -2.15 1.8 1.41 1.41 0 0 1 2.15-1.8z" fill-rule="evenodd"/><path d="m253.37 52.36c1.95-.21 3.64 2.46 2 4.13-2.88 2.85-6.84-3.62-2-4.13z" fill-rule="evenodd"/><path d="m304.36 52.72c1.61-.5 2.2.36 2.34 1.26.72 4.85-6.77.11-2.34-1.26z" fill-rule="evenodd"/><path d="m201.48 53.26c1.78-.61 2.52.34 2.69 1.26.58 2.94-3.49 3.4-4 1.08-.25-1.54.3-2 1.31-2.34z" fill-rule="evenodd"/><path d="m357 54.33c-2.13 1-.18-2.44 0 0z" fill-rule="evenodd"/><path d="m151.38 55.95c-2.13 1-.18-2.45 0 0z" fill-rule="evenodd"/><path d="m268.09 57.2c2.22-.65 3.3.44 3.59 1.62 1 4.25-6.1 5.36-5.39.36a2.35 2.35 0 0 1 1.8-1.98z" fill-rule="evenodd"/><path d="m217.27 57.56c3.92-.6 3.75 5 .54 5.21-2.81.15-4.11-4.65-.54-5.21z" fill-rule="evenodd"/><path d="m320 57.75c1.61-.5 2.2.35 2.34 1.26.66 4.85-6.79.11-2.34-1.26z" fill-rule="evenodd"/><path d="m372.41 59.36c-2.13.95-.18-2.44 0 0z" fill-rule="evenodd"/><path d="m165.57 59.36c.13-.41 1-.07 1.43-.18 2.15 1.37-.79 4.31-2.15 2.15-.1-.99.03-1.76.72-1.97z" fill-rule="evenodd"/><path d="m232.9 62.05c5.35-.47 3.45 7.44-.9 6.1-2.58-.78-3-5.75.9-6.1z" fill-rule="evenodd"/><path d="m283.53 62.05c2-.56 3.42.31 3.77 1.79 1.06 4.48-6.44 5.47-5.74.36a2.54 2.54 0 0 1 1.97-2.15z" fill-rule="evenodd"/><path d="m335.42 62.95c1.52-.55 2.08.28 2.15 1.26.35 4.11-5.86.07-2.15-1.26z" fill-rule="evenodd"/><path d="m181 63.49c2-.58 2.87.48 3.05 1.61.55 3.35-4.88 4.34-4.67.36a1.94 1.94 0 0 1 1.62-1.97z" fill-rule="evenodd"/><path d="m130.91 66.36c-2.13.95-.18-2.44 0 0z" fill-rule="evenodd"/><path d="m247.44 66.9c5.09-1.37 5.87 5.79 2.15 6.64-2.1.48-5.39-.56-4.49-4.49a3.41 3.41 0 0 1 2.34-2.15z" fill-rule="evenodd"/><path d="m299.15 66.9c5.08-1.19 4.5 6.31.36 5.92-2.45-.23-4.24-5.01-.36-5.92z" fill-rule="evenodd"/><path d="m196.45 67.8c5.08-1.19 4.5 6.31.35 5.92-2.43-.23-4.23-5.02-.35-5.92z" fill-rule="evenodd"/><path d="m351 68.15c3-.9 1.39 4.35-.72 2.34a1.44 1.44 0 0 1 .72-2.34z" fill-rule="evenodd"/><path d="m145.1 69.77c.13-.41 1-.07 1.44-.18 2.15 1.37-.79 4.31-2.16 2.16-.1-1 .03-1.75.72-1.98z" fill-rule="evenodd"/><path d="m263.24 71.57c6.68-1.2 4.87 9.8-1.08 7-2.23-1.05-2.97-6.28 1.08-7z" fill-rule="evenodd"/><path d="m315.13 71.93c3.92-.52 4.56 5.75.54 5.92-3.67.15-4.39-5.41-.54-5.92z" fill-rule="evenodd"/><path d="m211.89 72.28c2.33-.43 4.41.71 4.31 3.59-.16 4.61-7.59 4.77-7.18-.54a3.1 3.1 0 0 1 2.87-3.05z" fill-rule="evenodd"/><path d="m367.74 73.54a2.35 2.35 0 0 1 0 1.79 2.39 2.39 0 0 1 -1.79 0 1.28 1.28 0 0 1 1.79-1.79z" fill-rule="evenodd"/><path d="m161.08 73.72c1.94-.21 3.64 2.46 2 4.13-2.89 2.85-6.84-3.61-2-4.13z" fill-rule="evenodd"/><path d="m110.44 76.77c-2.13 1-.17-2.44 0 0z" fill-rule="evenodd"/><path d="m278.68 76.41a3.82 3.82 0 0 1 4.49 5.2c-1.37 4.08-9.52 3-7.54-2.87a4 4 0 0 1 3.05-2.33z" fill-rule="evenodd"/><path d="m227.69 76.77a4 4 0 0 1 4.13 5.75c-1.92 4.27-10 1.89-7.54-3.59a4.14 4.14 0 0 1 3.41-2.16z" fill-rule="evenodd"/><path d="m330 77.13c2-.56 3.42.31 3.77 1.8 1.06 4.48-6.44 5.46-5.75.36a2.55 2.55 0 0 1 1.98-2.16z" fill-rule="evenodd"/><path d="m175.8 78c4.76-1.19 5.38 5.66 1.62 6.28-1.77.29-4.36-.47-4-3.77a3 3 0 0 1 2.38-2.51z" fill-rule="evenodd"/><path d="m383 78.93v1.07c-.23.25-.78.18-1.26.18a.89.89 0 0 1 1.26-1.25z" fill-rule="evenodd"/><path d="m126.42 80.54a1.41 1.41 0 0 1 -2.15 1.79 1.41 1.41 0 0 1 2.15-1.79z" fill-rule="evenodd"/><path d="m243.13 81.44c5.7-.52 6.36 8.61.54 8.8-5.58.18-6.27-8.24-.54-8.8z" fill-rule="evenodd"/><path d="m293.76 81.44c3.65-.87 6.06 2 4.85 5.39-1.43 4.06-9.67 2.82-7.54-3.23a3.82 3.82 0 0 1 2.69-2.16z" fill-rule="evenodd"/><path d="m191.6 82.34c5.68-.81 5.57 7.56.72 7.72-4.61.15-5.65-7.06-.72-7.72z" fill-rule="evenodd"/><path d="m345.65 82.34c2.24-.56 3.21.63 3.41 2 .57 3.88-5.81 4.8-5.38.18a2.32 2.32 0 0 1 1.97-2.18z" fill-rule="evenodd"/><path d="m398.27 84.85c-2.13 1-.17-2.44 0 0z" fill-rule="evenodd"/><path d="m140.07 84.31c2-.58 2.87.48 3.05 1.61.56 3.35-4.88 4.34-4.67.36a2 2 0 0 1 1.62-1.97z" fill-rule="evenodd"/><path d="m258 86.29c5.2-1 7.73 6.18 3.24 8.62-5.99 3.26-10.4-7.3-3.24-8.62z" fill-rule="evenodd"/><path d="m90 87.19c-2.13.95-.18-2.44 0 0z" fill-rule="evenodd"/><path d="m309.39 86.46c3.65-.87 6.05 2 4.85 5.39-1.43 4.06-9.68 2.82-7.54-3.23a3.83 3.83 0 0 1 2.69-2.16z" fill-rule="evenodd"/><path d="m207.22 86.83c5.7-.52 6.36 8.61.54 8.8-5.58.17-6.27-8.28-.54-8.8z" fill-rule="evenodd"/><path d="m361.64 87.54c1.95-.21 3.64 2.46 2 4.13-2.88 2.86-6.84-3.61-2-4.13z" fill-rule="evenodd"/><path d="m155.33 88.44c4.76-1.2 5.39 5.67 1.62 6.28-1.77.29-4.36-.47-4-3.77a3 3 0 0 1 2.38-2.51z" fill-rule="evenodd"/><path d="m273.48 91.13c6.79-1.25 7.62 9 1.44 9.51-5.67.52-7.58-8.38-1.44-9.51z" fill-rule="evenodd"/><path d="m105.59 91.32v1.07c-.23.25-.78.18-1.25.18a.89.89 0 0 1 1.25-1.25z" fill-rule="evenodd"/><path d="m221.95 91.49c7.55-1.51 7.77 10.42.35 9.51-5.39-.65-5.38-8.5-.35-9.51z" fill-rule="evenodd"/><path d="m325.19 91.49a3.83 3.83 0 0 1 4.49 5.21c-1.38 4.08-9.53 3-7.54-2.87a4 4 0 0 1 3.05-2.34z" fill-rule="evenodd"/><path d="m170.77 92.75c2.82-.56 5.17 1.09 4.85 4.31-.44 4.37-8.5 4.83-7.9-1.08.18-1.8.86-2.79 3.05-3.23z" fill-rule="evenodd"/><path d="m376.54 93.11c1.78-.61 2.51.34 2.7 1.26.57 2.94-3.5 3.4-4 1.08-.24-1.54.29-1.99 1.3-2.34z" fill-rule="evenodd"/><path d="m120.13 94.9c3.13-.38 2.61 4.3 0 4.13-2.13-.14-2.82-3.78 0-4.13z" fill-rule="evenodd"/><path d="m289.63 96c5.31-.27 6.78 7.23 2.51 9.33-6.95 3.42-10.65-8.94-2.51-9.33z" fill-rule="evenodd"/><path d="m237.56 96.16a5.21 5.21 0 0 1 5.75 7.18c-2.31 5.48-12.69 2.8-9.7-4.31a4.84 4.84 0 0 1 3.95-2.87z" fill-rule="evenodd"/><path d="m340.63 96.7c6.68-1.2 4.87 9.8-1.08 7-2.22-1.05-2.97-6.27 1.08-7z" fill-rule="evenodd"/><path d="m186.75 97.06a4.71 4.71 0 0 1 3.59 1.08c4.26 4-1.89 11.06-6.46 6.82a4.62 4.62 0 0 1 2.87-7.9z" fill-rule="evenodd"/><path d="m392.34 98.67c3-.9 1.39 4.35-.72 2.34a1.44 1.44 0 0 1 .72-2.34z" fill-rule="evenodd"/><path d="m135 99c5.08-1.19 4.51 6.31.36 5.92-2.36-.19-4.19-4.98-.36-5.92z" fill-rule="evenodd"/><path d="m253.72 100.83a6.77 6.77 0 0 1 4.13 1.44c.47.47 1.94 3.25 1.44 5.38-.71 3-4.07 4.6-6.82 4-5.82-1.42-5.13-10.48 1.25-10.82z" fill-rule="evenodd"/><path d="m305.26 101c5.31-.27 6.78 7.23 2.51 9.33-6.96 3.44-10.66-8.91-2.51-9.33z" fill-rule="evenodd"/><path d="m202.19 101.54a5 5 0 0 1 5.57 5c0 7.47-12.29 6.08-10.23-1.43.56-2.03 2.06-3.35 4.66-3.57z" fill-rule="evenodd"/><path d="m84.94 102.62c-2.13.95-.17-2.44 0 0z" fill-rule="evenodd"/><path d="m355.71 102.08c5.09-1.37 5.87 5.79 2.15 6.64-2.1.48-5.39-.56-4.49-4.49a3.41 3.41 0 0 1 2.34-2.15z" fill-rule="evenodd"/><path d="m150.66 103.16c5.68-.82 5.57 7.56.72 7.72-4.61.12-5.65-7.01-.72-7.72z" fill-rule="evenodd"/><path d="m408.86 104.42v1.08c-.23.25-.78.18-1.26.18a.89.89 0 0 1 1.26-1.26z" fill-rule="evenodd"/><path d="m267.91 105.85c3.94-.91 8 2 7 6.82-1.25 6-10.14 4.79-11.13 0-.69-3.33 1.01-6.09 4.13-6.82z" fill-rule="evenodd"/><path d="m99.13 106c.13-.41 1-.07 1.44-.18 2.16 1.37-.78 4.31-2.15 2.16-.11-.98.02-1.74.71-1.98z" fill-rule="evenodd"/><path d="m216.92 106.21c3.67-.67 7.9 2.37 6.46 7.18-1.59 5.34-9.45 4.44-10.78 0a5.59 5.59 0 0 1 4.32-7.18z" fill-rule="evenodd"/><path d="m320 106.21c6.79-1.24 7.62 9 1.44 9.52-5.68.5-7.6-8.39-1.44-9.52z" fill-rule="evenodd"/><path d="m166.28 107.47a4.71 4.71 0 0 1 3.59 1.08c4.26 4-1.89 11.06-6.46 6.82a4.62 4.62 0 0 1 2.87-7.9z" fill-rule="evenodd"/><path d="m371.33 107.47c6.68-1.74 3.46 9.45-1.25 5.21a3 3 0 0 1 1.25-5.21z" fill-rule="evenodd"/><path d="m424.12 110.34c-2.13 1-.17-2.44 0 0z" fill-rule="evenodd"/><path d="m114.57 109.8c2.24-.56 3.21.63 3.41 2 .57 3.88-5.82 4.81-5.38.18a2.33 2.33 0 0 1 1.97-2.18z" fill-rule="evenodd"/><path d="m283.71 110.7a5.76 5.76 0 0 1 5.21 9.69 6 6 0 0 1 -8.26 0 5.77 5.77 0 0 1 3.05-9.69z" fill-rule="evenodd"/><path d="m232.54 110.88a5.75 5.75 0 0 1 6.82 5.92c-.19 7.84-11.51 7-11.85.18-.18-3.51 1.36-5.54 5.03-6.1z" fill-rule="evenodd"/><path d="m335.42 111.24c5.19-1 7.72 6.18 3.23 8.62-6.01 3.26-10.43-7.3-3.23-8.62z" fill-rule="evenodd"/><path d="m181 112a6.07 6.07 0 0 1 4.67 1.08c5 4.57-2.38 12.69-7.36 7.72a5.29 5.29 0 0 1 2.69-8.8z" fill-rule="evenodd"/><path d="m387.31 112.85c3.92-.6 3.75 5 .54 5.21-2.85.15-4.12-4.65-.54-5.21z" fill-rule="evenodd"/><path d="m129.83 113.93c4.76-1.07 6.18 6.2 1.79 7-2.33.43-5.6-1.27-4.31-5a3.42 3.42 0 0 1 2.52-2z" fill-rule="evenodd"/><path d="m247.44 115.73a8.65 8.65 0 0 1 4 .18c3.3 1.32 6.17 9 0 11.49-4.75 1.88-10.64-2.27-8.26-8.26a5.93 5.93 0 0 1 4.26-3.41z" fill-rule="evenodd"/><path d="m299.69 115.73c7.73-1 8.62 11.13.9 11.31-7.07.16-7.95-10.41-.9-11.31z" fill-rule="evenodd"/><path d="m196.45 116.44a5.77 5.77 0 0 1 5.21 9.7 6.06 6.06 0 0 1 -8.26 0 5.77 5.77 0 0 1 3.05-9.7z" fill-rule="evenodd"/><path d="m350.68 116.63c7-1.5 7 9.75 0 8.44-3.61-.68-4.68-7.43 0-8.44z" fill-rule="evenodd"/><path d="m80.1 117.16v1.08c-.23.25-.78.18-1.26.18a.89.89 0 0 1 1.26-1.26z" fill-rule="evenodd"/><path d="m145.82 118.06c5.7-.52 6.36 8.61.54 8.8-5.59.14-6.28-8.28-.54-8.8z" fill-rule="evenodd"/><path d="m402.4 118.6c1.78-.61 2.51.34 2.69 1.26.58 2.94-3.5 3.4-4 1.07-.25-1.53.3-1.98 1.31-2.33z" fill-rule="evenodd"/><path d="m262.88 120.57a6.35 6.35 0 0 1 7.37 8.62c-2.08 5.23-10 4.6-11.85 0a7 7 0 0 1 0-5 6.71 6.71 0 0 1 4.48-3.62z" fill-rule="evenodd"/><path d="m94.64 120.76c3.14-.38 2.62 4.3 0 4.13-2.14-.15-2.84-3.79 0-4.13z" fill-rule="evenodd"/><path d="m314.6 120.93c9.47-1.9 8.62 13.62-.72 10.77-4.44-1.35-5.16-9.58.72-10.77z" fill-rule="evenodd"/><path d="m211.53 121.11a8.65 8.65 0 0 1 4 .18c3.31 1.31 6.17 9 0 11.5-4.74 1.88-10.63-2.28-8.26-8.26a5.91 5.91 0 0 1 4.26-3.42z" fill-rule="evenodd"/><path d="m366.13 122c3.65-.87 6.06 2 4.85 5.39-1.43 4.05-9.68 2.81-7.54-3.23a3.82 3.82 0 0 1 2.69-2.16z" fill-rule="evenodd"/><path d="m161.26 122.37a5 5 0 0 1 5.57 5c0 7.47-12.29 6.08-10.23-1.44.55-2.02 2.05-3.35 4.66-3.56z" fill-rule="evenodd"/><path d="m419.63 124.53a1.41 1.41 0 0 1 -2.15 1.79 1.41 1.41 0 0 1 2.15-1.79z" fill-rule="evenodd"/><path d="m110.08 124.7c5.34-.46 3.45 7.44-.9 6.11-2.57-.81-3.04-5.81.9-6.11z" fill-rule="evenodd"/><path d="m278.87 125.42c9-1.26 9.61 12.74.89 12.74a6.5 6.5 0 0 1 -6.47-6.29c-.08-3.56 1.91-5.93 5.58-6.45z" fill-rule="evenodd"/><path d="m227 125.78c4.83-1 8.82 2.69 7.9 7.72-.67 3.66-4.53 5.65-7.9 5-4.37-.8-6.59-6.95-3.77-10.6a5.69 5.69 0 0 1 3.77-2.12z" fill-rule="evenodd"/><path d="m330 126.14a7.54 7.54 0 0 1 3.59.18c3.21 1.37 4.83 8 0 10-4 1.71-9.7-1.88-7.36-7.36a5.36 5.36 0 0 1 3.77-2.82z" fill-rule="evenodd"/><path d="m176 126.86a5.76 5.76 0 0 1 5.21 9.69 6 6 0 0 1 -8.26 0 5.77 5.77 0 0 1 3.05-9.69z" fill-rule="evenodd"/><path d="m381.93 127.4c2.33-.43 4.41.7 4.31 3.59-.16 4.61-7.58 4.77-7.18-.54a3.09 3.09 0 0 1 2.87-3.05z" fill-rule="evenodd"/><path d="m59.44 128.47c-2.13 1-.17-2.44 0 0z" fill-rule="evenodd"/><path d="m125.35 128.83a4 4 0 0 1 4.13 5.75c-1.93 4.27-10 1.89-7.54-3.59a4.15 4.15 0 0 1 3.41-2.16z" fill-rule="evenodd"/><path d="m434.54 130.81c-2.13 1-.17-2.44 0 0z" fill-rule="evenodd"/><path d="m243 130.45c8.07-1 10.23 10.09 3.77 12.92-4.75 2.08-12-2.6-9.16-9.16a7 7 0 0 1 5.39-3.76z" fill-rule="evenodd"/><path d="m294.66 130.45a6.3 6.3 0 0 1 7.18 6.28c0 8.79-12.75 7.93-12.93.18-.08-3.67 1.7-6 5.75-6.46z" fill-rule="evenodd"/><path d="m191.6 131.35a8.45 8.45 0 0 1 3.23.18c5.88 2.17 4.66 12.21-2.33 12.21-7.77-.01-8.41-11.34-.9-12.39z" fill-rule="evenodd"/><path d="m345.84 131.35a5.21 5.21 0 0 1 5.75 7.18c-2.31 5.48-12.69 2.8-9.69-4.31a4.84 4.84 0 0 1 3.94-2.87z" fill-rule="evenodd"/><path d="m75.24 132.24a2.35 2.35 0 0 1 0 1.79 2.39 2.39 0 0 1 -1.79 0 1.28 1.28 0 0 1 1.79-1.79z" fill-rule="evenodd"/><path d="m397.72 133c3.92-.52 4.56 5.74.54 5.92-3.64.08-4.38-5.45-.54-5.92z" fill-rule="evenodd"/><path d="m140.07 133.14c7.55-1.51 7.77 10.42.36 9.51-5.43-.65-5.43-8.5-.36-9.51z" fill-rule="evenodd"/><path d="m258.39 135.29a6.81 6.81 0 0 1 7.9 6.82 7 7 0 0 1 -7 7c-4.29 0-9.09-4.53-6.28-10.23a6.87 6.87 0 0 1 5.38-3.59z" fill-rule="evenodd"/><path d="m309.39 135.66a6.34 6.34 0 0 1 7.36 8.61c-2.07 5.23-10 4.6-11.85 0a7 7 0 0 1 0-5 6.68 6.68 0 0 1 4.49-3.61z" fill-rule="evenodd"/><path d="m89.25 135.83c2-.44 3 .67 3.05 2.15.18 3.34-5 3.75-5 .18a2.1 2.1 0 0 1 1.95-2.33z" fill-rule="evenodd"/><path d="m206.5 136a7.88 7.88 0 0 1 4.13.18c4.92 1.93 5.57 10.39 0 12.57a7.25 7.25 0 0 1 -9-3.59 7.74 7.74 0 0 1 0-5.39 6.15 6.15 0 0 1 4.87-3.77z" fill-rule="evenodd"/><path d="m361.28 136.73c6.79-1.25 7.62 9 1.43 9.52-5.66.5-7.57-8.39-1.43-9.52z" fill-rule="evenodd"/><path d="m155.51 137.45c3.67-.68 7.9 2.37 6.47 7.18-1.59 5.33-9.45 4.44-10.78 0a5.59 5.59 0 0 1 4.31-7.18z" fill-rule="evenodd"/><path d="m413 138.71c2-.45 2.79.61 2.87 2 .19 3.09-4.67 3.55-4.67.18a2 2 0 0 1 1.8-2.18z" fill-rule="evenodd"/><path d="m104.7 139.78c5-.8 5.35 6.82.72 7-4.04.17-5.22-6.29-.72-7z" fill-rule="evenodd"/><path d="m273.29 140.32a7.12 7.12 0 0 1 6.47 1.79c1 1 2.69 4.86 1.62 7.72-2.24 6-11.31 5.28-13.28 0-.28-.74-1.35-1.8 0-5.39a6.85 6.85 0 0 1 5.19-4.12z" fill-rule="evenodd"/><path d="m221.95 140.68a7.13 7.13 0 0 1 6.46 1.79c1 1 2.69 4.86 1.61 7.72-2.24 6-11.31 5.27-13.29 0-.28-.74-1.35-1.8 0-5.38a6.84 6.84 0 0 1 5.22-4.13z" fill-rule="evenodd"/><path d="m325 140.86c4.58-.84 9.05 3.36 7 8.44-2.65 6.58-14.89 3.41-11.49-5a5.94 5.94 0 0 1 4.49-3.44z" fill-rule="evenodd"/><path d="m170.59 141.94a8.52 8.52 0 0 1 3.95.18c3.31 1.32 6.17 9 0 11.49-4.75 1.89-10.63-2.27-8.26-8.26a6 6 0 0 1 4.31-3.41z" fill-rule="evenodd"/><path d="m376.54 142.3c7-1.51 7 9.75 0 8.44-3.62-.69-4.68-7.43 0-8.44z" fill-rule="evenodd"/><path d="m54.42 143.91c-2.13.95-.17-2.44 0 0z" fill-rule="evenodd"/><path d="m120 143.91a4.22 4.22 0 0 1 5.21 4.31c0 5.92-9 5.75-9 0a4.08 4.08 0 0 1 3.79-4.31z" fill-rule="evenodd"/><path d="m428.61 144.63c3-.9 1.39 4.34-.72 2.34a1.44 1.44 0 0 1 .72-2.34z" fill-rule="evenodd"/><path d="m237.92 145.34c10-1.23 11 14.35 1.08 14.55a7.41 7.41 0 0 1 -7.54-7.18c-.08-4.12 2.26-6.85 6.46-7.37z" fill-rule="evenodd"/><path d="m288.92 145.34a7.16 7.16 0 0 1 6.47 1.79c1 1 2.69 4.86 1.61 7.72-2.24 6-11.3 5.28-13.29 0-.28-.73-1.35-1.8 0-5.38a6.87 6.87 0 0 1 5.21-4.13z" fill-rule="evenodd"/><path d="m341 146.06a7.17 7.17 0 0 1 4.67 1.26c5.38 4.65-2 14.61-8.08 8.8a5.94 5.94 0 0 1 3.41-10.06z" fill-rule="evenodd"/><path d="m186 146.43a7.79 7.79 0 0 1 4.13.18c4.92 1.93 5.57 10.39 0 12.57a7.24 7.24 0 0 1 -9-3.59 7.75 7.75 0 0 1 0-5.38 6.16 6.16 0 0 1 4.87-3.78z" fill-rule="evenodd"/><path d="m68.6 147.32c.13-.4 1-.07 1.44-.18 2.16 1.37-.79 4.31-2.15 2.16-.1-1 .03-1.77.71-1.98z" fill-rule="evenodd"/><path d="m392 147.86c6.9-1.68 6.08 9.61-.54 7.18-2.32-.84-3.62-6.17.54-7.18z" fill-rule="evenodd"/><path d="m135 148.22a6 6 0 0 1 4.67 1.08c5 4.57-2.39 12.69-7.37 7.71a5.29 5.29 0 0 1 2.7-8.79z" fill-rule="evenodd"/><path d="m253.37 150.19a7.39 7.39 0 0 1 8.44 7.36c0 10.18-15.08 9.36-15.08 0a7.08 7.08 0 0 1 6.64-7.36z" fill-rule="evenodd"/><path d="m304.9 150.37a6.81 6.81 0 0 1 7.9 6.83 7 7 0 0 1 -7 7c-4.28 0-9.08-4.53-6.28-10.23a6.85 6.85 0 0 1 5.38-3.6z" fill-rule="evenodd"/><path d="m444.95 151.27c-2.13.95-.17-2.44 0 0z" fill-rule="evenodd"/><path d="m84.41 150.91a2.87 2.87 0 0 1 2.52.72c3.59 4-5 7.16-5 2-.04-1.46.52-2.44 2.48-2.72z" fill-rule="evenodd"/><path d="m202 150.91a7.05 7.05 0 0 1 8.08 7c0 10-14.36 8.57-14.36 0 .01-3.91 2.15-6.47 6.28-7z" fill-rule="evenodd"/><path d="m356.25 151.45a5.44 5.44 0 0 1 6.47 5.56c-.19 7.71-11.51 6.35-11.13-.54.14-2.75 1.65-4.54 4.66-5.02z" fill-rule="evenodd"/><path d="m150.48 152.53c7.24-1.22 9.44 8.95 3.41 11.31-7.89 3.09-11.81-9.9-3.41-11.31z" fill-rule="evenodd"/><path d="m408 153.43c4.66-.76 4.89 6.12.72 6.28-3.57.14-4.88-5.61-.72-6.28z" fill-rule="evenodd"/><path d="m99.31 155c6.49-1.46 5.56 9.28-.54 7.18-2.53-.83-3.77-6.18.54-7.18z" fill-rule="evenodd"/><path d="m268.27 155.22c5.51-.94 11.32 4.16 8.44 10.6-2.21 4.95-11.22 6.21-14 0a7.34 7.34 0 0 1 0-6.47 8.13 8.13 0 0 1 5.56-4.13z" fill-rule="evenodd"/><path d="m217.46 155.58a7.38 7.38 0 0 1 8.44 7.36c0 10.18-15.08 9.36-15.08 0a7.09 7.09 0 0 1 6.64-7.36z" fill-rule="evenodd"/><path d="m320.52 155.58a6.71 6.71 0 0 1 7.54 6.47c.22 9.4-13.45 8.61-13.65.35-.09-4.01 2.43-6.4 6.11-6.82z" fill-rule="evenodd"/><path d="m165.57 157c4.55-.88 8.85 2.27 7.9 7.71-.28 1.6-2.45 4.58-5 5-8.82 1.59-10.97-11.13-2.9-12.71z" fill-rule="evenodd"/><path d="m371.33 157a5.09 5.09 0 0 1 6.29 6.1c-1.13 5.84-11.49 4.93-10.06-2.51a4.92 4.92 0 0 1 3.77-3.59z" fill-rule="evenodd"/><path d="m49.39 159.35c-2.13.95-.18-2.44 0 0z" fill-rule="evenodd"/><path d="m114.57 159.17c7.46-1.59 7.38 10.51 0 9.15-4.78-.87-4.57-8.16 0-9.15z" fill-rule="evenodd"/><path d="m423.76 159.17c1.95-.21 3.64 2.46 2 4.12-2.88 2.86-6.84-3.6-2-4.12z" fill-rule="evenodd"/><path d="m283.89 160.24a7.57 7.57 0 0 1 8.8 9.52c-2 7.68-14 6.68-14.9-.72-.69-5.31 2.47-8.13 6.1-8.8z" fill-rule="evenodd"/><path d="m232.36 160.43c5.28-.9 9.8 2.87 9.16 8.62-1.09 9.69-16.67 8.4-15.44-2.15a7.05 7.05 0 0 1 6.28-6.47z" fill-rule="evenodd"/><path d="m335.24 161c4.83-1 8.82 2.69 7.9 7.72-.67 3.66-4.54 5.64-7.9 5-4.37-.8-6.59-6.94-3.77-10.59a5.69 5.69 0 0 1 3.77-2.13z" fill-rule="evenodd"/><path d="m181 161.51c5.58-1 10.15 3.86 8.08 9.51-1.77 4.85-11 6.27-13.29 0a7.61 7.61 0 0 1 0-5.38 7 7 0 0 1 5.21-4.13z" fill-rule="evenodd"/><path d="m64.11 162.4a1.74 1.74 0 0 1 1.62.54c1.7 2.35-3.52 4.43-3.24.9a1.72 1.72 0 0 1 1.62-1.44z" fill-rule="evenodd"/><path d="m386.78 162.58c7.67-1.94 7.17 10.72-.18 8.61-1.71-.48-3.9-2.18-2.87-5.74a4.18 4.18 0 0 1 3.05-2.87z" fill-rule="evenodd"/><path d="m130.55 163.3a5.46 5.46 0 0 1 6.11 5.39c0 7.53-11 6.72-11.14.17-.07-3.15 1.41-5.18 5.03-5.56z" fill-rule="evenodd"/><path d="m300 165.27a7.41 7.41 0 0 1 8.26 7.37c0 10.29-15.09 9.11-15.09 0 .05-4.13 2.47-6.9 6.83-7.37z" fill-rule="evenodd"/><path d="m439 165.27c3-.9 1.39 4.34-.72 2.34a1.44 1.44 0 0 1 .72-2.34z" fill-rule="evenodd"/><path d="m197 166a7.39 7.39 0 0 1 8.44 7.37c0 10.17-15.08 9.36-15.08 0a7.09 7.09 0 0 1 6.64-7.37z" fill-rule="evenodd"/><path d="m79.38 166.17c3.92-.52 4.56 5.74.54 5.92-3.64.16-4.39-5.41-.54-5.92z" fill-rule="evenodd"/><path d="m350.87 166.35c4.57-.84 9.05 3.35 7 8.44-2.65 6.58-14.89 3.41-11.49-5a5.92 5.92 0 0 1 4.49-3.44z" fill-rule="evenodd"/><path d="m146.17 167.61a6.17 6.17 0 0 1 6.64 6.1c0 8.43-12.41 7.65-12.57.18-.07-3.42 1.94-5.99 5.93-6.28z" fill-rule="evenodd"/><path d="m402.76 168.15a3.83 3.83 0 0 1 4.49 5.21c-1.38 4.07-9.53 3-7.54-2.87a4 4 0 0 1 3.05-2.34z" fill-rule="evenodd"/><path d="m94.28 170.3c2.82-.57 5.17 1.09 4.85 4.3-.44 4.37-8.5 4.84-7.9-1.08.18-1.79.86-2.78 3.05-3.22z" fill-rule="evenodd"/><path d="m315.5 170.48a7.16 7.16 0 0 1 8.08 7.18c0 9.94-14.51 9.09-14.72.18-.12-4.27 2.7-6.94 6.64-7.36z" fill-rule="evenodd"/><path d="m212.43 170.66a7.7 7.7 0 0 1 8.8 7.54 7.91 7.91 0 0 1 -11.67 7.18c-6.56-3.52-4.85-13.83 2.87-14.72z" fill-rule="evenodd"/><path d="m455.37 171.91c-2.13 1-.18-2.44 0 0z" fill-rule="evenodd"/><path d="m366.84 171.73c7.73-1 8.62 11.13.9 11.31-7.06.17-7.95-10.4-.9-11.31z" fill-rule="evenodd"/><path d="m160.89 172.1a6.63 6.63 0 0 1 7.91 5.9 6.81 6.81 0 0 1 -7.37 7.54c-7-.45-8-9.83-3-12.75a6.78 6.78 0 0 1 2.46-.69z" fill-rule="evenodd"/><path d="m418.38 173.89c4.65-.76 4.89 6.12.72 6.28-3.54.14-4.84-5.61-.72-6.28z" fill-rule="evenodd"/><path d="m44.36 174.79c-2.12.95-.17-2.44 0 0z" fill-rule="evenodd"/><path d="m109.55 174.43c7.55-1.51 7.77 10.42.36 9.51-5.4-.66-5.39-8.51-.36-9.51z" fill-rule="evenodd"/><path d="m330.21 175.86a7.11 7.11 0 0 1 6.46 1.79c1 1 2.69 4.85 1.62 7.72-2.24 6-11.31 5.27-13.29 0-.27-.73-1.34-1.8 0-5.38a6.83 6.83 0 0 1 5.21-4.13z" fill-rule="evenodd"/><path d="m176.52 176.58c10-1.23 11 14.34 1.07 14.54a7.41 7.41 0 0 1 -7.54-7.18c-.05-4.11 2.27-6.84 6.47-7.36z" fill-rule="evenodd"/><path d="m382.11 177.3a5.21 5.21 0 0 1 5.74 7.18c-2.31 5.48-12.69 2.8-9.7-4.31a4.84 4.84 0 0 1 3.96-2.87z" fill-rule="evenodd"/><path d="m59.09 177.66c2.06-.28 2.8 2.81 1.07 3.59-2.4 1.09-4.33-3.14-1.07-3.59z" fill-rule="evenodd"/><path d="m125.52 178.56c7.45-.73 8.31 11.15.72 11.31-6.99.13-8-10.6-.72-11.31z" fill-rule="evenodd"/><path d="m433.82 179.81c2-.44 2.79.61 2.87 2 .19 3.1-4.67 3.55-4.67.18a2 2 0 0 1 1.8-2.18z" fill-rule="evenodd"/><path d="m191.24 181.25c5.76-1.06 11 3.52 9 10-2.85 9-18.07 5.56-14.72-5a7.3 7.3 0 0 1 5.72-5z" fill-rule="evenodd"/><path d="m345.65 181.25a6.73 6.73 0 0 1 8.08 5c1.72 9.35-11.9 10.43-13.29 2.87a6.52 6.52 0 0 1 5.21-7.87z" fill-rule="evenodd"/><path d="m73.81 181.61c6.68-1.73 3.46 9.44-1.25 5.21a3 3 0 0 1 1.25-5.21z" fill-rule="evenodd"/><path d="m140.07 183a7.07 7.07 0 0 1 5.92 1.43c.84.81 2.36 4.32 1.62 6.82-2 6.81-15 4.9-12.21-4.31a5.91 5.91 0 0 1 4.67-3.94z" fill-rule="evenodd"/><path d="m397.19 183c7.68-1.93 7.17 10.72-.18 8.61-1.7-.49-3.89-2.18-2.87-5.74a4.18 4.18 0 0 1 3.05-2.87z" fill-rule="evenodd"/><path d="m89.43 185.56c3.13-.54 4.77 1.34 4.85 3.77.19 5.49-8.07 5.68-8.26.36-.09-2.54 1.23-3.75 3.41-4.13z" fill-rule="evenodd"/><path d="m309.75 185.56c5.28-.91 9.8 2.87 9.15 8.61-1.09 9.69-16.66 8.41-15.44-2.15a7.06 7.06 0 0 1 6.29-6.46z" fill-rule="evenodd"/><path d="m450.87 186.1a1.41 1.41 0 0 1 -2.15 1.79 1.41 1.41 0 0 1 2.15-1.79z" fill-rule="evenodd"/><path d="m361.82 186.64a8.81 8.81 0 0 1 3.41.36c5.46 2.45 4 12-2.69 12-7.54 0-8.47-11.48-.72-12.36z" fill-rule="evenodd"/><path d="m155.87 187.35a6.89 6.89 0 0 1 8.08 7.18c-.42 9.36-13.52 7.8-14 .18a6.8 6.8 0 0 1 5.92-7.36z" fill-rule="evenodd"/><path d="m412.81 188.79c6.91-1.68 6.09 9.61-.54 7.18-2.27-.85-3.61-6.17.54-7.18z" fill-rule="evenodd"/><path d="m39.34 190.23c-2.13.94-.18-2.45 0 0z" fill-rule="evenodd"/><path d="m105.06 189.69a4.9 4.9 0 0 1 5.57 4.85c0 6.86-9.89 6-10.06.18-.09-3 1.7-4.72 4.49-5.03z" fill-rule="evenodd"/><path d="m325.9 190.76a7.4 7.4 0 0 1 8.26 7.36c0 10.29-15.08 9.11-15.08 0 .01-4.12 2.42-6.88 6.82-7.36z" fill-rule="evenodd"/><path d="m465.78 192.38c-2.12.95-.17-2.44 0 0z" fill-rule="evenodd"/><path d="m171.49 191.84a7.38 7.38 0 0 1 8.44 7.36c0 10.18-15.08 9.36-15.08 0a7.08 7.08 0 0 1 6.64-7.36z" fill-rule="evenodd"/><path d="m377.26 192.2c7.73-1 8.62 11.13.9 11.31-7.07.16-7.96-10.41-.9-11.31z" fill-rule="evenodd"/><path d="m54.06 193.1c2.07-.28 2.8 2.81 1.08 3.59-2.41 1.09-4.33-3.15-1.08-3.59z" fill-rule="evenodd"/><path d="m120 194c8.67-1.45 8.74 12.11.36 11.31-6.65-.64-6.58-10.31-.36-11.31z" fill-rule="evenodd"/><path d="m428.61 194.54c5.09-1.19 4.51 6.31.36 5.92-2.45-.23-4.24-5.02-.36-5.92z" fill-rule="evenodd"/><path d="m341.35 196.15a7 7 0 0 1 7.9 6.82c.25 9.94-14.36 9.09-14.36.18-.01-4.15 2.57-6.59 6.46-7z" fill-rule="evenodd"/><path d="m68.79 197c6.68-1.73 3.46 9.45-1.26 5.21a3 3 0 0 1 1.26-5.21z" fill-rule="evenodd"/><path d="m392.16 197.95a5.09 5.09 0 0 1 6.29 6.1c-1.13 5.84-11.49 4.93-10.06-2.51a4.92 4.92 0 0 1 3.77-3.59z" fill-rule="evenodd"/><path d="m135.4 198.3a6.48 6.48 0 0 1 7 9.16 6.81 6.81 0 0 1 -8.8 3 6.43 6.43 0 0 1 -3.05-8.8 6.06 6.06 0 0 1 4.85-3.36z" fill-rule="evenodd"/><path d="m444.05 200.64c1.78-.61 2.51.34 2.69 1.25.58 2.95-3.5 3.41-3.95 1.08-.29-1.53.21-1.97 1.26-2.33z" fill-rule="evenodd"/><path d="m84.41 201c3.12-.54 4.76 1.34 4.85 3.77.19 5.49-8.07 5.69-8.26.36-.09-2.55 1.22-3.76 3.41-4.13z" fill-rule="evenodd"/><path d="m356.07 201.71a6.74 6.74 0 0 1 8.08 5c1.71 9.36-11.91 10.43-13.29 2.87a6.52 6.52 0 0 1 5.21-7.87z" fill-rule="evenodd"/><path d="m150.48 202.79c5.58-1 10.15 3.86 8.08 9.51-1.78 4.84-11 6.27-13.29 0a7.61 7.61 0 0 1 0-5.38 7 7 0 0 1 5.21-4.13z" fill-rule="evenodd"/><path d="m407.78 203.69c7-1.5 7 9.76 0 8.44-3.62-.68-4.68-7.43 0-8.44z" fill-rule="evenodd"/><path d="m34.31 205.67c-2.13.95-.17-2.44 0 0z" fill-rule="evenodd"/><path d="m100 205.13a4.9 4.9 0 0 1 5.56 4.85c0 6.86-9.89 6-10.05.18-.06-3.01 1.74-4.72 4.49-5.03z" fill-rule="evenodd"/><path d="m320.88 205.84a7.76 7.76 0 0 1 8.62 7.54c.19 10.45-15.62 10.45-15.81.36-.08-4.68 3.12-7.48 7.19-7.9z" fill-rule="evenodd"/><path d="m460.93 206.92v1.08c-.23.25-.78.18-1.26.18a.89.89 0 0 1 1.26-1.26z" fill-rule="evenodd"/><path d="m165.74 207.28c9.18-1.72 12.2 10.52 5.21 14.18-6 3.11-14.19-3.19-10.42-10.41a8.28 8.28 0 0 1 5.21-3.77z" fill-rule="evenodd"/><path d="m371.69 207.28c4.57-.85 9.05 3.35 7 8.43-2.65 6.59-14.89 3.42-11.49-5a5.92 5.92 0 0 1 4.49-3.43z" fill-rule="evenodd"/><path d="m49 208.72a1.73 1.73 0 0 1 1.62.54c1.7 2.35-3.52 4.42-3.23.9a1.7 1.7 0 0 1 1.61-1.44z" fill-rule="evenodd"/><path d="m114.93 209.43c8.67-1.45 8.75 12.12.36 11.31-6.61-.63-6.54-10.27-.36-11.31z" fill-rule="evenodd"/><path d="m423.58 209.43c2.33-.42 4.41.71 4.31 3.6-.16 4.6-7.58 4.77-7.18-.55a3.1 3.1 0 0 1 2.87-3.05z" fill-rule="evenodd"/><path d="m336.32 211.23a7.4 7.4 0 0 1 8.26 7.36c0 10.29-15.07 9.11-15.07 0-.01-4.12 2.41-6.89 6.81-7.36z" fill-rule="evenodd"/><path d="m64.3 212.48c3.92-.51 4.56 5.75.54 5.93-3.65.16-4.4-5.41-.54-5.93z" fill-rule="evenodd"/><path d="m387.5 212.84a5.45 5.45 0 0 1 6.46 5.57c-.19 7.71-11.51 6.34-11.14-.54.18-2.75 1.67-4.55 4.68-5.03z" fill-rule="evenodd"/><path d="m130.38 213.74a6.48 6.48 0 0 1 7 9.16 6.81 6.81 0 0 1 -8.8 3 6.42 6.42 0 0 1 -3.05-8.8 6.07 6.07 0 0 1 4.85-3.36z" fill-rule="evenodd"/><path d="m439.39 215.36c3.92-.61 3.74 5 .54 5.21-2.85.14-4.13-4.66-.54-5.21z" fill-rule="evenodd"/><path d="m79 216.62c3.66-.88 6.05 2 4.85 5.38-1.43 4.06-9.68 2.82-7.54-3.23a3.84 3.84 0 0 1 2.69-2.15z" fill-rule="evenodd"/><path d="m351 216.8a7.12 7.12 0 0 1 6.46 1.79c1 1 2.69 4.86 1.62 7.72-2.24 6-11.31 5.28-13.29 0-.27-.74-1.35-1.8 0-5.39a6.84 6.84 0 0 1 5.21-4.12z" fill-rule="evenodd"/><path d="m145.45 218.23c5.58-1 10.15 3.86 8.08 9.51-1.77 4.85-11 6.27-13.28 0a7.55 7.55 0 0 1 0-5.38 7 7 0 0 1 5.2-4.13z" fill-rule="evenodd"/><path d="m402.94 218.59c6.79-1.24 7.62 9 1.44 9.52-5.67.5-7.59-8.39-1.44-9.52z" fill-rule="evenodd"/><path d="m29.28 221.1c-2.13.95-.18-2.44 0 0z" fill-rule="evenodd"/><path d="m94.28 220.74c3.81-.88 7 2 5.92 6.1-1.46 5.46-11.27 4.35-9.33-2.87a4.45 4.45 0 0 1 3.41-3.23z" fill-rule="evenodd"/><path d="m454.82 221.64c3-.9 1.39 4.34-.71 2.34a1.44 1.44 0 0 1 .71-2.34z" fill-rule="evenodd"/><path d="m366.48 222.36c4.83-1 8.82 2.69 7.9 7.72-.67 3.66-4.53 5.64-7.9 5-4.37-.8-6.58-6.94-3.77-10.6a5.71 5.71 0 0 1 3.77-2.12z" fill-rule="evenodd"/><path d="m160.72 222.72c9.18-1.71 12.2 10.53 5.21 14.18-6 3.12-14.19-3.18-10.41-10.41a8.26 8.26 0 0 1 5.2-3.77z" fill-rule="evenodd"/><path d="m43.47 224.51c.13-.4 1-.06 1.43-.17 2.15 1.36-.79 4.31-2.15 2.15-.1-1 .03-1.77.72-1.98z" fill-rule="evenodd"/><path d="m418.2 224.51c3.65-.87 6.05 2 4.85 5.39-1.43 4.05-9.68 2.82-7.54-3.23a3.86 3.86 0 0 1 2.69-2.16z" fill-rule="evenodd"/><path d="m110.44 224.87c7.45-.73 8.32 11.15.72 11.31-6.99.15-8-10.59-.72-11.31z" fill-rule="evenodd"/><path d="m330.57 226.49c5.28-.9 9.8 2.87 9.16 8.62-1.09 9.69-16.66 8.4-15.44-2.15a7.05 7.05 0 0 1 6.28-6.47z" fill-rule="evenodd"/><path d="m471.16 228.28c-2.12.95-.17-2.44 0 0z" fill-rule="evenodd"/><path d="m382.46 227.92a5.75 5.75 0 0 1 6.83 5.93c-.19 7.83-11.51 7-11.85.18-.18-3.51 1.36-5.55 5.02-6.11z" fill-rule="evenodd"/><path d="m59.27 228.11a2.84 2.84 0 0 1 2.51.72c3.59 4-5 7.16-5 2-.02-1.47.53-2.45 2.49-2.72z" fill-rule="evenodd"/><path d="m125.88 229.18c3.51-.31 7 1.82 7 6.28 0 8.53-12.75 8-12.93.18-.08-3.92 2.32-6.13 5.93-6.46z" fill-rule="evenodd"/><path d="m433.82 230.44c6.68-1.73 3.46 9.45-1.26 5.21a3 3 0 0 1 1.26-5.21z" fill-rule="evenodd"/><path d="m346.73 231.88a7.16 7.16 0 0 1 8.08 7.17c0 9.94-14.51 9.09-14.73.18-.08-4.23 2.72-6.93 6.65-7.35z" fill-rule="evenodd"/><path d="m74.17 232.24c6.49-1.46 5.57 9.28-.54 7.18-2.52-.88-3.78-6.22.54-7.18z" fill-rule="evenodd"/><path d="m140.78 233.67a7 7 0 0 1 6.11 11.85 7.47 7.47 0 0 1 -10.06 0 7.06 7.06 0 0 1 3.95-11.85z" fill-rule="evenodd"/><path d="m397.91 233.67a5.21 5.21 0 0 1 5.75 7.18c-2.31 5.48-12.69 2.8-9.7-4.31a4.84 4.84 0 0 1 3.95-2.87z" fill-rule="evenodd"/><path d="m89.25 236.36c8.23-1.91 7.22 11.54-.54 9-3.22-1.08-4.66-7.79.54-9z" fill-rule="evenodd"/><path d="m449.44 236.54c1.78-.61 2.52.34 2.69 1.26.57 2.94-3.5 3.41-3.95 1.08-.3-1.54.25-1.99 1.26-2.34z" fill-rule="evenodd"/><path d="m362 237.44c8.07-1 10.23 10.09 3.78 12.92-4.75 2.09-12-2.6-9.15-9.15a7 7 0 0 1 5.37-3.77z" fill-rule="evenodd"/><path d="m156.23 238.15a8.18 8.18 0 0 1 6.1 1.62c4.95 4.29 1.7 12.8-4.31 13.29a7.68 7.68 0 0 1 -8.26-7 6.92 6.92 0 0 1 2.51-6.29 7 7 0 0 1 3.96-1.62z" fill-rule="evenodd"/><path d="m413.89 239.41c5.7-.52 6.35 8.6.54 8.8-5.59.18-6.28-8.28-.54-8.8z" fill-rule="evenodd"/><path d="m40.23 240.49a1.41 1.41 0 0 1 -2.15 1.79 1.41 1.41 0 0 1 2.15-1.79z" fill-rule="evenodd"/><path d="m105.41 240.49a5.46 5.46 0 0 1 6.1 5.39c0 7.53-11 6.72-11.13.18-.06-3.16 1.41-5.19 5.03-5.57z" fill-rule="evenodd"/><path d="m466.32 242.83v1.08c-.23.25-.78.17-1.26.18a.89.89 0 0 1 1.26-1.26z" fill-rule="evenodd"/><path d="m377.08 243.19c4.58-.85 9.05 3.35 7 8.43-2.65 6.58-14.89 3.41-11.49-5a5.92 5.92 0 0 1 4.49-3.43z" fill-rule="evenodd"/><path d="m54.06 244.08c2-.44 3 .67 3.05 2.16.18 3.34-5 3.75-5 .18a2.11 2.11 0 0 1 1.95-2.34z" fill-rule="evenodd"/><path d="m121 244.8a6.17 6.17 0 0 1 6.65 6.1c0 8.43-12.41 7.65-12.57.18-.08-3.42 1.92-5.99 5.92-6.28z" fill-rule="evenodd"/><path d="m428.61 245.52c5.1-1.38 5.88 5.79 2.16 6.63-2.12.48-5.39-.57-4.49-4.48a3.41 3.41 0 0 1 2.33-2.15z" fill-rule="evenodd"/><path d="m341.71 247.13a7.41 7.41 0 0 1 8.29 7.37c0 10.28-15.08 9.11-15.08 0-.04-4.13 2.38-6.89 6.79-7.37z" fill-rule="evenodd"/><path d="m69.5 247.85c5-.8 5.35 6.82.72 7-4.03.15-5.22-6.29-.72-7z" fill-rule="evenodd"/><path d="m393.59 248.75a6.75 6.75 0 0 1 4.13 1.43c.47.47 1.94 3.25 1.44 5.39-.7 3-4.08 4.59-6.82 3.95-5.81-1.37-5.13-10.43 1.25-10.77z" fill-rule="evenodd"/><path d="m135.76 249.29a6.63 6.63 0 0 1 7.9 5.92 6.8 6.8 0 0 1 -7.36 7.54c-7-.45-8-9.83-3.05-12.75a6.8 6.8 0 0 1 2.51-.71z" fill-rule="evenodd"/><path d="m444.95 251.44c1.95-.21 3.65 2.46 2 4.13-2.88 2.85-6.83-3.57-2-4.13z" fill-rule="evenodd"/><path d="m84.76 252a4.23 4.23 0 0 1 5.24 4.29c0 5.92-9 5.75-9 0a4.09 4.09 0 0 1 3.76-4.29z" fill-rule="evenodd"/><path d="m357 252.7a6.8 6.8 0 0 1 7.9 6.82 7 7 0 0 1 -7 7c-4.28 0-9.08-4.54-6.28-10.23a6.88 6.88 0 0 1 5.38-3.59z" fill-rule="evenodd"/><path d="m151.2 253.78a7.14 7.14 0 0 1 8.44 7.71 7.48 7.48 0 0 1 -6.65 6.82c-9.7.85-10.79-13.26-1.79-14.53z" fill-rule="evenodd"/><path d="m408.32 254.67c5.2-.95 7.72 6.18 3.23 8.62-6.01 3.26-10.43-7.29-3.23-8.62z" fill-rule="evenodd"/><path d="m35.21 256.65a1.34 1.34 0 0 1 -1.21 1.25 4.25 4.25 0 0 1 -.9-.9 1.1 1.1 0 0 1 2.11-.35z" fill-rule="evenodd"/><path d="m99.67 256.29c8.71-1.87 8.18 11.74 0 10.23-4.5-.83-5.67-9.02 0-10.23z" fill-rule="evenodd"/><path d="m461.47 257.9a2.45 2.45 0 0 1 0 1.79 2.39 2.39 0 0 1 -1.8 0 1.29 1.29 0 0 1 1.8-1.79z" fill-rule="evenodd"/><path d="m166.1 258.44c5.76-1.05 11 3.52 9 10-2.86 9-18.07 5.56-14.72-5a7.31 7.31 0 0 1 5.72-5z" fill-rule="evenodd"/><path d="m371.87 258.44a6.35 6.35 0 0 1 7.36 8.62c-2.08 5.23-10 4.6-11.85 0a7 7 0 0 1 0-5 6.71 6.71 0 0 1 4.49-3.62z" fill-rule="evenodd"/><path d="m49.39 259.88c3.13-.38 2.61 4.29 0 4.13-2.14-.14-2.83-3.78 0-4.13z" fill-rule="evenodd"/><path d="m115.29 260.59c7.24-1.22 9.44 8.95 3.42 11.31-7.9 3.1-11.83-9.9-3.42-11.31z" fill-rule="evenodd"/><path d="m423.94 260.59c6.68-1.19 4.87 9.8-1.08 7-2.22-1.04-2.97-6.27 1.08-7z" fill-rule="evenodd"/><path d="m336 262.57c5.51-.94 11.32 4.16 8.44 10.59-2.22 5-11.22 6.21-14 0a7.3 7.3 0 0 1 0-6.47 8.14 8.14 0 0 1 5.56-4.12z" fill-rule="evenodd"/><path d="m64.48 263.83c4.65-.75 4.89 6.12.71 6.28-3.52.14-4.84-5.61-.71-6.28z" fill-rule="evenodd"/><path d="m387.31 264.19c3.95-.91 8 2 7 6.82-1.25 6-10.14 4.79-11.14 0-.68-3.34 1.02-6.1 4.14-6.82z" fill-rule="evenodd"/><path d="m131.27 264.91c3.67-.33 7.08 1.9 7.18 6.28.21 9.18-13.11 8.11-13.29.36-.08-3.74 2.21-6.3 6.11-6.64z" fill-rule="evenodd"/><path d="m439.2 266.7c2.22-.65 3.3.44 3.59 1.62 1 4.26-6.1 5.36-5.39.36a2.35 2.35 0 0 1 1.8-1.98z" fill-rule="evenodd"/><path d="m79.74 268c3.13-.54 4.76 1.34 4.85 3.77.19 5.49-8.07 5.68-8.26.36-.09-2.59 1.22-3.8 3.41-4.13z" fill-rule="evenodd"/><path d="m351.4 268.14a7.12 7.12 0 0 1 6.46 1.8c1 1 2.69 4.85 1.62 7.71-2.24 6-11.31 5.28-13.29 0-.28-.73-1.35-1.8 0-5.38a6.85 6.85 0 0 1 5.21-4.13z" fill-rule="evenodd"/><path d="m146.89 269.39a7.09 7.09 0 0 1 7.54 7c0 10.78-17.41 8.21-14-2.34a6.8 6.8 0 0 1 6.46-4.66z" fill-rule="evenodd"/><path d="m403.29 269.93c6.79-1.25 7.62 9 1.44 9.51-5.66.51-7.58-8.38-1.44-9.51z" fill-rule="evenodd"/><path d="m29.64 272.62c-2.13.95-.18-2.44 0 0z" fill-rule="evenodd"/><path d="m94.64 272.26c3.81-.89 7 2 5.92 6.1-1.46 5.46-11.27 4.35-9.33-2.87a4.44 4.44 0 0 1 3.41-3.23z" fill-rule="evenodd"/><path d="m454.82 273c.14-.41 1-.07 1.44-.18 2.15 1.37-.79 4.3-2.15 2.15-.11-.97.03-1.78.71-1.97z" fill-rule="evenodd"/><path d="m367.38 273.7c9-1.26 9.61 12.75.89 12.75a6.5 6.5 0 0 1 -6.46-6.29c-.08-3.57 1.91-5.94 5.57-6.46z" fill-rule="evenodd"/><path d="m161.61 274.06a8.17 8.17 0 0 1 6.1 1.62c4.95 4.29 1.69 12.8-4.31 13.29a7.68 7.68 0 0 1 -8.26-7 6.91 6.91 0 0 1 2.51-6.29 7.06 7.06 0 0 1 3.96-1.62z" fill-rule="evenodd"/><path d="m418.91 275.85a3.83 3.83 0 0 1 4.49 5.21c-1.37 4.07-9.52 3-7.54-2.87a4 4 0 0 1 3.05-2.34z" fill-rule="evenodd"/><path d="m43.82 276c.14-.4 1-.07 1.44-.18 2.15 1.37-.79 4.31-2.15 2.16-.11-.98.03-1.73.71-1.98z" fill-rule="evenodd"/><path d="m110.26 276.57c4.2-.73 8.2 3.07 6.29 7.72a5.76 5.76 0 0 1 -6.29 3.23c-6.41-.97-5.42-10 0-10.95z" fill-rule="evenodd"/><path d="m330.93 278c5.51-.94 11.32 4.16 8.44 10.59-2.22 5-11.22 6.22-14 0a7.28 7.28 0 0 1 0-6.46 8.1 8.1 0 0 1 5.56-4.13z" fill-rule="evenodd"/><path d="m180.83 278.91a8.33 8.33 0 0 1 3.95 3.05c.28.42 1.83 4.42.9 7.18-2.48 7.32-15.79 7-15.44-3.05a8 8 0 0 1 10.59-7.18z" fill-rule="evenodd"/><path d="m471.7 279.63c-2.13.95-.17-2.45 0 0z" fill-rule="evenodd"/><path d="m382.65 279.44a5.77 5.77 0 0 1 5.21 9.7 6.06 6.06 0 0 1 -8.26 0 5.77 5.77 0 0 1 3.05-9.7z" fill-rule="evenodd"/><path d="m59.27 279.81c2.24-.56 3.21.62 3.41 2 .57 3.88-5.82 4.8-5.39.18a2.33 2.33 0 0 1 1.98-2.18z" fill-rule="evenodd"/><path d="m126.42 280.88a6.17 6.17 0 0 1 6.64 6.1c0 8.43-12.41 7.65-12.57.18-.06-3.42 1.95-5.99 5.93-6.28z" fill-rule="evenodd"/><path d="m434.18 282c2-.56 3.42.31 3.77 1.79 1.06 4.47-6.43 5.46-5.75.36a2.54 2.54 0 0 1 1.98-2.15z" fill-rule="evenodd"/><path d="m346.38 283.57a7.12 7.12 0 0 1 6.46 1.79c1 1 2.69 4.86 1.62 7.72-2.24 6-11.3 5.27-13.29 0-.28-.74-1.35-1.81 0-5.39a6.84 6.84 0 0 1 5.21-4.12z" fill-rule="evenodd"/><path d="m74.53 283.93c4.76-1.07 6.19 6.2 1.79 7-2.32.42-5.6-1.27-4.31-5a3.42 3.42 0 0 1 2.52-2z" fill-rule="evenodd"/><path d="m399 285.19c5.31-.27 6.78 7.23 2.51 9.34-6.97 3.47-10.67-8.93-2.51-9.34z" fill-rule="evenodd"/><path d="m141.86 285.37a6.68 6.68 0 0 1 7.18 6.46c.21 9.43-13.65 8.59-13.65.18.01-3.92 2.61-6.38 6.47-6.64z" fill-rule="evenodd"/><path d="m90.15 288.06a4.23 4.23 0 0 1 5.21 4.31c0 5.92-9 5.75-9 0a4.09 4.09 0 0 1 3.79-4.31z" fill-rule="evenodd"/><path d="m450.34 288.06a1.75 1.75 0 0 1 1.62.54c1.7 2.35-3.52 4.43-3.23.9a1.72 1.72 0 0 1 1.61-1.44z" fill-rule="evenodd"/><path d="m362.36 289.14c9-1.26 9.61 12.75.9 12.75a6.5 6.5 0 0 1 -6.46-6.29c-.1-3.6 1.89-5.95 5.56-6.46z" fill-rule="evenodd"/><path d="m156.59 290a7 7 0 0 1 8.26 7.54c-.57 9.31-15.1 8.43-14.37-1.07a6.67 6.67 0 0 1 6.11-6.47z" fill-rule="evenodd"/><path d="m414.25 291.11a4 4 0 0 1 4.13 5.75c-1.92 4.26-10 1.9-7.54-3.59a4.1 4.1 0 0 1 3.41-2.16z" fill-rule="evenodd"/><path d="m40.59 292.55a1.35 1.35 0 0 1 -1.25 1.26 4.24 4.24 0 0 1 -.9-.9 1.1 1.1 0 0 1 2.15-.36z" fill-rule="evenodd"/><path d="m105.59 292.37a4.8 4.8 0 0 1 3.78.72c3.34 2.26 2.43 9.36-2.87 9.51a5.07 5.07 0 0 1 -5.39-5c-.11-3.17 1.71-4.84 4.48-5.23z" fill-rule="evenodd"/><path d="m326.44 293.45a7.38 7.38 0 0 1 8.44 7.36c0 10.18-15.08 9.37-15.08 0a7.08 7.08 0 0 1 6.64-7.36z" fill-rule="evenodd"/><path d="m466.68 295.07c-2.13.94-.18-2.45 0 0z" fill-rule="evenodd"/><path d="m172 294.7a8.21 8.21 0 0 1 6.11 1.61c4.94 4.29 1.7 12.81-4.31 13.29a7.67 7.67 0 0 1 -8.26-7 6.92 6.92 0 0 1 2.51-6.29 7.11 7.11 0 0 1 3.95-1.61z" fill-rule="evenodd"/><path d="m377.62 294.88a5.76 5.76 0 0 1 5.2 9.7 6.05 6.05 0 0 1 -8.26 0 5.77 5.77 0 0 1 3.06-9.7z" fill-rule="evenodd"/><path d="m54.78 295.78c3.13-.38 2.61 4.3 0 4.13-2.14-.14-2.84-3.78 0-4.13z" fill-rule="evenodd"/><path d="m120.67 296.86c8.67-1.46 8.75 12.11.36 11.31-6.6-.64-6.53-10.27-.36-11.31z" fill-rule="evenodd"/><path d="m429.33 297.22c5.08-1.19 4.5 6.32.36 5.92-2.45-.23-4.24-5.01-.36-5.92z" fill-rule="evenodd"/><path d="m341.89 299a6.8 6.8 0 0 1 7.9 6.82 7 7 0 0 1 -7 7c-4.28 0-9.08-4.54-6.28-10.23a6.86 6.86 0 0 1 5.38-3.59z" fill-rule="evenodd"/><path d="m186.93 299.55c5.76-1.06 11 3.52 9 10-2.86 9-18.07 5.56-14.72-5a7.31 7.31 0 0 1 5.72-5z" fill-rule="evenodd"/><path d="m69.5 299.92c6.68-1.74 3.46 9.44-1.26 5.2a3 3 0 0 1 1.26-5.2z" fill-rule="evenodd"/><path d="m394 300.63c5.31-.27 6.77 7.23 2.51 9.34-7 3.43-10.7-8.97-2.51-9.34z" fill-rule="evenodd"/><path d="m135.94 301.35c7.76-1.41 10 9 4.13 11.85-5.26 2.53-11.72-3.26-8.44-9a6.5 6.5 0 0 1 4.31-2.85z" fill-rule="evenodd"/><path d="m444.95 303.5c1.61-.5 2.2.35 2.34 1.25.71 4.86-6.77.13-2.34-1.25z" fill-rule="evenodd"/><path d="m305.44 303.68c5.29-.9 9.8 2.87 9.16 8.61-1.09 9.69-16.66 8.41-15.44-2.15a7 7 0 0 1 6.28-6.46z" fill-rule="evenodd"/><path d="m85.12 304a3.82 3.82 0 0 1 4.49 5.2c-1.38 4.08-9.53 3-7.55-2.87a4 4 0 0 1 3.06-2.33z" fill-rule="evenodd"/><path d="m356.79 304.76a7.08 7.08 0 0 1 5.92 1.44c.85.81 2.36 4.32 1.62 6.82-2 6.82-15 4.89-12.21-4.31a5.9 5.9 0 0 1 4.67-3.95z" fill-rule="evenodd"/><path d="m152.28 305.83a6.67 6.67 0 0 1 7.18 6.46c.21 9.43-13.64 8.59-13.64.18 0-3.91 2.57-6.38 6.46-6.64z" fill-rule="evenodd"/><path d="m409.22 306.55a4 4 0 0 1 4.13 5.74c-1.92 4.27-10 1.9-7.54-3.59a4.13 4.13 0 0 1 3.41-2.15z" fill-rule="evenodd"/><path d="m35 308.53c-2.13 1-.17-2.44 0 0z" fill-rule="evenodd"/><path d="m100.56 308.35c6.8-1 6.86 9.16.72 9.16-5.6 0-6.28-8.34-.72-9.16z" fill-rule="evenodd"/><path d="m321.42 309.06c10-1.22 11.05 14.35 1.08 14.55a7.42 7.42 0 0 1 -7.54-7.18c-.08-4.12 2.26-6.84 6.46-7.37z" fill-rule="evenodd"/><path d="m461.65 310.5c-2.13 1-.18-2.44 0 0z" fill-rule="evenodd"/><path d="m372.23 310.5c3.94-.91 8 2 7 6.83-1.25 6-10.15 4.78-11.14 0-.68-3.33 1.01-6.11 4.14-6.83z" fill-rule="evenodd"/><path d="m166.64 310.68c5.58-1 10.15 3.86 8.08 9.52-1.78 4.84-11 6.27-13.29 0a7.62 7.62 0 0 1 0-5.39 7 7 0 0 1 5.21-4.13z" fill-rule="evenodd"/><path d="m49.57 311.94c3-.9 1.39 4.35-.72 2.34a1.44 1.44 0 0 1 .72-2.34z" fill-rule="evenodd"/><path d="m424.3 312.66c5.08-1.19 4.5 6.31.36 5.92-2.44-.23-4.24-5.02-.36-5.92z" fill-rule="evenodd"/><path d="m115.47 312.84c8.72-1.87 8.18 11.74 0 10.23-4.47-.83-5.67-9.07 0-10.23z" fill-rule="evenodd"/><path d="m285.51 313.92a7.69 7.69 0 0 1 8.8 7.54 7.91 7.91 0 0 1 -11.67 7.18c-6.55-3.53-4.85-13.84 2.87-14.72z" fill-rule="evenodd"/><path d="m336.86 314.63c8.07-1 10.23 10.1 3.77 12.92-4.75 2.08-12-2.6-9.16-9.15a7 7 0 0 1 5.39-3.77z" fill-rule="evenodd"/><path d="m182.44 315.35a7.14 7.14 0 0 1 8.44 7.71 7.48 7.48 0 0 1 -6.64 6.82c-9.71.85-10.79-13.26-1.8-14.53z" fill-rule="evenodd"/><path d="m65.19 315.89c2-.21 3.65 2.46 2 4.12-2.88 2.86-6.84-3.6-2-4.12z" fill-rule="evenodd"/><path d="m388 316.25c7.55-1.51 7.77 10.42.36 9.51-5.36-.66-5.36-8.51-.36-9.51z" fill-rule="evenodd"/><path d="m131.09 317.33c8.67-1.46 8.75 12.11.36 11.3-6.61-.63-6.54-10.27-.36-11.3z" fill-rule="evenodd"/><path d="m439.93 318.94c1.61-.5 2.2.35 2.33 1.25.74 4.86-6.77.13-2.33-1.25z" fill-rule="evenodd"/><path d="m300.95 319.3a7.38 7.38 0 0 1 8.44 7.36c0 10.17-15.08 9.36-15.08 0a7.08 7.08 0 0 1 6.64-7.36z" fill-rule="evenodd"/><path d="m79.74 320.2c4.14-1.95 6.23 5.25 2.16 6.29s-5.99-4.87-2.16-6.29z" fill-rule="evenodd"/><path d="m197.88 320.2a8.15 8.15 0 0 1 6.1 1.62c4.95 4.29 1.69 12.8-4.31 13.28a7.67 7.67 0 0 1 -8.26-7 6.93 6.93 0 0 1 2.52-6.28 7 7 0 0 1 3.95-1.62z" fill-rule="evenodd"/><path d="m351.76 320.37a8.68 8.68 0 0 1 4 .18c3.3 1.32 6.17 9 0 11.49-4.75 1.88-10.64-2.27-8.26-8.26a6 6 0 0 1 4.26-3.41z" fill-rule="evenodd"/><path d="m147.25 321.81a6.17 6.17 0 0 1 6.64 6.1c0 8.43-12.4 7.65-12.57.18-.07-3.42 1.94-5.99 5.93-6.28z" fill-rule="evenodd"/><path d="m403.65 322.17c2.82-.56 5.17 1.09 4.85 4.31-.44 4.36-8.5 4.82-7.9-1.08.18-1.79.86-2.79 3.05-3.23z" fill-rule="evenodd"/><path d="m95.18 324.51c3.66-.87 6.06 2 4.85 5.38-1.43 4.06-9.68 2.81-7.54-3.23a3.81 3.81 0 0 1 2.69-2.15z" fill-rule="evenodd"/><path d="m264.32 324.51c5.77-1.06 11 3.52 9 10.05-2.86 9-18.07 5.56-14.72-5a7.32 7.32 0 0 1 5.72-5.05z" fill-rule="evenodd"/><path d="m315.85 324.86c5.58-1 10.16 3.86 8.08 9.51-1.77 4.84-11 6.27-13.29 0a7.6 7.6 0 0 1 0-5.38 7 7 0 0 1 5.21-4.13z" fill-rule="evenodd"/><path d="m213 325.22c9.19-1.72 12.2 10.52 5.21 14.18-6 3.12-14.19-3.19-10.42-10.41a8.28 8.28 0 0 1 5.21-3.77z" fill-rule="evenodd"/><path d="m456.62 325.94c-2.13 1-.17-2.44 0 0z" fill-rule="evenodd"/><path d="m368.46 325.94a6.78 6.78 0 0 1 4.13 1.44c.47.47 1.94 3.25 1.44 5.39-.7 3-4.08 4.59-6.82 3.95-5.81-1.37-5.14-10.44 1.25-10.78z" fill-rule="evenodd"/><path d="m162.51 326.48c3.67-.34 7.08 1.9 7.18 6.28.21 9.17-13.11 8.11-13.29.35-.08-3.72 2.21-6.28 6.11-6.63z" fill-rule="evenodd"/><path d="m45.44 329c-2.12.95-.17-2.44 0 0z" fill-rule="evenodd"/><path d="m419.1 328.27c2-.55 3.42.32 3.77 1.79 1.06 4.48-6.44 5.47-5.75.37a2.55 2.55 0 0 1 1.98-2.16z" fill-rule="evenodd"/><path d="m111 328.81c6.8-1 6.86 9.16.72 9.16-5.63.03-6.28-8.34-.72-9.16z" fill-rule="evenodd"/><path d="m280.3 329.71a8.21 8.21 0 0 1 6.11 1.61c5 4.3 1.65 12.81-4.31 13.29a7.65 7.65 0 0 1 -8.26-7 7.14 7.14 0 0 1 6.46-7.9z" fill-rule="evenodd"/><path d="m228.41 330.25c9.18-1.72 12.2 10.52 5.21 14.18-6 3.11-14.19-3.19-10.41-10.42a8.23 8.23 0 0 1 5.2-3.76z" fill-rule="evenodd"/><path d="m331.3 330.44c4.54-.89 8.85 2.26 7.9 7.71-.28 1.61-2.5 4.58-5 5-8.84 1.56-10.96-11.15-2.9-12.71z" fill-rule="evenodd"/><path d="m177.42 331.32a6.64 6.64 0 0 1 7.9 5.92 6.8 6.8 0 0 1 -7.37 7.54c-7-.45-8-9.82-3.05-12.75a6.92 6.92 0 0 1 2.52-.71z" fill-rule="evenodd"/><path d="m383 331.86c7.46-1.59 7.38 10.51 0 9.16-4.78-.88-4.61-8.18 0-9.16z" fill-rule="evenodd"/><path d="m59.63 332.4c.13-.41 1-.07 1.44-.17 2.16 1.36-.79 4.3-2.16 2.15-.09-1 .03-1.77.72-1.98z" fill-rule="evenodd"/><path d="m126.42 333.3a4.86 4.86 0 0 1 3.77.71c3.35 2.27 2.43 9.37-2.87 9.51a5.06 5.06 0 0 1 -5.39-5c-.09-3.16 1.73-4.83 4.49-5.22z" fill-rule="evenodd"/><path d="m435.25 334.38a1.73 1.73 0 0 1 1.62.54c1.7 2.35-3.52 4.42-3.23.89a1.71 1.71 0 0 1 1.61-1.43z" fill-rule="evenodd"/><path d="m295.74 335.1a7 7 0 0 1 8.26 7.54c-.57 9.31-15.1 8.43-14.37-1.08a6.68 6.68 0 0 1 6.11-6.46z" fill-rule="evenodd"/><path d="m244.39 335.27a8.19 8.19 0 0 1 6.1 1.62c4.94 4.29 1.7 12.8-4.31 13.29a7.67 7.67 0 0 1 -8.26-7 6.9 6.9 0 0 1 2.52-6.29 7 7 0 0 1 3.95-1.62z" fill-rule="evenodd"/><path d="m347.27 336a5.76 5.76 0 0 1 6.82 5.93c-.19 7.84-11.51 7-11.85.18-.17-3.53 1.37-5.56 5.03-6.11z" fill-rule="evenodd"/><path d="m192.86 336.17a7 7 0 0 1 6.14 11.83 7.47 7.47 0 0 1 -10.05 0 7.05 7.05 0 0 1 3.91-11.83z" fill-rule="evenodd"/><path d="m75.24 336.36c2-.44 3 .67 3.05 2.15.18 3.34-5 3.75-5 .18a2.1 2.1 0 0 1 1.95-2.33z" fill-rule="evenodd"/><path d="m398.81 337.79c6.68-1.2 4.87 9.8-1.08 7-2.23-1.05-2.98-6.28 1.08-7z" fill-rule="evenodd"/><path d="m141.51 338c4.2-.74 8.2 3.06 6.28 7.72a5.74 5.74 0 0 1 -6.28 3.23c-6.42-1-5.42-10.03 0-10.95z" fill-rule="evenodd"/><path d="m259.83 340.49a7.14 7.14 0 0 1 8.44 7.71 7.5 7.5 0 0 1 -6.65 6.83c-9.71.84-10.78-13.27-1.79-14.54z" fill-rule="evenodd"/><path d="m90.15 340.66c4.14-1.94 6.23 5.25 2.15 6.29s-5.99-4.87-2.15-6.29z" fill-rule="evenodd"/><path d="m310.83 340.66a7.82 7.82 0 0 1 4.13.18c4.92 1.93 5.57 10.39 0 12.57a7.25 7.25 0 0 1 -9-3.59 7.81 7.81 0 0 1 0-5.39 6.17 6.17 0 0 1 4.87-3.77z" fill-rule="evenodd"/><path d="m451.59 341.38c-2.13 1-.18-2.44 0 0z" fill-rule="evenodd"/><path d="m208.12 341.2c5.58-1 10.15 3.86 8.08 9.52-1.78 4.84-11 6.26-13.29 0a7.6 7.6 0 0 1 0-5.39 7 7 0 0 1 5.21-4.13z" fill-rule="evenodd"/><path d="m362.54 341.73a6.07 6.07 0 0 1 4.67 1.08c5 4.57-2.39 12.7-7.36 7.72a5.29 5.29 0 0 1 2.69-8.8z" fill-rule="evenodd"/><path d="m156.77 342.64c9.73-1.89 9 14.39-.72 11.49-4.97-1.48-5.51-10.28.72-11.49z" fill-rule="evenodd"/><path d="m414.07 343.9c2.22-.66 3.3.43 3.59 1.61 1 4.26-6.1 5.36-5.39.36a2.33 2.33 0 0 1 1.8-1.97z" fill-rule="evenodd"/><path d="m106 345a3.82 3.82 0 0 1 4.49 5.21c-1.37 4.07-9.52 3-7.54-2.88a4 4 0 0 1 3.05-2.33z" fill-rule="evenodd"/><path d="m274.91 345.87c5.58-1 10.15 3.85 8.08 9.51-1.78 4.84-11 6.28-13.29 0a7.6 7.6 0 0 1 0-5.38 7 7 0 0 1 5.21-4.13z" fill-rule="evenodd"/><path d="m223.56 346.23c5.58-1 10.15 3.85 8.08 9.51-1.78 4.84-11 6.27-13.29 0a7.62 7.62 0 0 1 0-5.38 7 7 0 0 1 5.21-4.13z" fill-rule="evenodd"/><path d="m326.27 346.23a8.52 8.52 0 0 1 3.95.17c3.31 1.31 6.18 9 0 11.49-4.74 1.88-10.63-2.27-8.26-8.25a5.93 5.93 0 0 1 4.31-3.41z" fill-rule="evenodd"/><path d="m173.1 347.3a6.17 6.17 0 0 1 6.65 6.11c0 8.43-12.4 7.64-12.57.18-.07-3.43 1.94-6 5.92-6.29z" fill-rule="evenodd"/><path d="m378.7 347.49c5.7-.52 6.35 8.61.54 8.8-5.59.17-6.24-8.29-.54-8.8z" fill-rule="evenodd"/><path d="m56 348.56v1.08c-.23.24-.78.17-1.25.18a.89.89 0 0 1 1.25-1.26z" fill-rule="evenodd"/><path d="m121.39 349.46a4.22 4.22 0 0 1 5.2 4.31c0 5.91-9 5.75-9 0a4.08 4.08 0 0 1 3.8-4.31z" fill-rule="evenodd"/><path d="m429.69 350.18c.13-.41 1-.07 1.44-.18 2.15 1.36-.79 4.3-2.16 2.15-.1-1 .03-1.76.72-1.97z" fill-rule="evenodd"/><path d="m239.36 351.25a6.9 6.9 0 0 1 8.08 7.18c-.43 9.36-13.52 7.8-14 .18a6.81 6.81 0 0 1 5.92-7.36z" fill-rule="evenodd"/><path d="m290.36 351.25a7.81 7.81 0 0 1 4.13.19c4.92 1.92 5.56 10.38 0 12.56a7.25 7.25 0 0 1 -9-3.59 7.74 7.74 0 0 1 0-5.38 6.17 6.17 0 0 1 4.87-3.78z" fill-rule="evenodd"/><path d="m342.06 351.79c3.67-.68 7.9 2.37 6.46 7.18-1.59 5.33-9.45 4.44-10.77 0a5.58 5.58 0 0 1 4.31-7.18z" fill-rule="evenodd"/><path d="m188.37 352.15c3.51-.32 7 1.82 7 6.28 0 8.52-12.75 8-12.93.18-.08-3.92 2.31-6.14 5.93-6.46z" fill-rule="evenodd"/><path d="m70 352.87c.14-.41 1-.07 1.44-.18 2.15 1.37-.79 4.31-2.16 2.16-.05-1 .08-1.77.72-1.98z" fill-rule="evenodd"/><path d="m393.42 353.59c5.09-1.38 5.87 5.79 2.16 6.64-2.11.49-5.38-.57-4.49-4.49a3.39 3.39 0 0 1 2.33-2.15z" fill-rule="evenodd"/><path d="m136.3 354.13c3.81-.89 7 2 5.93 6.1-1.46 5.46-11.27 4.35-9.34-2.87a4.43 4.43 0 0 1 3.41-3.23z" fill-rule="evenodd"/><path d="m446.56 356.82c-2.12 1-.17-2.44 0 0z" fill-rule="evenodd"/><path d="m254.81 356.46a6.62 6.62 0 0 1 7.89 5.92 6.8 6.8 0 0 1 -7.36 7.54c-7-.45-8-9.83-3.05-12.75a6.93 6.93 0 0 1 2.52-.71z" fill-rule="evenodd"/><path d="m306.15 356.64c8.68-1.46 9.47 11.49 2 12.39-7.96.97-9.89-11.03-2-12.39z" fill-rule="evenodd"/><path d="m86 356.82c1.95-.2 3.64 2.47 2 4.14-2.86 2.84-6.81-3.62-2-4.14z" fill-rule="evenodd"/><path d="m203.45 357.17a6.48 6.48 0 0 1 7 9.16 6.81 6.81 0 0 1 -8.79 3.05 6.42 6.42 0 0 1 -3.06-8.8 6.09 6.09 0 0 1 4.85-3.41z" fill-rule="evenodd"/><path d="m357.51 357.54c7.55-1.51 7.77 10.42.36 9.51-5.4-.66-5.38-8.51-.36-9.51z" fill-rule="evenodd"/><path d="m151.74 358.79c8.72-1.87 8.17 11.74 0 10.24-4.5-.83-5.67-9.03 0-10.24z" fill-rule="evenodd"/><path d="m409.76 359.51c1.94-.21 3.64 2.46 2 4.12-2.88 2.86-6.84-3.63-2-4.12z" fill-rule="evenodd"/><path d="m100.75 361.31c6.68-1.74 3.46 9.44-1.26 5.2a3 3 0 0 1 1.26-5.2z" fill-rule="evenodd"/><path d="m269.89 361.84c4.55-.88 8.85 2.27 7.9 7.72-.28 1.61-2.5 4.59-5 5-8.79 1.58-10.96-11.16-2.9-12.72z" fill-rule="evenodd"/><path d="m218.89 362.21a6.48 6.48 0 0 1 7 9.15 6.81 6.81 0 0 1 -8.8 3.05 6.43 6.43 0 0 1 -3-8.8 6.06 6.06 0 0 1 4.8-3.4z" fill-rule="evenodd"/><path d="m321.6 362.21a5.76 5.76 0 0 1 5.21 9.69 6.05 6.05 0 0 1 -8.26 0 5.77 5.77 0 0 1 3.05-9.69z" fill-rule="evenodd"/><path d="m373.66 363.28a4 4 0 0 1 4.14 5.72c-1.92 4.26-10 1.89-7.54-3.59a4.11 4.11 0 0 1 3.4-2.13z" fill-rule="evenodd"/><path d="m167.9 363.47a5.45 5.45 0 0 1 6.1 5.37c0 7.54-11 6.73-11.13.19-.07-3.16 1.41-5.19 5.03-5.56z" fill-rule="evenodd"/><path d="m116.19 365.8c4.76-1.07 6.19 6.2 1.79 7-2.32.42-5.6-1.27-4.31-5a3.41 3.41 0 0 1 2.52-2z" fill-rule="evenodd"/><path d="m426.27 366a2.35 2.35 0 0 1 0 1.79 2.43 2.43 0 0 1 -1.8 0 1.28 1.28 0 0 1 1.8-1.79z" fill-rule="evenodd"/><path d="m234.87 367.23c3.5-.32 7 1.81 7 6.28 0 8.52-12.75 8-12.93.17-.08-3.92 2.32-6.13 5.93-6.45z" fill-rule="evenodd"/><path d="m285.32 367.23a8.63 8.63 0 0 1 4 .17c3.31 1.32 6.18 9 0 11.49-4.75 1.89-10.64-2.27-8.26-8.26a5.94 5.94 0 0 1 4.26-3.4z" fill-rule="evenodd"/><path d="m337.75 367.77a5 5 0 0 1 5.57 5c0 7.47-12.29 6.08-10.24-1.44.57-2.03 2.08-3.33 4.67-3.56z" fill-rule="evenodd"/><path d="m183.52 368.3c7.45-.72 8.31 11.15.72 11.31-6.99.16-8.01-10.61-.72-11.31z" fill-rule="evenodd"/><path d="m66.27 369.93c-2.13.94-.18-2.45 0 0z" fill-rule="evenodd"/><path d="m389.29 369.21c5.34-.47 3.45 7.43-.9 6.1-2.57-.79-3.05-5.76.9-6.1z" fill-rule="evenodd"/><path d="m131.81 370.28c3.13-.54 4.76 1.35 4.85 3.77.19 5.5-8.08 5.69-8.26.36-.09-2.54 1.22-3.75 3.41-4.13z" fill-rule="evenodd"/><path d="m441.54 372.26c-2.13 1-.17-2.44 0 0z" fill-rule="evenodd"/><path d="m250.49 372.43a6.18 6.18 0 0 1 6.64 6.11c0 8.43-12.4 7.64-12.57.17-.07-3.41 1.95-5.99 5.93-6.28z" fill-rule="evenodd"/><path d="m301.13 372.62a5.76 5.76 0 0 1 5.21 9.69 6 6 0 0 1 -8.26 0c-3.49-3.48-1.08-8.95 3.05-9.69z" fill-rule="evenodd"/><path d="m80.82 373.34c3-.9 1.39 4.35-.72 2.33a1.43 1.43 0 0 1 .72-2.33z" fill-rule="evenodd"/><path d="m198.42 373.34c8.67-1.46 8.74 12.11.36 11.31-6.61-.65-6.53-10.28-.36-11.31z" fill-rule="evenodd"/><path d="m353.2 373.51c5.7-.52 6.35 8.61.54 8.79-5.58.19-6.28-8.3-.54-8.79z" fill-rule="evenodd"/><path d="m147.25 374.95a4.23 4.23 0 0 1 5.21 4.31c0 5.92-9 5.75-9 0a4.09 4.09 0 0 1 3.79-4.31z" fill-rule="evenodd"/><path d="m404.73 375.31c3.13-.38 2.61 4.29 0 4.12-2.14-.13-2.83-3.77 0-4.12z" fill-rule="evenodd"/><path d="m96.44 377.64c3.13-.38 2.61 4.3 0 4.13-2.15-.14-2.84-3.77 0-4.13z" fill-rule="evenodd"/><path d="m265.22 377.82c7.24-1.22 9.44 8.95 3.41 11.31-7.89 3.09-11.82-9.89-3.41-11.31z" fill-rule="evenodd"/><path d="m316.57 378.17a6.08 6.08 0 0 1 4.67 1.09c5 4.56-2.39 12.7-7.36 7.71a5.29 5.29 0 0 1 2.69-8.8z" fill-rule="evenodd"/><path d="m213.87 378.36c8.67-1.46 8.74 12.11.36 11.3-6.61-.66-6.54-10.26-.36-11.3z" fill-rule="evenodd"/><path d="m368.28 379.43c2.33-.42 4.41.71 4.31 3.59-.16 4.6-7.58 4.77-7.18-.54a3.1 3.1 0 0 1 2.87-3.05z" fill-rule="evenodd"/><path d="m162.15 379.8c8.23-1.91 7.22 11.54-.54 9-3.22-1.09-4.61-7.8.54-9z" fill-rule="evenodd"/><path d="m421.07 381.77v1.08c-.23.25-.78.18-1.26.18a.89.89 0 0 1 1.26-1.26z" fill-rule="evenodd"/><path d="m111.34 382.13c2.24-.55 3.21.63 3.41 2 .57 3.88-5.82 4.81-5.38.18a2.33 2.33 0 0 1 1.97-2.18z" fill-rule="evenodd"/><path d="m280.66 383.21c4.2-.73 8.2 3.06 6.28 7.72a5.75 5.75 0 0 1 -6.28 3.23c-6.41-.97-5.42-10 0-10.95z" fill-rule="evenodd"/><path d="m229.85 383.39c7.45-.73 8.31 11.15.72 11.31-7 .15-8.01-10.6-.72-11.31z" fill-rule="evenodd"/><path d="m332.73 383.75a4.71 4.71 0 0 1 3.59 1.08c4.27 3.95-1.89 11.06-6.46 6.82a4.62 4.62 0 0 1 2.87-7.9z" fill-rule="evenodd"/><path d="m177.77 384.65c3.81-.88 7 2 5.92 6.1-1.46 5.46-11.27 4.35-9.34-2.87a4.44 4.44 0 0 1 3.42-3.23z" fill-rule="evenodd"/><path d="m384.08 385.36c3.92-.6 3.75 5 .54 5.21-2.84.14-4.13-4.66-.54-5.21z" fill-rule="evenodd"/><path d="m127 386.62c4.66-.75 4.9 6.12.72 6.28-3.57.1-4.88-5.61-.72-6.28z" fill-rule="evenodd"/><path d="m245.29 388.6a5.45 5.45 0 0 1 6.11 5.38c0 7.54-11 6.72-11.14.18-.07-3.16 1.41-5.16 5.03-5.56z" fill-rule="evenodd"/><path d="m296.82 388.6a5 5 0 0 1 5.56 5c0 7.47-12.29 6.08-10.23-1.43a4.76 4.76 0 0 1 4.67-3.57z" fill-rule="evenodd"/><path d="m193.93 389.49a4.9 4.9 0 0 1 5.57 4.85c0 6.85-9.89 6-10.05.17-.09-2.99 1.7-4.71 4.48-5.02z" fill-rule="evenodd"/><path d="m348 389.49c5.68-.82 5.57 7.56.72 7.72-4.61.15-5.66-7.01-.72-7.72z" fill-rule="evenodd"/><path d="m76.69 390.39c-2.13.94-.18-2.45 0 0z" fill-rule="evenodd"/><path d="m142.4 391.29c5-.8 5.34 6.81.72 7-4.03.16-5.21-6.29-.72-7z" fill-rule="evenodd"/><path d="m399.16 391.64c.13-.4 1-.07 1.44-.18 2.15 1.37-.79 4.31-2.15 2.16-.1-1 .03-1.76.71-1.98z" fill-rule="evenodd"/><path d="m260.19 394a6 6 0 0 1 4.67 1.08c5 4.57-2.39 12.7-7.37 7.72a5.29 5.29 0 0 1 2.7-8.8z" fill-rule="evenodd"/><path d="m92.67 394.87a1.36 1.36 0 0 1 -1.25 1.26 4.31 4.31 0 0 1 -.9-.9 1.1 1.1 0 0 1 2.15-.36z" fill-rule="evenodd"/><path d="m312.26 394.16a4.7 4.7 0 0 1 3.59 1.08c4.26 4-1.89 11.07-6.46 6.82a4.62 4.62 0 0 1 2.87-7.9z" fill-rule="evenodd"/><path d="m209.37 394.52a4.9 4.9 0 0 1 5.57 4.84c0 6.86-9.89 6-10.06.19-.08-3 1.71-4.73 4.49-5.03z" fill-rule="evenodd"/><path d="m363.25 395.41c5.08-1.18 4.51 6.32.36 5.93-2.45-.23-4.23-5.02-.36-5.93z" fill-rule="evenodd"/><path d="m157.31 396.13c6.9-1.68 6.08 9.61-.54 7.18-2.31-.84-3.61-6.17.54-7.18z" fill-rule="evenodd"/><path d="m415.86 398.29c-2.13.95-.17-2.44 0 0z" fill-rule="evenodd"/><path d="m106.31 398.82c.14-.4 1-.07 1.44-.18 2.15 1.37-.8 4.31-2.16 2.15-.09-.98.03-1.79.72-1.97z" fill-rule="evenodd"/><path d="m275.63 399.36c7.55-1.5 7.77 10.42.36 9.51-5.39-.65-5.38-8.5-.36-9.51z" fill-rule="evenodd"/><path d="m224.1 399.72c3.81-.88 7 2 5.92 6.11-1.46 5.46-11.27 4.34-9.34-2.88a4.45 4.45 0 0 1 3.42-3.23z" fill-rule="evenodd"/><path d="m327.17 399.91c2.82-.57 5.17 1.09 4.85 4.3-.44 4.37-8.5 4.83-7.9-1.08.17-1.79.88-2.79 3.05-3.22z" fill-rule="evenodd"/><path d="m172.93 401c3.66-.88 6.05 2 4.85 5.38-1.43 4.05-9.68 2.82-7.54-3.23a3.82 3.82 0 0 1 2.69-2.15z" fill-rule="evenodd"/><path d="m379.24 401.34c3.13-.39 2.61 4.29 0 4.12-2.15-.13-2.84-3.78 0-4.12z" fill-rule="evenodd"/><path d="m122.29 403.13c3.13-.38 2.61 4.3 0 4.13-2.14-.13-2.83-3.78 0-4.13z" fill-rule="evenodd"/><path d="m291.43 404.75a4.22 4.22 0 0 1 5.21 4.31c0 5.92-9 5.75-9 0a4.09 4.09 0 0 1 3.79-4.31z" fill-rule="evenodd"/><path d="m239.72 404.93c7.46-1.59 7.38 10.51 0 9.16-4.78-.89-4.62-8.18 0-9.16z" fill-rule="evenodd"/><path d="m342.61 405.65c4.76-1.2 5.38 5.66 1.62 6.28-1.77.3-4.36-.47-3.95-3.77a3 3 0 0 1 2.33-2.51z" fill-rule="evenodd"/><path d="m188.73 405.83c3.13-.54 4.76 1.34 4.85 3.77.19 5.49-8.07 5.68-8.26.36-.09-2.55 1.22-3.76 3.41-4.13z" fill-rule="evenodd"/><path d="m137.38 407.8c2-.44 3 .67 3.05 2.15.17 3.34-5 3.75-5 .18a2.11 2.11 0 0 1 1.95-2.33z" fill-rule="evenodd"/><path d="m395.58 407.8v1.07c-.24.25-.78.18-1.26.18a.89.89 0 0 1 1.26-1.25z" fill-rule="evenodd"/><path d="m87.1 410.85c-2.13 1-.18-2.44 0 0z" fill-rule="evenodd"/><path d="m255.52 410.13a4.23 4.23 0 0 1 5.21 4.31c0 5.92-9 5.75-9 0a4.09 4.09 0 0 1 3.79-4.31z" fill-rule="evenodd"/><path d="m307.05 410.32c5.67-.82 5.57 7.56.71 7.71-4.6.15-5.64-7.03-.71-7.71z" fill-rule="evenodd"/><path d="m204.17 410.85c3.13-.54 4.76 1.35 4.85 3.77.19 5.5-8.07 5.69-8.26.36-.09-2.54 1.24-3.75 3.41-4.13z" fill-rule="evenodd"/><path d="m358.22 411.58c2-.59 2.86.48 3.05 1.61.56 3.34-4.88 4.34-4.67.36a1.93 1.93 0 0 1 1.62-1.97z" fill-rule="evenodd"/><path d="m153 412.46a2.89 2.89 0 0 1 2.52.72c3.6 4-5 7.16-5 2-.04-1.46.48-2.44 2.48-2.72z" fill-rule="evenodd"/><path d="m410.84 413.72c-2.13 1-.18-2.44 0 0z" fill-rule="evenodd"/><path d="m102.54 415.88c-2.13.95-.18-2.44 0 0z" fill-rule="evenodd"/><path d="m271 415.52c3.13-.54 4.76 1.34 4.85 3.77.19 5.49-8.08 5.69-8.26.36-.13-2.55 1.19-3.75 3.41-4.13z" fill-rule="evenodd"/><path d="m219.25 416.06c3.66-.88 6.05 2 4.85 5.38-1.44 4.05-9.68 2.81-7.54-3.24a3.83 3.83 0 0 1 2.69-2.14z" fill-rule="evenodd"/><path d="m322.13 416.06c4.76-1.2 5.38 5.66 1.62 6.28-1.77.29-4.36-.47-4-3.77a3 3 0 0 1 2.38-2.51z" fill-rule="evenodd"/><path d="m168.62 417.32c3.92-.52 4.56 5.74.54 5.92-3.65.16-4.39-5.41-.54-5.92z" fill-rule="evenodd"/><path d="m375.46 417.86a1.41 1.41 0 0 1 -2.15 1.79 1.41 1.41 0 0 1 2.15-1.79z" fill-rule="evenodd"/><path d="m118.16 420v1.08c-.23.25-.78.18-1.26.18a.89.89 0 0 1 1.26-1.26z" fill-rule="evenodd"/><path d="m286.22 421.09c4.76-1.07 6.19 6.2 1.79 7-2.32.43-5.6-1.28-4.31-5a3.45 3.45 0 0 1 2.52-2z" fill-rule="evenodd"/><path d="m234.87 421.26c6.49-1.45 5.57 9.28-.54 7.18-2.52-.86-3.78-6.2.54-7.18z" fill-rule="evenodd"/><path d="m337.94 421.8c2-.43 3 .68 3.05 2.16.17 3.34-5 3.75-5 .18a2.11 2.11 0 0 1 1.95-2.34z" fill-rule="evenodd"/><path d="m183.52 422.34c6.67-1.73 3.45 9.45-1.26 5.21a3 3 0 0 1 1.26-5.21z" fill-rule="evenodd"/><path d="m390.37 424.13c-2.13 1-.18-2.44 0 0z" fill-rule="evenodd"/><path d="m134 424.68a1.41 1.41 0 0 1 -2.16 1.79 1.41 1.41 0 0 1 2.16-1.79z" fill-rule="evenodd"/><path d="m250.67 426.47c5-.8 5.34 6.82.72 7-4.03.16-5.21-6.29-.72-7z" fill-rule="evenodd"/><path d="m301.67 426.65c6.68-1.74 3.46 9.44-1.25 5.21a3 3 0 0 1 1.25-5.21z" fill-rule="evenodd"/><path d="m199 427.37c6.67-1.73 3.46 9.45-1.25 5.21a3 3 0 0 1 1.25-5.21z" fill-rule="evenodd"/><path d="m353.2 427.91c.13-.41 1-.07 1.44-.18 2.15 1.37-.79 4.3-2.16 2.15-.1-.99.03-1.76.72-1.97z" fill-rule="evenodd"/><path d="m147.61 429.34c.13-.4 1-.07 1.44-.17 2.15 1.36-.79 4.3-2.15 2.15-.11-1 .02-1.77.71-1.98z" fill-rule="evenodd"/><path d="m266.11 431.86c4.66-.76 4.9 6.11.72 6.28-3.53.14-4.83-5.61-.72-6.28z" fill-rule="evenodd"/><path d="m214.94 432.4c3.92-.52 4.56 5.74.54 5.92-3.64.16-4.39-5.42-.54-5.92z" fill-rule="evenodd"/><path d="m317.29 432.4c2-.59 2.86.47 3.05 1.61.56 3.35-4.88 4.34-4.67.36a2 2 0 0 1 1.62-1.97z" fill-rule="evenodd"/><path d="m369.9 434.55c-2.13.95-.17-2.45 0 0z" fill-rule="evenodd"/><path d="m163.41 434c1.61-.5 2.2.36 2.33 1.26.73 4.86-6.74.13-2.33-1.26z" fill-rule="evenodd"/><path d="m281.38 437.42c2.24-.56 3.21.62 3.41 2 .57 3.88-5.82 4.8-5.39.18a2.32 2.32 0 0 1 1.98-2.18z" fill-rule="evenodd"/><path d="m230.39 437.6a2.83 2.83 0 0 1 2.51.72c3.59 4-5 7.16-5 2-.03-1.47.53-2.44 2.49-2.72z" fill-rule="evenodd"/><path d="m332.73 438.32c.13-.41 1-.08 1.44-.18 2.15 1.37-.79 4.3-2.15 2.15-.11-1-.02-1.76.71-1.97z" fill-rule="evenodd"/><path d="m179.21 438.86c2.07-.29 2.8 2.81 1.08 3.59-2.41 1.08-4.29-3.15-1.08-3.59z" fill-rule="evenodd"/><path d="m128.4 441.37c-2.13 1-.18-2.44 0 0z" fill-rule="evenodd"/><path d="m245.65 443c2-.43 3 .67 3 2.16.17 3.33-5 3.75-5 .18a2.11 2.11 0 0 1 2-2.34z" fill-rule="evenodd"/><path d="m297.36 443c3.13-.38 2.61 4.3 0 4.13-2.14-.13-2.84-3.8 0-4.13z" fill-rule="evenodd"/><path d="m194.65 443.88c2.07-.28 2.8 2.81 1.08 3.59-2.41 1.1-4.33-3.14-1.08-3.59z" fill-rule="evenodd"/><path d="m349.43 445c-2.14.95-.18-2.45 0 0z" fill-rule="evenodd"/><path d="m143.84 446.4c-2.13.94-.18-2.44 0 0z" fill-rule="evenodd"/><path d="m261.45 448.37c3.13-.38 2.61 4.29 0 4.12-2.14-.13-2.84-3.77 0-4.12z" fill-rule="evenodd"/><path d="m314.05 449.09a1.41 1.41 0 0 1 -2.15 1.79 1.41 1.41 0 0 1 2.15-1.79z" fill-rule="evenodd"/><path d="m210.09 449.09a1.74 1.74 0 0 1 1.62.54c1.7 2.36-3.52 4.43-3.24.9a1.71 1.71 0 0 1 1.62-1.44z" fill-rule="evenodd"/><path d="m159.46 451.42c-2.13 1-.17-2.44 0 0z" fill-rule="evenodd"/><path d="m276.35 454.12c.13-.41 1-.07 1.44-.18 2.15 1.36-.79 4.3-2.15 2.15-.11-.99.02-1.76.71-1.97z" fill-rule="evenodd"/><path d="m225 454.48c.13-.4 1-.07 1.43-.18 2.15 1.37-.79 4.31-2.16 2.16-.09-1 .04-1.77.73-1.98z" fill-rule="evenodd"/><path d="m329 455.37c-2.13.95-.18-2.44 0 0z" fill-rule="evenodd"/><path d="m174.9 456.45c-2.13 1-.18-2.44 0 0z" fill-rule="evenodd"/><path d="m293.59 460.22a1.37 1.37 0 0 1 -1.26 1.26 4.34 4.34 0 0 1 -.9-.91 1.1 1.1 0 0 1 2.16-.35z" fill-rule="evenodd"/><path d="m242.24 459.86a1.41 1.41 0 0 1 -2.15 1.79 1.41 1.41 0 0 1 2.15-1.79z" fill-rule="evenodd"/><path d="m190.34 461.48c-2.13.94-.17-2.45 0 0z" fill-rule="evenodd"/><path d="m308.49 465.79c-2.13.95-.18-2.44 0 0z" fill-rule="evenodd"/><path d="m257.32 465.25v1.07c-.23.25-.78.18-1.26.18a.89.89 0 0 1 1.26-1.25z" fill-rule="evenodd"/><path d="m205.78 466.5c-2.13.95-.18-2.44 0 0z" fill-rule="evenodd"/><path d="m272.58 471.17c-2.13 1-.17-2.44 0 0z" fill-rule="evenodd"/><path d="m221.22 471.53c-2.13.94-.17-2.44 0 0z" fill-rule="evenodd"/><path d="m264.32 186.1c1.53 1.46 4.11 3.44 4 7.18 1.68-1.21 3.68-3.72 7.68-3.28-1.64-1.5-3.7-3.47-3.77-6.83-.22-10.87 16.16-10.48 16.16-.17 0 4.67-3.13 7.81-8.62 8.08 1.6 1.51 4.24 3.54 3.95 7.54 1.62-1.56 3.93-4 8.26-3.42-.43-.64-1.7-1.23-2.34-2-4.92-5.76.23-13.89 7.18-13.11a7.89 7.89 0 0 1 6.82 9c-.48 4.22-3.48 6.85-9 6.82 2 1.58 4.81 3.81 4.31 8.44 1.65-2 4.07-4.42 8.26-4 9.2 1 9.44 16.76-1.61 16.16 1.67 1.56 4.34 3.67 3.94 7.89 3.46-5.64 14.1-4.26 15.08 3.23a8.13 8.13 0 0 1 -8.8 9.34c1.82 1.65 4.54 4 3.95 8.62.7-.49 1.33-1.85 2.16-2.51 5.9-4.72 13.68.61 12.93 7.36a7.92 7.92 0 0 1 -9 6.82c-4.22-.47-6.85-3.48-6.82-9-1.5 1.78-3.54 4.59-7.72 4.3 1.85 2 3.92 3.74 3.59 7.9 1.63-1.77 3.51-3.7 6.82-3.77 10.26-.2 11 16.16.18 16.16-5 0-7.79-3.44-8.08-8.62-1.46 1.54-3.43 4.11-7.18 4 1.2 1.73 3.72 3.7 3.23 7.72 3.36-6 14.91-4.4 15.08 4.13.21 10.35-16.23 11.21-16.16-.36-1.49 1.57-3.49 4.17-7.36 4 1.41 1.69 4.07 4.47 3.23 8.43 1.57-2.45 3.8-4.77 8.26-4.31 4.29.45 7.3 4.35 6.82 9-1 9.22-17.08 9.46-15.8-2.34-1.54 2.59-4.26 5-8.26 4.49 3.89 2.38 5.29 9.41 1.43 13.1-4.75 4.56-14.49 1.6-13.82-6.28-1.61 1.57-3.73 4.17-7.9 3.77 3.64 2.1 5 9.07 1.43 12.75-4.71 4.9-15 1.79-14-6.46-1.53 1.93-4.5 4.76-8.8 3.95 7.44 3.53 4.62 16.31-4.85 15.08s-8.59-17.25 2.52-15.8a9 9 0 0 1 -4.67-7.36c-1.67 1.44-4 3.78-8.26 3.23 2.24 1.5 4.06 3.34 4.31 6.46.94 11.71-16.82 11-16.16.18.28-4.6 3.38-7.3 8.8-7.54-1.65-1.46-4.27-3.51-4.13-7.36-1.68 1.44-4 3.78-8.26 3.23 2.24 1.5 4.06 3.34 4.31 6.46.94 11.72-16.82 11-16.16.18.28-4.59 3.38-7.29 8.8-7.54-1.72-1.5-4.41-3.61-4.13-7.71-1.72 1.63-4.68 4.35-9 3.41 8.18 3.5 4.62 16.44-4.49 15.26a7.83 7.83 0 0 1 -6.65-9.15c.5-3.92 3.88-7.07 9.34-6.64-2.71-1.66-4.85-3.89-4.85-8.25-4.05 6.36-16.24 3.67-15.08-5.75.51-4.13 3.5-6.7 8.44-6.82-1.52-1.59-4.11-3.66-3.77-7.72-1.74 1.78-4.23 3.91-8.26 3.41-9.18-1.13-9.23-17.11 2-16.15-1.93-1.53-4.77-4.51-4-8.8-3 7.26-16.33 4.83-15.08-4.85 1.2-9.25 16.84-8.89 15.8 2.52a9 9 0 0 1 7.36-4.68c-1.3-1.62-3.67-3.74-3.23-7.71-1.74 1.88-3.73 4-7.55 3.77-9.29-.57-10.06-15.37-.18-16.16 5.48-.44 8.42 3.28 8.8 8.43 1.51-1.42 3.48-3.94 7.18-3.77-1.31-1.63-3.68-3.75-3.23-7.72-1.52 1.69-3.35 3.53-6.28 3.77-10.56.85-11.68-15.33-1.44-16.16 5.48-.44 8.43 3.28 8.8 8.44 1.54-1.46 3.54-4 7.36-3.77-1.42-1.69-4.06-4.47-3.23-8.44-2.55 6.39-14.12 5.34-15.08-2.33-1.49-12 17.2-12.25 15.8 0 1.54-2.6 4.26-5 8.26-4.49-1.35-1.45-3.38-3-3.77-5.75a8.78 8.78 0 0 1 2.33-7.36c4.76-4.56 14.5-1.6 13.83 6.28 1.72-1.46 3.69-4.21 7.9-3.77-6.51-4.16-3.38-16.09 5.57-15.08a8.1 8.1 0 0 1 7 8.8c1.66-1.88 4.05-4.56 8.8-4-7.16-3.12-4.76-16.06 4.67-15.08a7.77 7.77 0 0 1 6.82 6.64c.71 5.71-2.83 9.24-9 9.16 1.83 1.52 4.66 3.6 4.31 7.9 1.73-1.5 3.76-4.26 8.08-3.77-6.11-3.84-4.15-15.08 4.31-15.08 10.37.07 10.89 16.53-.42 16.23zm-36.32 5.56a7.77 7.77 0 0 1 4.14 6.46c1.51-1 3.43-3.15 6.64-3a11 11 0 0 1 -3.05-7.72c-1.3 2.6-3.91 4.03-7.73 4.26zm16.52 5.21c1.89 1.28 2.82 3.52 3.59 5.92 1.38-1.67 3.55-2.55 6.11-3-1.92-1.37-2.84-3.75-3.05-6.82-1.29 2.15-3.54 3.44-6.6 3.9zm-37.17 5.21a7.52 7.52 0 0 1 4.13 6.64c1.9-1.39 3.45-3.14 6.65-3.23a10.93 10.93 0 0 1 -3-7.36c-1.37 2.52-4.01 3.78-7.73 3.95zm53.15 0a7.15 7.15 0 0 1 3.05 5.21c1.57-.59 3.54-2.32 6.1-2.52-1.81-1.3-2.71-3.5-3-6.28a9.58 9.58 0 0 1 -6.1 3.59zm15.44 5c2 1.11 2.64 3.47 3.41 5.74 1.31-1.68 3.63-2.36 6.11-2.87-2.07-1.28-2.75-4-3.41-6.64-1.13 2.13-3.38 3.18-6.05 3.79zm-51.71.36a9.27 9.27 0 0 1 3.23 5.38 11.55 11.55 0 0 1 5.44-2.82c-1.57-1.24-2.21-3.42-2.69-5.75-1.27 1.75-3.37 2.75-5.93 3.21zm66.8 4.31c1.64 1.71 3.17 3.53 3.41 6.64a11 11 0 0 1 7.36-3.05c-2.46-1.43-3.77-4-4-7.72a7.72 7.72 0 0 1 -6.73 4.15zm-50.46.9a11.23 11.23 0 0 1 2.69 4.67 7.88 7.88 0 0 1 4.74-2.32 14.6 14.6 0 0 1 -2.33-5.21 8.89 8.89 0 0 1 -5.05 2.88zm-37.35 5.21c2 1.2 2.91 3.43 3.59 5.92 1.29-1.7 3.46-2.52 5.74-3.22-1.7-1.3-2.43-3.55-2.87-6.11-1.22 2.03-3.68 2.82-6.41 3.42zm53.51 0c1.3.91 1.61 2.82 2.52 4.12a7.63 7.63 0 0 1 4.12-2 21.92 21.92 0 0 1 -2.33-4.67c-1.04 1.26-2.69 1.86-4.26 2.56zm15.44 4.84a20 20 0 0 1 2.52 4.67c1.06-1.27 2.93-1.73 4.67-2.34-1.48-1-1.8-3.22-2.69-4.84a8.33 8.33 0 0 1 -4.45 2.53zm-52.08.18c.43 1.33 2 3 2.52 4.84 1-1.31 2.88-1.78 4.49-2.51-1.27-1.06-1.74-2.93-2.33-4.66a7 7 0 0 1 -4.62 2.35zm67 4.84a11.48 11.48 0 0 1 2.88 5.39c1.25-1.57 3.49-2.14 5.75-2.69-1.82-1.3-2.8-3.43-3.24-6.1-.99 1.93-3.16 2.68-5.36 3.42zm-50.81.72a8.87 8.87 0 0 1 2 3.42 39.14 39.14 0 0 1 3.77-2c-1.05-.81-1-2.68-2-3.59-.84 1.15-2.44 1.52-3.74 2.19zm65.18 4.13c2 1.27 3.12 3.46 3.41 6.46a11 11 0 0 1 7.72-3c-2.68-1.33-4.07-4-4.31-7.72-1.21 2.44-3.6 3.76-6.79 4.28zm-103.24.72c2 1.2 2.91 3.43 3.59 5.92a8 8 0 0 1 5.2-2.88c-.57-1.54-2.25-3.48-2.51-5.92-1.37 1.68-3.5 2.59-6.26 2.9zm54.4.36c1 .61 1.1 2 1.79 2.87a8.2 8.2 0 0 1 3.05-1.43 23 23 0 0 1 -1.61-3.41c-.76.96-2.27 1.19-3.2 1.99zm-37.52 5.21c1.21 1.06 1.82 2.73 2.51 4.31a7.25 7.25 0 0 1 4-2.16c-.78-1.43-1.36-3.07-2.16-4.49-.9 1.35-2.93 1.54-4.32 2.35zm53-.54a37.62 37.62 0 0 1 2 3.77c.86-.93 2.42-1.18 3.59-1.79-1.23-.81-1.34-2.73-2.34-3.77a5.5 5.5 0 0 1 -3.26 1.81zm14.72 5.21a7.94 7.94 0 0 1 2.18 4.47 16.22 16.22 0 0 1 5-2.34c-1.43-1.08-2.06-3-2.69-4.84a12.65 12.65 0 0 1 -4.49 2.72zm-48.12-1.08a6.13 6.13 0 0 1 -3.05 1.43c.42 1.26 1.25 2.1 1.62 3.41 1-.64 2.16-1.19 3.23-1.79-.9-.71-.85-2.38-1.81-3.03zm62.66 5.55a13.79 13.79 0 0 1 2.87 6.28c1.35-1.88 3.67-2.79 6.64-3.05-2.3-1.16-3.11-3.82-3.95-6.46a7.24 7.24 0 0 1 -5.56 3.23zm-104.14.54c1 1.56 3.41 3.17 3.23 6.46a14.49 14.49 0 0 1 5.93-3.41c-1.56-1.32-2.33-3.41-2.88-5.74a8 8 0 0 1 -6.29 2.72zm54.77.9c.67.64.84 1.79 1.44 2.51.64-.67 1.79-.84 2.52-1.43-.68-.64-.84-1.79-1.44-2.51-.66.69-1.81.86-2.51 1.46zm-38.25 4.84a6.85 6.85 0 0 1 2.51 4.49c1.28-.35 2.83-1.94 4.67-2.33-1.33-1-1.57-3.11-2.52-4.49-.97 1.39-3 1.69-4.67 2.36zm53.68.18c.79.77 1 2.13 1.62 3a6.19 6.19 0 0 1 3.05-1.43 24.58 24.58 0 0 0 -1.8-3.41c-.6 1.02-2.01 1.17-2.87 1.88zm14.73 4.54c.53 1.56 1.67 2.52 1.8 4.49a21.45 21.45 0 0 1 4.67-2.33c-1.22-1.07-1.83-2.73-2.52-4.31a7.26 7.26 0 0 1 -3.95 2.15zm-48.48-1.08a8.17 8.17 0 0 1 -3.41 1.62c.64 1.28 1.64 2.19 1.79 4 1.21-.76 2.56-1.4 3.77-2.15-1.18-.76-1.11-2.68-2.15-3.49zm63 5.75c.59 1.58 2.32 3.54 2.51 6.1 1.3-1.81 3.51-2.72 6.28-3.05a9.52 9.52 0 0 1 -3.59-6.1 7.17 7.17 0 0 1 -5.18 3.03zm-105.4.36c2.54 1.35 3.92 3.86 4.13 7.54 1.27-2.32 3.63-3.56 6.65-4.13-1.93-1.41-3.06-3.64-3.41-6.64-1.32 2.08-4.43 3.27-7.35 3.2zm55.12 1.07a6.14 6.14 0 0 1 1.44 3.05 24 24 0 0 0 3.41-1.79c-.95-.61-1.1-2-1.79-2.87-.75.77-2.12.95-3.04 1.59zm-32.86 2a7.28 7.28 0 0 1 -5.39 2.34 11.26 11.26 0 0 1 3.05 6.1 7.63 7.63 0 0 1 5-3c-.59-1.44-1.93-3.6-2.64-5.48zm48.3 3c.94.86 1.18 2.42 1.8 3.59.86-1.11 2.47-1.48 3.77-2.16-1.06-.78-1.31-2.39-2.15-3.41-.71 1.08-2.33 1.26-3.4 1.99zm14.72 4.67c1.27 1.06 1.73 2.93 2.34 4.67a7 7 0 0 1 4.67-2.34c-.42-1.33-2-3-2.51-4.84-1.05 1.32-2.86 1.74-4.47 2.52zm-52.07 0a14.86 14.86 0 0 1 2.52 5.23c1-1.48 2.88-2.14 4.67-2.88-1.31-1-1.78-2.88-2.51-4.49a8.19 8.19 0 0 1 -4.65 2.15zm66.61 4.67c1.7 1.3 2.43 3.55 2.88 6.11 1.31-2 3.84-2.87 6.64-3.41-2.11-1.18-3.15-3.43-3.77-6.11-1.07 1.97-3.44 2.64-5.72 3.41zm-50.64.72c1.24 1 1.61 2.95 2.34 4.49 1-1.3 2.72-1.82 4.31-2.51a7.28 7.28 0 0 1 -2.16-3.95 31.17 31.17 0 0 1 -4.45 1.97zm-38.42 4.49c2.33 1.44 3.61 3.93 3.77 7.54 1.27-2.26 3.44-3.62 6.46-4.13a15.12 15.12 0 0 1 -3.41-6.46c-1.24 2.01-3.77 2.78-6.79 3.05zm53.87.54c1.26 1.13 1.74 3 2.33 4.85 1.08-1.43 2.89-2.14 4.85-2.69a12.49 12.49 0 0 1 -2.69-4.49c-1.05 1.2-2.8 1.71-4.46 2.33zm-37.53 4.67a11.17 11.17 0 0 1 3.23 7c1.11-2.24 3.48-3.22 6.11-4-1.9-1.16-2.4-3.71-3.41-5.74a7.45 7.45 0 0 1 -5.9 2.74zm52.43.18c1.57 1.24 2.21 3.42 2.69 5.74 1.15-1.9 3.42-2.68 5.93-3.23a9.22 9.22 0 0 1 -3.23-5.38 11.57 11.57 0 0 1 -5.36 2.83zm14.54 4.67c2.13 1.34 3 3.94 3.24 7.18 1.36-2.53 4-3.78 7.72-4-2.57-1.15-3.63-3.78-4.49-6.64-1.35 1.96-3.64 2.96-6.43 3.45zm-51 .54c1.65 1.4 2.54 3.56 2.87 6.28 1.2-2 3.43-2.91 5.92-3.59-1.72-1.15-2.4-3.34-3.23-5.39-1.18 1.53-3.27 2.18-5.51 2.69zm15.44 5a8 8 0 0 1 2.69 6.29c1.56-1 3.17-3.41 6.46-3.23a16.12 16.12 0 0 1 -3.41-5.92c-1.19 1.61-3.34 2.36-5.7 2.88zm15.08 4.67c1.33 1.39 3.37 4.48 3 7.54 1.43-2.46 3.87-3.9 7.54-4.12-2.32-1.26-3.55-3.63-4.13-6.64a8.35 8.35 0 0 1 -6.36 3.24z" fill-rule="evenodd"/></g><path d="m102.06 237.3a22.71 22.71 0 0 0 13.36-4 23.74 23.74 0 0 0 9.22-10q7.36-13.48 7.36-32.3v-55.15q.37-20.33 11.67-31.62a35 35 0 0 1 26.16-11.1h32.75v25.41h-18.83q-9.22.38-13.18 9.6a61.1 61.1 0 0 0 -3.76 22.4v49.69q0 12.8-3.58 21.27a43.86 43.86 0 0 1 -8.85 15.06q-11.11 11.48-17.69 13v.75a32 32 0 0 1 8.09 3.2 34.93 34.93 0 0 1 9.6 8.85 43.92 43.92 0 0 1 8.85 15.06q3.57 9.22 3.58 22.77v49.31a56.45 56.45 0 0 0 3.76 21.46q4 10.16 13.18 10.54h18.82v25.41h-32.75a36 36 0 0 1 -26.16-11.67q-11.3-11.14-11.66-31.09v-54.4q0-20.14-7.34-33.13-7.53-13.55-22.59-13.93z" fill="url(#b)"/><path d="m102 237.2c1.34-.08 2.41-.1 3.61-.27a23.57 23.57 0 0 0 3.44-.71 21.05 21.05 0 0 0 6.31-3 23.29 23.29 0 0 0 8.5-8.76 56.92 56.92 0 0 0 4.86-11.38 78.59 78.59 0 0 0 3-24.52l-.12-49.76c-.16-8.28.88-16.82 4.46-24.45a37 37 0 0 1 7.1-10.35 37.65 37.65 0 0 1 10-7.58 34.74 34.74 0 0 1 12-3.62c4.21-.47 8.35-.21 12.49-.3l24.88-.06h.66v.66 25.41.7h-.71-10.63-5.31a25.64 25.64 0 0 0 -5.18.27 12.65 12.65 0 0 0 -8.21 5.34c-2 2.76-3 6.16-3.84 9.54-1.72 6.81-1.88 13.84-1.77 20.94v21.27 21.27c.11 7.09-.33 14.4-2.61 21.31-2.31 6.73-5.48 13.49-10.65 18.69a87.64 87.64 0 0 1 -7.92 7.28c-2.84 2.2-5.83 4.39-9.61 5.36l.79-1v.75l-.83-1a25.52 25.52 0 0 1 5.39 1.84c.85.38 1.68.78 2.52 1.2a19.67 19.67 0 0 1 2.44 1.51 38.51 38.51 0 0 1 8 7.84l-.06-.07c8.66 9.53 12.36 22.47 12.73 35 .16 12.48.1 24.82.15 37.24 0 6.18 0 12.45.1 18.55a53.78 53.78 0 0 0 3.49 17.74 17.73 17.73 0 0 0 4.65 7.22 11.84 11.84 0 0 0 7.71 2.86h19.87v28h-27.75c-2.23 0-4.42 0-6.67-.05a39.05 39.05 0 0 1 -6.82-.84 36.37 36.37 0 0 1 -12.61-5.27 46.12 46.12 0 0 1 -10-9.28 38.8 38.8 0 0 1 -6.36-12 53.2 53.2 0 0 1 -2.41-13.32c-.26-4.54 0-8.9-.08-13.36l.12-26.61.06-13.31a130.16 130.16 0 0 0 -.34-13.23c-.77-8.73-2.89-17.48-7.39-25a24.5 24.5 0 0 0 -21.43-12.76h-.35v-.34zm.18.18.26 25.32-.35-.35a26.72 26.72 0 0 1 12.91 3.36 27.1 27.1 0 0 1 9.48 9.5c4.72 7.7 6.94 16.63 7.81 25.5a131.58 131.58 0 0 1 .47 13.36l.06 13.3.12 26.6c.08 4.41-.1 8.93.2 13.24a51.14 51.14 0 0 0 2.42 12.79 36.59 36.59 0 0 0 6.1 11.31 43.89 43.89 0 0 0 9.51 8.7 33.92 33.92 0 0 0 11.83 4.84 36.56 36.56 0 0 0 6.38.73h33.22l-1.3 1.3v-25.41l1.3 1.3h-18.66a14.45 14.45 0 0 1 -9.36-3.5 20.27 20.27 0 0 1 -5.36-8.23 55.82 55.82 0 0 1 -3.64-18.59c-.1-6.3 0-12.43 0-18.65 0-12.38.12-24.84 0-37.16a60.27 60.27 0 0 0 -3-17.93 44.25 44.25 0 0 0 -8.93-15.66 36.36 36.36 0 0 0 -7.52-7.45 17.59 17.59 0 0 0 -2.19-1.37c-.79-.4-1.6-.8-2.41-1.16a23.66 23.66 0 0 0 -4.92-1.71l-.83-.17v-2.39l.79-.2c3.15-.78 6.1-2.82 8.82-4.94a85.76 85.76 0 0 0 7.75-7.08c4.92-4.9 8-11.32 10.27-17.92s2.68-13.66 2.6-20.71v-21.27-21.27c-.09-7 .1-14.34 1.9-21.31.91-3.44 1.94-7 4.12-10a14.18 14.18 0 0 1 9.18-5.92 26.76 26.76 0 0 1 5.42-.28h5.32 10.64l-.7.7v-25.41l.66.66-24.88-.06c-4.14.06-8.32-.21-12.37.23a33.63 33.63 0 0 0 -11.68 3.45 36.61 36.61 0 0 0 -9.77 7.33 36.05 36.05 0 0 0 -7 10c-3.53 7.44-4.61 15.81-4.49 24.05l-.12 49.76a79.1 79.1 0 0 1 -3.15 24.65 57.32 57.32 0 0 1 -4.95 11.44 23.66 23.66 0 0 1 -8.67 8.85 21.37 21.37 0 0 1 -6.42 3 23.86 23.86 0 0 1 -3.49.7 19.69 19.69 0 0 1 -3.41.14z" fill="#662483"/><path d="m297.24 381.47h18.82q9.41-.38 13.18-10.54a54.08 54.08 0 0 0 4-21.46v-49.69q0-12.8 4.14-22a48.16 48.16 0 0 1 8.85-15.06q11.29-11.48 16.94-12.42v-.75q-2.26-1.13-7-3.76a46.36 46.36 0 0 1 -10-8.47 48.12 48.12 0 0 1 -8.85-15.06q-4.14-9.22-4.14-22.4v-49.33a58.51 58.51 0 0 0 -4-22.4q-3.77-9.22-13.18-9.6h-18.76v-25.41h32.76q16.19 0 27.1 11.1 10.35 11.29 10.73 31.62v54.4q0 19.58 8.09 32.75 7.71 13.18 22 14.31v25.41q-14.31.38-22 13.55-8.1 13-8.09 32.75v55.15q-.38 19.95-10.73 31.06a37.48 37.48 0 0 1 -27.1 11.66h-32.76z" fill="url(#c)"/><path d="m297.15 381.38 10.66-.05h5.34a26.09 26.09 0 0 0 5.28-.29 12.9 12.9 0 0 0 8.41-5.74 23.34 23.34 0 0 0 2.32-4.71 44.17 44.17 0 0 0 1.73-5 54.35 54.35 0 0 0 1.82-10.4c.31-3.51.19-7 .2-10.59l-.05-21.24-.05-21.24c-.14-7.07.44-14.3 2.77-21.09s5.39-13.3 10.26-18.67a102.21 102.21 0 0 1 7.82-7.28c2.78-2.19 5.66-4.51 9.38-5.34l-.46.54v-.75l.31.49-4.7-2.52a34.92 34.92 0 0 1 -4.62-2.74 55.31 55.31 0 0 1 -8-7.2c-4.87-5.38-7.84-12.06-10.3-18.72-2.31-6.82-2.9-14.09-2.8-21.17v-21.24-21.24c.1-7.09-.13-14.11-2-20.87a31.4 31.4 0 0 0 -3.94-9.49 12.38 12.38 0 0 0 -8.19-5.19 27 27 0 0 0 -5.16-.24h-5.31-10.61-.89v-.9-25.41-.94h.94 26.62c4.4 0 8.93-.24 13.45.59a36.66 36.66 0 0 1 12.79 4.66 35.15 35.15 0 0 1 10.19 9.06 40.63 40.63 0 0 1 6.07 12.18 58 58 0 0 1 2.41 13.32c.33 4.54.14 8.92.21 13.38l.06 26.63v13.31a124.33 124.33 0 0 0 .43 13.17c.85 8.67 3.24 17.23 7.92 24.54a28 28 0 0 0 8.68 9.17 25.63 25.63 0 0 0 11.86 3.84l1.2.09v27.91h-1.2a23.87 23.87 0 0 0 -12 3.39 26.45 26.45 0 0 0 -8.67 9.13c-4.7 7.31-7.07 15.89-7.91 24.58-.46 4.35-.39 8.74-.42 13.2l-.06 13.32-.12 26.65c-.08 4.46.11 8.84-.21 13.37a56.4 56.4 0 0 1 -2.42 13.27 39.35 39.35 0 0 1 -6.19 12.09 37.39 37.39 0 0 1 -22.71 13.8c-4.45.93-9 .73-13.39.71l-26.65-.23h-.36v-.35zm.18.18.26 25.32-.35-.35 26.64-.23c4.45 0 8.88.13 13.15-.82a36 36 0 0 0 21.72-13.48 37.74 37.74 0 0 0 5.8-11.61 54.68 54.68 0 0 0 2.23-12.89c.27-4.34 0-8.85.09-13.27l-.12-26.64-.06-13.32c0-4.42-.13-8.92.31-13.42.78-8.94 3.17-18 8.06-25.73a29 29 0 0 1 9.52-10 26.49 26.49 0 0 1 13.32-3.78l-1.27 1.3v-25.34l1.2 1.29a28.24 28.24 0 0 1 -13.13-4.27 30.56 30.56 0 0 1 -9.48-10c-4.92-7.69-7.43-16.71-8.29-25.66a126.6 126.6 0 0 1 -.38-13.42v-13.31l.06-26.62c0-4.42.16-8.92-.14-13.24a55.76 55.76 0 0 0 -2.25-12.83 38.45 38.45 0 0 0 -5.69-11.56 33 33 0 0 0 -9.53-8.53 34.6 34.6 0 0 0 -12-4.43c-4.24-.8-8.65-.55-13.11-.61h-26.62l.94-.94v25.41l-.89-.89h10.63 5.32a28.3 28.3 0 0 1 5.43.29 14.1 14.1 0 0 1 9.25 5.91 32.85 32.85 0 0 1 4.15 10c1.87 7 2.07 14.25 1.95 21.29v21.24 21.24c-.12 7 .44 14.11 2.66 20.75 2.4 6.57 5.28 13.11 10 18.32a54.18 54.18 0 0 0 7.73 7.07 33.85 33.85 0 0 0 4.49 2.69l4.65 2.53.31.17v1.53l-.46.1c-3.26.69-6.19 2.92-8.9 5.06a101.37 101.37 0 0 0 -7.75 7.15c-4.73 5.16-7.69 11.7-10.14 18.28s-2.93 13.74-2.83 20.8l-.05 21.24-.05 21.24c.1 7-.11 14.27-2.14 21.12a44.63 44.63 0 0 1 -1.77 5 23.76 23.76 0 0 1 -2.38 4.78 13.3 13.3 0 0 1 -8.69 5.86 25.87 25.87 0 0 1 -5.3.27h-5.28z" fill="#662483"/></g></svg>