<svg viewBox="0 0 500 500" xmlns="http://www.w3.org/2000/svg" xmlns:xlink="http://www.w3.org/1999/xlink"><linearGradient id="a" gradientUnits="userSpaceOnUse" x1="10.12" x2="489.88" y1="250" y2="250"><stop offset="0" stop-color="#009c8b"/><stop offset="0" stop-color="#3f2d87"/><stop offset=".51" stop-color="#aa2b87"/><stop offset="1" stop-color="#d51317"/></linearGradient><linearGradient id="b" x1="-206.82" x2="414.83" xlink:href="#a" y1="18.1" y2="18.1"/><linearGradient id="c" x1="-211.24" x2="426.51" xlink:href="#a" y1="25.89" y2="25.89"/><linearGradient id="d" x1="-211.4" x2="435.92" xlink:href="#a" y1="33.39" y2="33.39"/><linearGradient id="e" x1="-210.77" x2="447.93" xlink:href="#a" y1="40.68" y2="40.68"/><linearGradient id="f" x1="-213.82" x2="456.04" xlink:href="#a" y1="47.9" y2="47.9"/><linearGradient id="g" x1="-210.16" x2="468.05" xlink:href="#a" y1="54.87" y2="54.87"/><linearGradient id="h" x1="-213.1" x2="475.83" xlink:href="#a" y1="61.75" y2="61.75"/><linearGradient id="i" x1="-204.37" x2="495.3" xlink:href="#a" y1="75.38" y2="75.38"/><linearGradient id="j" x1="-204.38" x2="501.46" xlink:href="#a" y1="82" y2="82"/><linearGradient id="k" x1="-203.75" x2="512.16" xlink:href="#a" y1="88.06" y2="88.06"/><linearGradient id="l" x1="-198.57" x2="520.46" xlink:href="#a" y1="94.24" y2="94.24"/><linearGradient id="m" x1="-198.32" x2="526.75" xlink:href="#a" y1="100.25" y2="100.25"/><linearGradient id="n" x1="-196.33" x2="532.91" xlink:href="#a" y1="105.23" y2="105.23"/><linearGradient id="o" x1="-192.77" x2="538.1" xlink:href="#a" y1="110.09" y2="110.09"/><linearGradient id="p" x1="-187.45" x2="547.69" xlink:href="#a" y1="115.05" y2="115.05"/><linearGradient id="q" x1="-182.27" x2="556.26" xlink:href="#a" y1="118.9" y2="118.9"/><linearGradient id="r" x1="-178.2" x2="561.44" xlink:href="#a" y1="122.25" y2="122.25"/><linearGradient id="s" x1="-140.95" x2="597.72" xlink:href="#a" y1="195.57" y2="195.57"/><linearGradient id="t" x1="-135.77" x2="602.9" xlink:href="#a" y1="208.44" y2="208.44"/><linearGradient id="u" x1="-130.59" x2="606.13" xlink:href="#a" y1="221.6" y2="221.6"/><linearGradient id="v" x1="-125.39" x2="605.47" xlink:href="#a" y1="235.1" y2="235.1"/><linearGradient id="w" x1="-120.21" x2="615.2" xlink:href="#a" y1="248.48" y2="248.48"/><linearGradient id="x" x1="-110.49" x2="614.71" xlink:href="#a" y1="261.7" y2="261.7"/><linearGradient id="y" x1="-101.08" x2="618.92" xlink:href="#a" y1="274.74" y2="274.74"/><linearGradient id="z" x1="-94.92" x2="621" xlink:href="#a" y1="288.38" y2="288.38"/><linearGradient id="A" x1="-88.11" x2="621.62" xlink:href="#a" y1="301.3" y2="301.3"/><linearGradient id="B" x1="-75.78" x2="624.85" xlink:href="#a" y1="314.87" y2="314.87"/><linearGradient id="C" x1="-69.62" x2="626.79" xlink:href="#a" y1="328.14" y2="328.14"/><linearGradient id="D" x1="-62.82" x2="626.44" xlink:href="#a" y1="340.82" y2="340.82"/><linearGradient id="E" x1="-49.51" x2="630.64" xlink:href="#a" y1="352.53" y2="352.53"/><linearGradient id="F" x1="-44.4" x2="628.03" xlink:href="#a" y1="363.53" y2="363.53"/><linearGradient id="G" x1="-30.37" x2="631.12" xlink:href="#a" y1="372.57" y2="372.57"/><linearGradient id="H" x1="-24.21" x2="628.64" xlink:href="#a" y1="378.01" y2="378.01"/><linearGradient id="I" x1="-9.27" x2="631.88" xlink:href="#a" y1="380.82" y2="380.82"/><linearGradient id="J" x1=".66" x2="627.81" xlink:href="#a" y1="384.76" y2="384.76"/><linearGradient id="K" x1="10.97" x2="624.69" xlink:href="#a" y1="389.32" y2="389.32"/><linearGradient id="L" x1="25.78" x2="627.92" xlink:href="#a" y1="394.5" y2="394.5"/><linearGradient id="M" x1="32.64" x2="623.89" xlink:href="#a" y1="399.5" y2="399.5"/><linearGradient id="N" x1="47.57" x2="619.75" xlink:href="#a" y1="405.33" y2="405.33"/><linearGradient id="O" x1="62.06" x2="616.16" xlink:href="#a" y1="411.36" y2="411.36"/><linearGradient id="P" x1="75.76" x2="616.33" xlink:href="#a" y1="417.46" y2="417.46"/><linearGradient id="Q" x1="91.04" x2="606.05" xlink:href="#a" y1="424.01" y2="424.01"/><linearGradient id="R" x1="105.61" x2="602.45" xlink:href="#a" y1="430.83" y2="430.83"/><linearGradient id="S" x1="121.54" x2="596.6" xlink:href="#a" y1="437.38" y2="437.38"/><linearGradient id="T" x1="140.03" x2="591.23" xlink:href="#a" y1="444.4" y2="444.4"/><linearGradient id="U" x1="160.48" x2="586.37" xlink:href="#a" y1="451.29" y2="451.29"/><linearGradient id="V" x1="183.9" x2="572.94" xlink:href="#a" y1="458.53" y2="458.53"/><linearGradient id="W" x1="199.97" x2="559.14" xlink:href="#a" y1="465.68" y2="465.68"/><linearGradient id="X" x1="224.94" x2="544.81" xlink:href="#a" y1="473.3" y2="473.3"/><linearGradient id="Y" x1="257.96" x2="530.34" xlink:href="#a" y1="481.66" y2="481.66"/><linearGradient id="Z" x1="-209.55" x2="486.87" xlink:href="#a" y1="68.57" y2="68.57"/><linearGradient id="aa" x1="-173.02" x2="593.26" xlink:href="#a" y1="158.18" y2="158.18"/><linearGradient id="ab" x1="-178.2" x2="561.44" xlink:href="#a" y1="142.16" y2="142.16"/><linearGradient id="ac" x1="-173.02" x2="593.26" xlink:href="#a" y1="142.16" y2="142.16"/><path d="m450 488.75a1010 1010 0 0 0 -400 0c-27.9 5.74-44.49-10.85-38.75-38.75a1010 1010 0 0 0 0-400c-5.74-27.9 10.85-44.49 38.75-38.75a1010 1010 0 0 0 400 0c27.9-5.74 44.49 10.85 38.75 38.75a1010 1010 0 0 0 0 400c5.74 27.9-10.85 44.49-38.75 38.75z" fill="url(#a)"/><g fill="none"><path d="m147.5 297.79c9.25-5.1 26.38-13.91 39.81-21.48 22.43-12.62 80.29-42.11 107-56.58 24.32-13.2 52.69-27.63 76.88-40.26 35.75-18.67 70.27-35.94 105.32-53.57.33-2.65.68-5.29 1-7.94-17 9.34-33.75 18.63-49.72 27.79-29.95 17.16-62.42 34.25-94.79 51.37-14.35 7.59-30.08 16.33-47 25.26l-83.87 44.37c-19.41 10.27-34 17.57-48 25-43.5 23-86.32 44.65-128.85 66.15q-.38 3.5-.77 7c28-15.65 56.08-31.32 86-47.13 12.17-6.43 21.8-11.58 36.99-19.98z"/><path d="m201.86 192.15c-.9.49-1.6.83-2.6 1.38-5.26 2.88.52.71 2.6-1.38z"/><path d="m191.64 185.43c1-.78 3.24-1.18 3.4-2.22-.98.79-3.24 1.18-3.4 2.22z"/><path d="m191.49 172.55c-.89.5-1.6.83-2.6 1.38-5.28 2.89.53.73 2.6-1.38z"/><path d="m195.08 158.12c-1.19.91-3.68 1.4-4.05 2.56 2.7-1.71 6.73-3 8.61-5z"/><path d="m151.93 257.43c11.89-6.77 30.94-16.35 44.69-24.06 19.57-11 39.32-20.8 59.48-31.47 14.31-7.57 40.47-21.48 53.48-27.88 27.6-13.59 52.06-28 79.18-40.64 18.8-8.76 37.46-19 55.28-28.41 12.48-6.6 25.28-13.19 38.3-19.82q.65-4 1.34-7.94c-51.8 28.5-103.74 56.22-157.41 85.89-14 7.75-32.18 17.29-44.69 24.06-27.42 14.84-72.64 39.07-101.08 53.47-12.09 6.12-31.7 16.37-45 23.41-33.68 17.76-69.89 36.26-106.65 54.96-.13 1.94-.26 3.89-.4 5.83 27.19-15.21 54.52-30.48 82-45 14.22-7.58 27.66-14.54 41.48-22.4z"/><path d="m204.83 153c-1.19.9-3.68 1.4-4.05 2.56 2.7-1.71 6.73-3 8.6-5z"/><path d="m169.13 273.4c25.81-14.2 78.24-41.81 117.5-62.58 8.4-4.44 14.57-7.8 23.73-12.56 47.45-24.72 91.13-45.7 135-68.89 10.72-5.67 21.74-11.34 32.91-17 .36-2.64.76-5.29 1.14-7.93-34.75 19-70 38.42-101.29 55.93s-66.37 36.24-98 53.09c-25.05 13.35-52 27.71-78.34 41.45-12.05 6.31-35.37 18.43-47.63 24.78-43.32 22.46-85.57 43.57-127.35 64.7-.22 2.28-.43 4.56-.66 6.84 34.61-19.26 69.21-38.34 104.49-57 12.56-6.69 24.44-13.1 38.5-20.83z"/><path d="m216.1 235.59c14.37-7.86 25.8-13.65 43.88-23.22 17.75-9.39 36.52-19 50.55-26.34 61.45-31.88 112.67-58.46 169.64-87.2q.63-4.17 1.3-8.33c-49.72 27.37-101.8 56.08-152.95 83.94-13.6 7.4-32.53 17.83-46.64 25.09-17.81 9.15-44.64 24.37-72.64 38.85-7.61 3.93-13 6.75-19.51 10.32-13.18 7.16-32.13 17.1-46.33 24.09-38.92 19.21-78.57 40.21-115.51 58.95-.16 2-.32 4-.5 6.05 46.31-25.19 96.37-51.79 139.47-75.79 13.26-7.3 34.09-18.11 49.24-26.41z"/><path d="m158.6 240.94c31.5-17.05 46.21-24.69 70.37-37.65 17.78-9.54 28.36-14.59 48-25 19.87-10.51 34.9-18.56 54.46-28.39 47.94-24.08 99.85-50.42 153.19-77.76.55-3.08 1.1-6.15 1.67-9.23-54.65 30-110.44 60.68-165.8 90.68-14 7.6-32.6 18.07-44.84 24.56-32.24 17.11-74.56 39.16-105 55.55-27.86 15-59.78 30.84-91.86 47.35-16.21 8.34-32.64 16.74-49.1 25.12-.09 1.63-.18 3.25-.27 4.88 24.05-13.29 47.81-26.26 70.73-38.39 20.38-10.75 41.49-22.55 58.45-31.72z"/><path d="m428.77 419c-32.38 17.13-66.39 35.31-99.73 52.94q6.9.55 13.8 1.19c25.54-13.76 56.53-29.38 94.28-49.36 12.62-6.68 21.77-11.64 30.88-16.34l12.17-6.28c-.46-3-.89-6-1.32-9.07-9 4.7-18.42 9.44-24.9 13.18-9.12 5.2-14.44 8.01-25.18 13.74z"/><path d="m458.35 489.82c13.92.66 24.11-5 28.74-15.27-5.42 2.91-11.45 6.12-18.65 9.93z"/><path d="m426.59 457.29c-10.44 5.49-24.63 12.92-39.73 20.83q7.9 1.08 15.8 2.3c31.84-16.79 61.46-32.45 79.28-42l4.16-2.2q-.92-4.94-1.79-9.88c-2.42 1.28-4.9 2.58-7.51 3.93-16.58 8.62-36.21 19.67-50.21 27.02z"/><path d="m360.49 467.62c-3.93 2.13-7.71 4.14-11.36 6.05q7.22.72 14.45 1.54c12.48-6.51 25.43-13.06 37.62-19.52 12.84-6.8 23.78-13.4 34.29-18.56 15.2-7.45 31.18-15.88 46.57-24.07-.51-3.13-1-6.26-1.47-9.39-21 11.44-49 27.06-64.17 34.36-14.95 7.16-32.68 16.97-55.93 29.59z"/><path d="m368 475.74q7.64.9 15.28 1.92l11.34-6c21.08-11.16 44.19-23.38 69.56-36.8 7.47-4 13.85-7.32 19.74-10.42q-.83-4.77-1.61-9.54c-15.44 8.48-30.37 16.42-52.5 28.12z"/><path d="m250.8 433.29c13.28-7.42 23.72-13 42.74-23 34.86-18.44 77.06-40.69 98-51.44 27.67-14.19 53.5-27.5 79.51-41q-.29-4.22-.54-8.44c-14.39 7.71-28.69 15.43-42.58 23.12-10.55 5.83-24.94 13.61-39.48 21.31-15.59 8.16-23.45 12.16-35.45 18.67-20.75 11.29-50.7 26.42-70.84 37.49-14 7.71-40.19 20.82-60.31 31.49-13.75 7.29-38.38 19.89-56.08 29.25l-3.51 1.85c5.93-.52 11.86-1 17.79-1.38 13.12-7 25.94-14 38.24-20.73 10.41-5.72 22.71-11.72 32.51-17.19z"/><path d="m239 414.06c36.48-19.76 112.19-60.3 146.28-77.39 31.23-15.65 56-29.64 84.43-44.18-.1-2.29-.2-4.57-.28-6.86-25.87 14.08-51.81 28.08-79.1 42.51-35.34 18.7-49.87 26.57-77.68 41.1s-41.4 21.9-74.44 39.38c-16.84 8.91-25.76 13.21-41.45 21.52-31.18 16.5-65 33.74-96.65 49.85q10.69-1.6 21.38-3c28.63-15.63 56.71-30.77 85-45.77 9.06-4.79 22.7-11.87 32.51-17.16z"/><path d="m241.22 425.4c13.26-7.29 27.21-14.14 39.65-21 22.54-12.35 48.24-25.74 71.83-38 17.1-8.89 33.71-18.14 50.06-26.49 21.65-11 44.1-22.7 67.52-34.8q-.22-3.92-.41-7.84c-9.58 5.2-19.14 10.41-28.59 15.58-11.08 6.06-25.29 13.72-38.84 21-39.54 21.15-121.28 65.42-166.73 88.2-11.12 5.56-29.19 15.62-40 21.16-19.63 10.06-42.27 21.4-63.71 32.52q10.19-1.2 20.37-2.2c19.89-10.89 39.7-21.7 59.76-32.32 11.15-5.89 19.96-10.79 29.09-15.81z"/><path d="m406.8 356.19c-33.84 18.32-84.95 45.36-125.95 67.05-15 7.94-27.79 14.33-36.26 18.76-18.36 9.62-36.9 19.2-55 28.58q8.53-.51 17.05-.88c15.38-8.36 30.36-16.5 44.44-24 50.63-27.15 74.63-39.18 111-59.14 14-7.72 32.84-17.21 47.63-24.78 12.35-6.34 24.79-12.71 40.48-21 7-3.71 14.29-7.54 21.7-11.43q-.31-3.94-.6-7.88c-8.42 4.55-16.75 9.15-24.86 13.79-12.87 7.34-28.72 15.02-39.63 20.93z"/><path d="m446.67 396.94c-43.67 23.06-57.67 31.06-93.45 49.86-16.4 8.63-31 16.16-45 23.66q7 .41 14 .91c12.23-6.39 25.32-13.2 38.06-19.94 32.18-17 54.46-28.81 80.8-42.32 13.29-6.82 25.39-13.07 37.48-19.35q-.66-4.72-1.27-9.43l-.21.12c-9.51 5.27-17.08 9.46-30.41 16.49z"/><path d="m369.25 389c-16.8 9-46.33 24.75-67.62 35.77-10.51 5.45-19.44 10-30.41 15.67-20.22 10.56-37 19.72-54.37 28.87q7.64-.25 15.28-.39c8.8-4.69 17.82-9.51 26.93-14.52 13.08-7.21 23-12.38 38.5-20.8 33-17.9 74.55-39.14 97.84-51.77 12.78-6.93 29.79-15.65 46.33-24.09 8.66-4.42 19.58-10 31.23-16q-.38-4.12-.72-8.25-14.84 8.06-30 16.5c-21.24 11.79-56.92 30.4-72.99 39.01z"/><path d="m406.24 393.67c-22.83 12.42-40.46 21.28-63.54 34-24.62 13.61-41.63 21.93-62.58 32.69-5.79 3-11 5.77-16 8.46q7.12.1 14.25.31c7.91-4.19 16.14-8.4 26.19-13.75 31.69-16.81 72.54-37.88 96.22-50.9 11.83-6.51 26-13.3 42.11-21.85 10.44-5.53 21.41-11.32 32.57-17.19q-.51-4.39-1-8.78c-10.21 5.44-20 10.72-28.08 15.32-13.43 7.65-25.7 13.84-40.14 21.69z"/><path d="m379.78 395.56c-39.87 21.08-84.11 44.48-120.27 63.63q-9.16 4.85-18.29 9.62 7.23-.06 14.46 0c4.68-2.51 9.28-5 13.77-7.33 11.18-5.92 25-13.13 35.43-18.75 23.64-12.78 44.47-24 68.09-36.44 38.15-20.08 69.43-36 101.19-52.4q-.43-4.16-.83-8.33c-7.88 4.24-15.64 8.39-23.18 12.38-27 14.26-41.06 22.06-70.37 37.62z"/><path d="m273.59 382.78c25-13.85 48-25.41 76.07-40.24 17.25-9.13 34.83-18.68 47.46-25.11 24.56-12.51 48.22-24.72 72.12-37.06-.07-2.4-.15-4.81-.2-7.21-27.33 14.74-50.92 27.49-79.69 43-12.89 6.93-20 11-36.56 19.76l-95.24 50.39c-16.18 8.56-22.44 11.42-36.26 18.76-53 28.18-101.93 52.72-156.67 80.92q13.62-2.53 27.24-4.67c48.39-26.07 96.11-52.66 140.78-76.82 12.96-7.08 28.07-14.59 40.95-21.72z"/><path d="m211.79 313.93c18.93-10.33 43.06-23.93 76.53-40.93 7.77-3.95 15.19-8.15 21.13-11.18 13.88-7.12 35.52-19 50.88-26.49 18.2-8.95 35.94-18.63 53.65-27.56q28.26-14.25 57.32-29.15.24-3.43.51-6.85c-38.11 21.06-77 42.41-115.95 63-41.91 22.17-92.7 49.47-139.93 74.46-17.66 9.34-29.16 15-45.36 23.57-52.57 27.82-102.7 53.02-152.29 78.2-.51 3.16-1 6.31-1.58 9.47 52.53-28.64 105.3-57.81 155.6-85.23 11.42-6.24 27.11-14.57 39.49-21.31z"/><path d="m195.84 334.9c11.38-6.05 31.1-16.26 44.21-23.39 29.11-15.84 47.74-25.27 89.07-47.12 18.44-9.75 28.38-14.85 48-25 28.13-14.53 60.88-31.27 93.41-47.89q.19-3.32.41-6.65c-36.1 19.79-72.82 39.57-107.88 58.64-15.85 8.62-31.71 17-43.38 23.37-29.85 16.26-71.26 37.1-100.29 52.65-12.84 6.88-28.47 15.5-44.53 23.56-51.4 25.8-104.86 53.06-158.75 80.93q-.88 5.09-1.83 10.17c56.11-30.43 108.57-59.81 165.48-90.31 6.24-3.39 10.89-6.2 16.08-8.96z"/><path d="m206.06 342.44c19.73-10.87 70.47-37.7 108.72-57.94 19.27-10.19 30.27-15.6 50.56-26.33 33.87-17.92 68.94-35.68 104.46-53.66.1-2.29.21-4.58.33-6.86-37.54 20.32-77.08 41.47-111 60.49-16.74 9.39-36.4 19.17-48.44 25.63-23.39 12.56-50 26.45-73.79 39-12.18 6.45-34 18.21-47.46 25.11-28.44 14.66-60.44 30.79-90.92 46.86-28.08 14.8-55.87 28.74-85 43.45q-1 5.09-2 10.18c52.54-28.78 105.57-58.13 158.09-86.67 11.48-6.2 25.16-13.03 36.45-19.26z"/><path d="m181.42 304.51c12.72-6.61 31.42-16.57 45.51-24.08 27.23-14.52 52.66-28.58 93.47-49 28.54-14.3 65.51-35.22 99.66-51.49 17.69-8.4 33.44-17 49.76-25.48l3.71-1.92q.38-3.87.79-7.74c-43.4 24.05-86.91 48.3-128.3 70.56-15.43 8.31-31.76 16.95-45 24.23-30 16.5-73.49 39-99.65 52.3-11.84 6-29.68 16-43.56 23-44.14 22.33-93.06 47-135.56 69.21q-.53 4-1.1 8c40.07-22.23 80.61-44.67 121.94-66.48 12.49-6.62 26-14.72 38.33-21.11z"/><path d="m116.91 352.43c12.75-6.74 24.74-13.11 37.53-20.27 9.86-5.54 24.49-13 36.23-19.6 26.95-15.09 105.45-56.07 136.85-72.4 8.94-4.65 17.41-9.39 28.93-15.31 14.43-7.42 35.17-17.76 51.71-26.52 20.43-10.81 42.25-21.59 64.15-32.57q.31-3.62.64-7.24c-40.74 22.16-81.62 43.82-124 67.81-12.36 7-31.8 16.52-47.13 24.94-25.27 13.89-52.63 27.85-77.69 41.1-11 5.8-34.14 18.26-47.78 25.28-47.81 24.61-102.49 51.65-155.91 79.35q-.64 4.36-1.32 8.72c9.32-5.1 18.62-10.11 27.77-14.95 24.46-12.98 46.63-25.96 70.02-38.34z"/><path d="m237.2 389.49c13.44-7.65 26.84-14.61 46-24.74 18.63-9.86 37.58-20.14 56.89-30.1 16.53-8.55 28.56-14.7 47-24.45 17-9 29-15.14 49.1-25.15 10.52-5.23 21.59-10.92 32.78-16.73 0-2.44-.09-4.89-.12-7.33l-3.57 2c-22.54 12.5-56.46 30.33-80.76 43.16-16 8.42-34.17 18.51-45.67 24.58-38.18 20.14-63 33.32-116 61.4-13.13 6.87-24.85 12.87-43.98 22.37-12.64 6.31-28.27 14.78-40.48 21-29.8 15.21-59 30-87.63 45.11-6.33 3.35-11.73 6.2-16.84 8.87a47.07 47.07 0 0 0 16.08-.73c1.83-.37 3.67-.71 5.5-1.07 50.74-27.91 94-50.61 145.29-78.93 11.21-6.2 25.4-12.99 36.41-19.26z"/><path d="m161.28 302.62c10-5.63 27.8-14.73 41-21.67 30.59-16.14 62.14-33.5 90.69-48 20.32-10.31 39.16-20.51 52.19-27.19 43.69-22.42 85.69-44 129.77-66.52.28-2.57.59-5.14.89-7.72-43.46 23.7-86.35 47.25-129.1 70.9-17.52 9.7-30.72 16.58-44.72 24.08-34.33 18.42-72.23 38.39-106.3 56.24-52.95 27.75-113.7 59.08-171.79 88.32q-.46 3.81-1 7.62c7.37-4.1 14.67-8.22 21.85-12.34 39.59-22.72 76.61-41.34 116.52-63.72z"/><path d="m223.07 384c13.46-7.54 29.64-15.63 43.23-22.87 28.15-15 51.29-27.14 89.72-47.47 36.35-19.23 74.63-38.67 112.77-58 0-2.36 0-4.72 0-7.08-14.93 8-29.44 15.83-43 23.17-27.08 14.7-57.83 31.07-80.27 43.31-31.13 17-65.2 34.84-97.19 51.42-60.78 31.48-143 73.39-206 106.06-7.37 3.83-14.9 7.57-22.26 11.26a27.14 27.14 0 0 0 10.57 5.05c53.65-29.28 108.2-59.51 157.82-86.11 11.54-6.18 25.89-13.83 34.61-18.74z"/><path d="m161.67 404.79c10.92-5.93 21.89-12.71 32.49-18s26.38-13.55 37.71-19.95c24.63-13.89 68.42-37.51 102.55-54.67 29.35-14.76 68.13-35.76 95.11-49.07 13.4-6.61 26.42-13.22 39.27-19.82 0-2.49 0-5 .07-7.47-30.11 16.72-60.85 33.7-92.29 49.88-13.67 7-30.83 16.62-47.61 25.61-26.74 14.33-48.75 26.1-75.09 39.73-52.63 27.22-86.46 45.72-136.72 71.08-34.08 17.2-70.21 35.93-104 53a24.83 24.83 0 0 0 5.46 7.46l7-3.75c46.14-24.37 93.52-50.82 136.05-74.03z"/><path d="m186.37 378.36c13.29-7.19 27.28-14.6 39.16-21.15 34.51-19 62.6-33.12 94.59-50 16.24-8.59 32.74-17.42 45.18-23.91 31.31-16.31 61.36-31.65 89.27-46 4.32-2.22 9.23-4.73 14.39-7.36 0-2.22.09-4.45.15-6.67q-5.73 3.09-11.29 6c-29 15.35-55.08 30-84 45.7-15.84 8.57-30.14 15.87-42.91 22.7-24.81 13.33-68.75 36.33-93.28 49.39-10.2 5.45-25 13.64-42.91 22.7-28.75 14.51-57.07 28.93-87 44.76-33.24 17.59-66.23 34-97.44 49.72a32.78 32.78 0 0 0 2 8.8c4.71-2.57 9.63-5.21 14.86-8 54.86-28.67 107.76-58.88 159.23-86.68z"/><path d="m230.75 341.92c23.06-12.79 56.91-29.79 86.46-45.74 9.06-4.89 30-15.53 49.41-26.14 34.94-19.12 69-35.22 102.43-52.53l.24-.12c.07-2.28.15-4.56.24-6.84q-4.77 2.56-9.41 5c-28.34 15-55.26 30.47-84.65 46-17.33 9.22-24.47 13.45-42.41 22.89l-99.79 52.8c-17.29 9.15-29.12 15-44.7 23.25-47.86 25.32-87.27 44.09-132.84 68.2-15.11 8-30 15.61-44.8 23.1a49.47 49.47 0 0 0 -.78 10.21c56.72-30.74 119.85-65.75 180.62-98.92 12.04-6.57 27.53-14.25 39.98-21.16z"/><path d="m287.34 469.45q7 .26 14 .62c34.72-18.47 54.38-29.32 86.61-45.8 30.79-15.75 54-28.13 75.27-39.39 4.63-2.45 9.2-4.89 13.73-7.32q-.58-4.57-1.12-9.13c-17.28 9.12-38.68 21.05-50.87 27.49-41.24 21.76-93.02 50.54-137.62 73.53z"/><path d="m89.23 65.77c19.23-10.67 48-25.82 71.92-38.47l-4.53-.42c-23.25 12.41-48.09 25.66-70.07 37-19.85 10.17-43.2 22.06-66.85 34.21q.36 2.38.71 4.76c9.21-4.96 18.59-9.85 27.71-14.92 12.18-6.79 28.3-15.06 41.11-22.16z"/><path d="m74.9 85.88c24.07-13.35 69-37.39 106.82-57l-4.78-.33c-30 16.15-45.28 24.14-75.78 40.07-17 8.9-33.36 17.55-46.33 24.1-11.44 5.78-22.52 11.47-33.4 17.11.19 1.37.39 2.75.57 4.12q7.3-3.93 14.55-7.8c11.32-6.02 26.82-13.88 38.35-20.27z"/><path d="m66 53.38c14.4-8.13 34.39-19.09 55.63-30.38l-4.89-.64-38.74 20.54c-17.59 9.31-25.42 13-41.13 21.34q-10.47 5.51-20.87 10.98c.27 1.52.51 3 .77 4.56q5.71-3 11.43-6c10.06-5.17 26.8-14.16 37.8-20.4z"/><path d="m72.76 99.12c12.94-7.25 31.73-16.65 45.84-24.25s27.91-15 41-21.67c11.5-5.88 27.69-14.65 43.57-23.07l-4.4-.21-5.1 2.75c-21.76 11.75-65.49 33.95-91.84 48.17-24.29 13.1-53.49 28.16-78.83 41.03.19 1.44.38 2.89.55 4.33l11.82-6.47c13.14-7.2 27.57-15.09 37.39-20.61z"/><path d="m82.74 56.66c19.37-10.25 39.62-20.89 59.35-31.25l-5.48-.59-2.26 1.18c-26.35 14.08-45.07 23.94-82.42 43.2l-34 17.54c.24 1.45.46 2.9.69 4.35q11.31-6.09 22.69-12.09c15.3-8.1 24.04-13.14 41.43-22.34z"/><path d="m97.77 98.43c14.95-8.18 26.29-13.93 44-23.71 19.33-10.63 36.23-19.09 50.59-26.33 7.65-3.86 20.51-10.89 32.75-17.45l-4.68-.14c-6.24 3.38-12.16 6.6-18.06 9.78-33.62 18.17-70.3 37.54-104 55-12.9 6.69-25.92 13.48-42.75 22.21-10 5.18-20.41 10.54-31.12 16 .15 1.27.31 2.53.45 3.8 11.44-6.22 22.81-12.36 34-18.26 9.79-5.1 26.59-14.2 38.82-20.9z"/><path d="m79.51 145.71c11.07-6.13 28.11-15.14 41.43-22.35 29.07-15.69 60.58-33 91.5-48.82 30.17-15.42 58.72-30 87-44.52-2.74.14-5.49.25-8.23.36q-25.47 13.81-51.51 28.06c-13.26 7.28-23.1 12.65-39.16 21.14-30.91 16.35-68.76 36.23-93 49.18-25.65 13.75-52.67 27.71-79.54 41.35.09 1.11.19 2.22.27 3.33l13-7.12c12.43-6.76 24.94-13.26 38.24-20.61z"/><path d="m114.75 139.18c15.85-8.5 30.3-16.45 51.84-27.84 18.48-9.77 41.69-22.06 54.94-29.07 26.33-13.91 52.65-26.85 77.23-39.61 7.24-3.78 18.24-9.42 27.15-13.95l.82-.41c-2.83.22-5.67.41-8.5.61q-27.95 15.27-56.43 30.39c-28 14.79-66.48 35.11-93.12 49.69-49.55 27.11-94.6 49.6-139.79 72.57.1 1.4.2 2.79.29 4.19q23.25-12.65 46.09-25.25c11.88-6.59 26.83-14.5 39.48-21.32z"/><path d="m94.31 124.92c15.78-8.77 33.35-17.67 49.08-26 14.16-7.47 28.32-15.28 42.58-22.53 17.72-9 37.46-19.72 50.56-26.33 12.07-6.06 24.61-12.48 37.47-19.06-2.47.06-4.95.1-7.42.14-17.85 9.58-35.73 19.3-54.93 30.08-21.13 11.88-64.26 34.24-91.84 48.18-12.37 6.25-30.64 16.65-45.83 24.25q-23.52 11.75-47 23.77c.14 1.47.28 2.94.41 4.42l26.61-14.77c13.14-7.26 28.75-15.73 40.31-22.15z"/><path d="m90.1 28.11c4.74-2.61 9.32-5.1 13.84-7.54l-6-.89c-19 9.93-33.8 17.57-56.55 29.6-11 5.8-18.39 9.52-27.54 14.24.3 1.59.58 3.18.87 4.78 10.95-6 22.33-12.1 31.82-17.15 14.54-7.72 29.46-15.28 43.56-23.04z"/><path d="m87 116.66c23.19-13 74-39.89 113.92-60.69 14.08-7.35 26.39-13.84 47.42-24.73h-5.39l-2.43 1.3c-11.52 6.11-32.06 17.32-47.91 25.75-27 14.38-45.91 24.38-74.11 39.21-16.72 8.8-34.93 18.45-47.63 24.78-15.66 7.81-30.56 15.39-45.12 22.9.16 1.49.33 3 .47 4.47 7.86-4.24 15.9-8.6 24.26-13.24 9.91-5.5 24.71-13.12 36.52-19.75z"/><path d="m134.06 141.07c29.32-15.46 61.59-33.68 93.94-49.7 31.13-15.37 71.29-36.37 105-53.89q11.41-5.94 23-11.87-5.67.6-11.33 1.14c-25.8 14-52.58 28.59-81.28 44.23-10.56 5.76-29.56 16.14-47 25.26-30.17 15.83-50.76 27.3-79 41.79-37.44 19.21-73 37.51-107.82 55.4.08 1.37.16 2.75.23 4.12 13.68-7.33 27.75-14.89 42.46-23 20.58-11.24 42.57-23.31 61.8-33.48z"/><path d="m86.31 17.85c-2.26-.37-4.53-.76-6.79-1.15-19 9.84-37.75 19.47-49.33 25.55-5.95 3.12-12.35 6.48-18.56 9.75.33 1.66.65 3.33 1 5 9.74-5.34 22.55-12 32.48-17.21 11.55-6.09 25.69-13.65 41.2-21.94z"/><path d="m298.89 127.84c-7.41 4-17.41 9.22-23.08 12.21-11.57 6.12-28.83 16.11-46 24.76 15.11-7.17 23.42-11.55 40.33-20.5 48.91-25.88 88.92-45.55 135.76-69.74 27.85-14.38 55.11-28 83.3-42.25a29.9 29.9 0 0 0 -2.49-7.6c-12.71 7.16-25.61 14.38-37.22 20.53-49.17 26.01-101.9 56.32-150.6 82.59z"/><path d="m281.32 149.69c-11.73 6.31-29.51 16.31-46.32 24.92 14.6-6.88 23.94-11.84 41-20.86 47.34-25 91.94-46.54 134.15-68.87 14.62-7.74 29.45-15.3 44.85-22.88 11.76-5.81 23.1-11.72 34.62-17.7a44.76 44.76 0 0 0 .11-8.13c-11.9 6.45-24 12.91-35.72 19.26-57.54 31.19-113.57 62.32-172.69 94.26z"/><path d="m209.71 150.38c15.91-7.53 24.93-12.55 40-20.33 47.08-24.28 93.35-47.76 137.71-70.77 30.11-15.62 59.24-30.51 88.79-45.54a29.88 29.88 0 0 0 -9.52-3.14c-70.39 38.83-138.49 75.94-208.22 114-12.97 7.06-32.03 16.73-48.76 25.78z"/><path d="m280.32 162.75c-13.73 7.84-31.93 17.31-49.24 26.46 16-7.77 24.8-12.28 40-20.32 48.34-25.57 92.4-48.08 136.24-70.41 26.91-13.71 53.41-27.36 79.9-40.65.5-2.61 1-5.22 1.52-7.82.09-.42.15-.83.23-1.25-56.81 30.89-108.42 59.42-165.59 90.79-11.93 6.55-30.89 16.24-43.06 23.2z"/><path d="m269.66 130.79c-10 5.38-28.47 15.81-45 24.22 14.75-6.94 24.05-11.89 40.65-20.67s28.45-14.87 46.34-24.09c27.52-14.2 58.09-29.07 87.48-44.61 27.21-14.4 56.67-28.77 86.12-43.59a24.3 24.3 0 0 0 -5.25-5.8c-42.61 23.5-84.6 45.75-123.42 67.29-29.08 16.16-57.72 31.52-86.92 47.25z"/><path d="m51.28 11.5-1.28-.25a55 55 0 0 0 -7.29-1c-6.33 3.27-12.29 6.38-17.53 9.18l-12.54 6.64a31.26 31.26 0 0 0 -2.11 7.64c6-3.26 12.17-6.59 17.55-9.57 8.44-4.68 15.2-8.36 23.2-12.64z"/><path d="m68.81 14.82c-2.57-.47-5.14-.93-7.71-1.42-8.9 4.74-17.7 9.32-30.25 16q-10.34 5.43-20.72 10.89a49.71 49.71 0 0 0 .45 5.71l21.88-12c12.45-6.89 24.54-12.85 36.35-19.18z"/><path d="m209.38 138.38c10.31-5.35 19.11-9.64 32.55-16.75 21.67-11.47 34-18.3 55.43-28.91 49.94-24.72 104.74-53.25 161.86-82.57a53.19 53.19 0 0 0 -9.22 1.1q-6 1.2-12 2.32c-63.71 35-130.29 71.52-192.55 105.35-10.61 5.78-23.06 12.5-36.07 19.46z"/><path d="m23.27 14 1.24-.66q-.63.35-1.24.66z"/><path d="m422.05 483.57q8.34 1.44 16.69 3c16.18-8.34 31.27-16.28 43.34-22.68l7.79-4.14a52.82 52.82 0 0 0 -1.12-9.75c-.08-.39-.15-.78-.23-1.17-11.35 6.06-22.08 11.77-29.81 15.7q-18.5 9.47-36.66 19.04z"/><path d="m169 222.89c13.46-7.39 22.13-12 38.83-21-36.44 18.82-65.43 33.67-95.11 49.07-29.1 15.09-55.05 28.3-82.44 42.16-.08 1.76-.15 3.53-.23 5.29 23.3-12.53 46.7-25.12 71-38.78 18.95-10.63 42.54-22.8 67.95-36.74z"/><path d="m155.16 155c31.34-17 45.68-24.17 89.72-47.46 14.84-7.85 33.82-17.61 52-26.69 17.46-8.71 34.12-18.07 52.38-26.85 18.55-8.94 36.05-18.25 53.33-27.39q9.56-5.06 19.44-10.15-8.79 1.54-17.57 2.84c-55.08 30.18-111.79 61.21-166.1 90.84-13.85 7.56-32.17 17-48.76 25.8-16.93 9-36.84 19.65-49.73 26.31-33.93 17.54-72 37.25-109.13 56.24 0 1.23.08 2.45.11 3.68 27.21-14.95 54.18-29.71 80.42-44 11.95-6.44 29.89-15.59 43.89-23.17z"/><path d="m106.8 243.69c17.48-9.62 29.6-16.09 46-24.75 17.15-9.07 26.48-14.36 41.44-22.33-47.67 24.39-96.74 50.1-138.38 71.1q-12.48 6.29-25.09 12.74c-.05 1.75-.1 3.5-.16 5.25q18.46-10.1 37.21-20.57c10.91-6.13 28.18-15.49 38.98-21.44z"/><path d="m230.14 177.18c-1.2.9-3.68 1.4-4.05 2.56 2.71-1.71 6.72-3 8.6-5z"/><path d="m150.57 182.5c13.21-7 24.52-13.43 39.49-21.31-17.5 8.83-37.24 19-51.05 26.18-12.24 6.35-30.75 16.71-43.24 22.87-22 10.85-43.46 21.67-64.56 32.42v4.11c24.25-13.27 48.6-26.43 73.68-39.7 13.65-7.22 25.21-13.68 45.68-24.57z"/><path d="m98.71 222.89c17-9.25 29.48-16 46-24.75 17.05-9 25.18-13.69 40.79-22-54.95 28.72-104.27 53.56-154.28 79.15v4.86c9.22-5 18.5-10.15 27.89-15.46 11.89-6.69 27.89-15.47 39.6-21.8z"/><path d="m147.61 209.15c17.45-9.23 25-13.62 41.43-22.35-16.32 7.82-34.45 17.84-47 24.44-37.6 19.76-74.36 38.28-110.97 56.76 0 1.58-.05 3.16-.09 4.75q15.5-8.45 31-17c25.97-14.49 52.68-29.17 85.63-46.6z"/><path d="m109.15 192.29c12.35-6.69 29.5-15.72 43.06-23.2 13.88-7.68 27.6-14.75 43-23.15-18.57 9.87-37.39 19.73-53.08 27.66-35 17.66-73.28 37.77-111.07 57.33 0 1.12 0 2.24.06 3.35 12.23-6.65 24.35-13.18 36.28-19.5 13.6-7.2 27.13-14.58 41.75-22.49z"/><path d="m119.41 161.37c12.53-6.68 34.87-18.25 50.06-26.48 15.82-8.56 33.27-17.6 51-27 18.88-10 33-17 49.58-25.81 33.42-17.67 63.27-33.18 95-48.56q12-5.81 23.71-11.89-7.84 1.09-15.69 2.05c-32.37 17.64-65.85 35.86-99 54.2-14.65 8.12-33.74 18.35-47.07 25.74-14.12 7.83-28.79 15.23-45.18 23.9-17.87 9.45-30.36 15.34-44.06 22.89-33.94 18.75-70.6 37.42-107.47 56 .05 1.22.11 2.44.16 3.66 15.82-8.56 31.55-17.13 47.05-25.7 12.2-6.72 29.87-16.58 41.91-23z"/><path d="m420.33 483.27c19.08-10 37.11-20.12 58.67-30.72 3.26-1.6 6.36-3.19 9.32-4.76-.68-3.44-1.36-6.89-2-10.33-27.24 14.49-47.44 25.32-81.25 43.33q7.63 1.21 15.26 2.48z"/><path d="m219.77 157.59c-1.19.9-3.68 1.41-4 2.57 2.71-1.71 6.72-3 8.6-5z"/><path d="m450 488.75a55.26 55.26 0 0 0 7 1l1.7-.92c7.16-3.88 17.41-9.28 28.86-15.31a34.5 34.5 0 0 0 2.34-12.93c-16.33 8.58-33 17.24-49.7 26.26 3.24.62 6.52 1.24 9.8 1.9z"/><path d="m221.51 194.7c2.16-1.42 5.65-2.43 7-4.11-2.18 1.41-5.67 2.41-7 4.11z"/><path d="m218.74 195.75c-2.16 1.42-5.64 2.43-7 4.11 2.18-1.42 5.66-2.43 7-4.11z"/></g><path d="m42.71 10.24c-7.07-.49-13.21.63-18.2 3.13l-1.24.63a24.66 24.66 0 0 0 -10.63 12l12.53-6.66c5.25-2.73 11.21-5.83 17.54-9.1z" fill="url(#b)"/><path d="m61.1 13.4q-4.91-.93-9.82-1.9c-8 4.28-14.76 8-23.19 12.64-5.38 3-11.5 6.31-17.55 9.57a40 40 0 0 0 -.41 6.58q10.39-5.46 20.72-10.93c12.55-6.64 21.35-11.22 30.25-15.96z" fill="url(#c)"/><path d="m79.52 16.7q-5.35-.91-10.71-1.88c-11.81 6.33-23.9 12.29-36.36 19.13l-21.87 12.05c.18 1.32.39 2.67.67 4 .13.65.25 1.31.38 2 6.21-3.24 12.61-6.59 18.56-9.71 11.58-6.12 30.3-15.75 49.33-25.59z" fill="url(#d)"/><path d="m97.94 19.68q-5.82-.88-11.63-1.83c-15.51 8.29-29.65 15.85-41.2 21.94-9.93 5.21-22.74 11.87-32.51 17.21.42 2.19.85 4.38 1.26 6.56 9.14-4.76 16.58-8.48 27.53-14.28 22.75-12.04 37.56-19.67 56.55-29.6z" fill="url(#e)"/><path d="m78 42.9 38.82-20.54q-6.41-.85-12.83-1.79c-4.57 2.43-9.15 4.93-13.89 7.54-14.1 7.77-29 15.32-43.56 23-9.5 5-20.88 11.16-31.82 17.15.42 2.31.85 4.62 1.25 6.93q10.43-5.47 20.85-11c15.72-8.27 23.55-11.99 41.18-21.29z" fill="url(#f)"/><path d="m134.35 26 2.26-1.19q-7.48-.81-14.95-1.81c-21.24 11.29-41.23 22.25-55.66 30.38-11 6.24-27.74 15.23-37.83 20.44q-5.72 3-11.43 6c.39 2.32.8 4.64 1.17 7l34-17.54c37.37-19.34 56.09-29.2 82.44-43.28z" fill="url(#g)"/><path d="m156.62 26.87q-7.26-.68-14.53-1.46c-19.73 10.36-40 21-59.35 31.25-17.39 9.2-26.13 14.24-41.43 22.34q-11.38 6-22.7 12.09.56 3.5 1.09 7c23.65-12.14 47-24 66.84-34.24 21.99-11.32 46.82-24.57 70.08-36.98z" fill="url(#h)"/><path d="m193.62 32.68 5.1-2.75q-8.5-.44-17-1c-37.82 19.56-82.72 43.6-106.82 56.95-11.53 6.39-27 14.25-38.36 20.29q-7.24 3.83-14.54 7.83.54 3.95 1 7.9c25.31-12.88 54.51-27.93 78.75-41 26.38-14.28 70.12-36.47 91.87-48.22z" fill="url(#i)"/><path d="m98.36 95.61c33.72-17.49 70.4-36.86 104-55 5.89-3.18 11.82-6.4 18.06-9.78q-8.66-.26-17.31-.66c-15.88 8.39-32.11 17.15-43.56 23.04-13 6.69-26.79 14.06-41 21.67s-32.89 17-45.84 24.25c-9.82 5.51-24.25 13.41-37.35 20.61l-11.78 6.46c.32 2.55.61 5.1.91 7.65 10.71-5.5 21.12-10.86 31.12-16 16.83-8.76 29.85-15.55 42.75-22.24z" fill="url(#j)"/><path d="m118.5 97.5c28.21-14.84 47.09-24.83 74.11-39.21 15.85-8.43 36.43-19.63 47.93-25.78l2.43-1.3c-6 0-11.91-.12-17.86-.27-12.23 6.55-25.11 13.59-32.75 17.45-14.36 7.24-31.26 15.7-50.55 26.33-17.74 9.78-29.09 15.53-44 23.71-12.23 6.7-29 15.8-38.84 21-11.18 5.9-22.55 12-34 18.26.28 2.51.54 5 .8 7.53 14.57-7.52 29.47-15.09 45.12-22.9 12.67-6.37 30.88-16.02 47.61-24.82z" fill="url(#k)"/><path d="m119.78 109.36c27.57-13.94 70.71-36.3 91.84-48.18 19.2-10.78 37.08-20.5 54.93-30.08q-9.09.15-18.17.14c-21.04 10.88-33.38 17.38-47.43 24.76-39.95 20.76-90.74 47.66-113.95 60.66-11.83 6.63-26.63 14.26-36.56 19.76-8.35 4.63-16.39 9-24.26 13.24.26 2.58.49 5.15.73 7.73q23.47-12 47-23.77c15.23-7.62 33.5-18.01 45.87-24.26z" fill="url(#l)"/><path d="m200.55 79.59c16.06-8.49 25.89-13.86 39.16-21.14q26-14.28 51.52-28.06-8.63.36-17.26.57c-12.83 6.62-25.37 13-37.43 19.13-13.11 6.61-32.84 17.32-50.54 26.33-14.27 7.25-28.43 15.06-42.58 22.53-15.73 8.3-33.3 17.2-49.08 26-11.59 6.39-27.2 14.86-40.34 22.12l-26.64 14.73c.24 2.77.46 5.54.68 8.32 26.83-13.65 53.85-27.6 79.54-41.34 24.21-12.97 62.06-32.84 92.97-49.19z" fill="url(#m)"/><path d="m261.8 59.3q28.55-15.1 56.43-30.39-9.38.64-18.77 1.12c-28.3 14.49-56.84 29.1-87 44.52-30.92 15.79-62.43 33.13-91.5 48.82-13.32 7.2-30.37 16.22-41.43 22.35-13.3 7.36-25.81 13.85-38.18 20.62l-13 7.12c.21 2.7.39 5.41.58 8.11 45.19-23 90.24-45.47 139.79-72.57 26.6-14.6 65.11-34.91 93.08-49.7z" fill="url(#n)"/><path d="m216.44 96.24c17.4-9.12 36.4-19.5 47-25.26 28.7-15.64 55.48-30.19 81.28-44.23q-9 .85-17.95 1.55l-.82.41c-8.95 4.53-19.95 10.17-27.19 13.95-24.58 12.76-50.9 25.7-77.23 39.61-13.25 7-36.46 19.3-54.94 29.07-21.53 11.39-36 19.34-51.84 27.84-12.65 6.79-27.6 14.73-39.48 21.31q-22.78 12.6-46.09 25.25c.16 2.56.31 5.13.45 7.69 34.8-17.89 70.37-36.18 107.82-55.43 28.23-14.45 48.82-25.93 78.99-41.76z" fill="url(#o)"/><path d="m181.81 127.52c16.39-8.67 31.06-16.07 45.18-23.9 13.33-7.38 32.43-17.63 47.12-25.75 33.1-18.34 66.59-36.56 99-54.2q-8.53 1-17.06 1.94-11.54 5.93-23 11.87c-33.76 17.52-73.92 38.52-105.05 53.89-32.35 16-64.62 34.24-93.94 49.7-19.24 10.17-41.22 22.24-61.74 33.51-14.71 8.08-28.78 15.64-42.46 23q.23 4.44.42 8.88c36.87-18.6 73.53-37.28 107.47-56 13.7-7.6 26.19-13.46 44.06-22.94z" fill="url(#p)"/><path d="m189.59 135.95c16.6-8.78 34.92-18.24 48.76-25.8 54.31-29.64 111-60.67 166.1-90.84q-7.85 1.21-15.7 2.31-11.77 6-23.71 11.89c-31.69 15.38-61.54 30.89-95 48.56-16.58 8.77-30.7 15.83-49.58 25.81-17.77 9.4-35.22 18.44-51 27-15.19 8.23-37.53 19.8-50.06 26.48-12 6.43-29.72 16.28-41.91 23-15.49 8.58-31.22 17.15-47.05 25.74.11 2.8.2 5.6.29 8.4 37.14-19 75.19-38.69 109.13-56.24 12.89-6.67 32.8-17.36 49.73-26.31z" fill="url(#q)"/><path d="m195.2 145.95 1.05-.57c4.86-2.65 9.11-4.9 13.14-7 13-7 25.45-13.68 36.11-19.46 62.25-33.83 128.84-70.38 192.5-105.35q-8 1.51-16 2.87-9.86 5.09-19.44 10.15c-17.25 9.14-34.75 18.41-53.3 27.41-18.26 8.78-34.92 18.14-52.36 26.84-18.21 9.09-37.19 18.84-52 26.69-44 23.3-58.37 30.49-89.72 47.46-14 7.58-31.94 16.73-43.88 23.22-26.25 14.25-53.22 29-80.42 44q.12 4.38.2 8.77c37.79-19.56 76.11-39.68 111.07-57.33 15.66-7.98 34.47-17.83 53.05-27.7z" fill="url(#r)"/><path d="m180.5 240.63c28.45-14.4 73.66-38.61 101.09-53.49 12.51-6.77 30.67-16.31 44.69-24.06 53.72-29.66 105.61-57.37 157.41-85.88q.43-2.51.88-5c-53.34 27.34-105.25 53.67-153.19 77.76-19.56 9.83-34.58 17.88-54.46 28.39-19.6 10.37-30.18 15.42-48 25-24.15 13-38.86 20.59-70.37 37.65-17 9.17-38.08 21-58.49 31.78-22.92 12.13-46.68 25.1-70.73 38.39-.16 2.62-.34 5.23-.52 7.85 36.76-18.65 73-37.16 106.61-54.91 13.38-7.11 32.98-17.35 45.08-23.48z" fill="url(#s)"/><path d="m189.75 248.7c6.55-3.57 11.9-6.39 19.51-10.32 28-14.48 54.83-29.7 72.64-38.85 14.11-7.26 33-17.69 46.64-25.09 51.15-27.86 103.23-56.57 152.95-83.94q.43-2.68.87-5.36c-13 6.62-25.82 13.21-38.3 19.82-17.82 9.43-36.48 19.65-55.28 28.41-27.13 12.63-51.59 27.06-79.19 40.63-13 6.4-39.17 20.31-53.48 27.88-20.16 10.67-39.92 20.49-59.48 31.47-13.75 7.71-32.8 17.29-44.69 24.06-13.82 7.86-27.26 14.83-41.44 22.33-27.52 14.56-54.85 29.83-82 45-.17 2.32-.37 4.63-.56 7 36.89-18.74 76.54-39.74 115.48-58.95 14.2-6.99 33.15-16.93 46.33-24.09z" fill="url(#t)"/><path d="m201.76 254.88c26.3-13.74 53.29-28.09 78.34-41.45 31.61-16.84 66.68-35.55 98-53.09s66.53-36.95 101.29-55.93c.27-1.86.54-3.72.82-5.58-57 28.73-108.19 55.32-169.64 87.2-14 7.3-32.81 17-50.55 26.34-18.08 9.57-29.52 15.35-43.88 23.22-15.16 8.3-36 19.11-49.24 26.46-43.14 23.95-93.2 50.55-139.51 75.74-.19 2.19-.41 4.38-.62 6.57 41.77-21.14 84-42.24 127.35-64.7 12.26-6.35 35.59-18.47 47.64-24.78z" fill="url(#u)"/><path d="m202.22 266.76 83.87-44.37c16.89-8.93 32.61-17.67 47-25.26 32.32-17.1 64.79-34.21 94.72-51.37 16-9.15 32.69-18.45 49.72-27.79.25-1.87.48-3.74.74-5.62-11.17 5.68-22.19 11.36-32.91 17-43.83 23.19-87.51 44.17-135 68.89-9.16 4.76-15.33 8.11-23.73 12.56-39.26 20.77-91.69 48.38-117.5 62.58-14.05 7.73-25.94 14.14-38.51 20.79-35.28 18.67-69.88 37.75-104.49 57-.22 2.22-.47 4.44-.71 6.66 42.52-21.5 85.35-43.14 128.85-66.15 13.96-7.36 28.53-14.68 47.95-24.92z" fill="url(#v)"/><path d="m302 226.5c14-7.51 27.21-14.38 44.69-24 42.75-23.66 85.65-47.2 129.1-70.9.22-1.88.44-3.77.67-5.65-35 17.63-69.57 34.91-105.32 53.57-24.19 12.63-52.56 27.06-76.88 40.26-26.67 14.47-84.53 44-107 56.58-13.42 7.56-30.55 16.37-39.81 21.48-15.18 8.39-24.82 13.55-36.89 19.93-29.89 15.81-57.95 31.48-86 47.13q-.36 3.1-.74 6.2c58.18-29.28 118.93-60.61 171.88-88.36 34.07-17.85 71.96-37.82 106.3-56.24z" fill="url(#w)"/><path d="m201.36 291.87c26.16-13.3 69.64-35.8 99.65-52.3 13.24-7.28 29.58-15.92 45-24.23 41.38-22.26 84.9-46.5 128.3-70.56.19-1.84.38-3.68.59-5.52-44.08 22.56-86.08 44.1-129.77 66.52-13 6.68-31.87 16.88-52.19 27.19-28.55 14.48-60.11 31.84-90.69 48-13.16 6.94-30.91 16-41 21.67-39.92 22.37-76.93 41-116.48 63.72-7.17 4.12-14.48 8.24-21.85 12.34q-.35 2.72-.71 5.44c42.5-22.18 91.42-46.88 135.56-69.21 13.91-7.05 31.75-17.05 43.59-23.06z" fill="url(#x)"/><path d="m224.09 292.37c25.06-13.26 52.43-27.21 77.69-41.1 15.33-8.42 34.77-17.94 47.13-24.94 42.41-24 83.29-45.65 124-67.81q.27-3 .56-6l-3.71 1.92c-16.31 8.44-32.07 17.08-49.76 25.48-34.15 16.27-71.12 37.19-99.66 51.49-40.81 20.45-66.23 34.52-93.47 49-14.09 7.51-32.79 17.47-45.51 24.08-12.32 6.39-25.84 14.52-38.34 21.11-41.33 21.81-81.87 44.25-121.94 66.48q-.35 2.43-.7 4.86c53.42-27.66 108.1-54.7 155.87-79.31 13.7-6.99 36.87-19.45 47.84-25.26z" fill="url(#y)"/><path d="m215.95 309.22c47.23-25 98-52.29 139.93-74.46 38.91-20.59 77.84-41.93 115.95-63q.23-3 .49-6c-21.89 11-43.71 21.76-64.15 32.57-16.55 8.75-37.28 19.1-51.71 26.52-11.52 5.92-20 10.65-28.93 15.31-31.4 16.34-109.9 57.31-136.85 72.4-11.74 6.57-26.37 14.06-36.23 19.6-12.79 7.16-24.79 13.53-37.53 20.27-23.39 12.37-45.56 25.35-70 38.3-9.15 4.84-18.46 9.85-27.77 14.95-.28 1.77-.55 3.55-.83 5.32 49.59-25.18 99.7-50.38 152.3-78.21 16.17-8.57 27.67-14.22 45.33-23.57z" fill="url(#z)"/><path d="m219.33 319.55c29-15.55 70.45-36.38 100.29-52.65 11.67-6.36 27.53-14.75 43.38-23.37 35.05-19.07 71.78-38.85 107.88-58.64q.2-3.14.43-6.28-29 14.84-57.32 29.15c-17.72 8.93-35.46 18.62-53.65 27.56-15.36 7.54-37 19.38-50.88 26.49-5.94 3-13.36 7.23-21.13 11.18-33.48 17-57.6 30.58-76.54 40.92-12.37 6.73-28.06 15.08-39.49 21.31-50.3 27.44-103.07 56.61-155.6 85.25-.2 1.17-.39 2.34-.59 3.51 53.89-27.85 107.35-55.11 158.69-80.87 16.06-8.11 31.69-16.68 44.53-23.56z" fill="url(#A)"/><path d="m189.4 347.91c13.42-6.9 35.28-18.66 47.46-25.11 23.77-12.59 50.4-26.48 73.79-39 12-6.45 31.7-16.23 48.44-25.63 34-19 73.5-40.18 111-60.49q.16-3 .34-6.1c-32.53 16.62-65.27 33.36-93.41 47.89-19.57 10.1-29.52 15.2-48 25-41.33 21.85-60 31.28-89.07 47.12-13.11 7.13-32.82 17.33-44.21 23.39-5.19 2.76-9.81 5.56-16.08 8.92-56.91 30.5-109.37 59.89-165.48 90.31-.25 1.35-.49 2.7-.74 4 29.12-14.71 56.9-28.65 85-43.45 30.56-16.09 62.56-32.22 90.96-46.85z" fill="url(#B)"/><path d="m188.57 360.48c15.59-8.25 27.42-14.1 44.7-23.25l99.79-52.8c17.9-9.47 25.08-13.67 42.41-22.85 29.39-15.56 56.31-31 84.65-46q4.63-2.45 9.41-5c.08-2 .17-4 .26-6-35.52 18-70.58 35.74-104.46 53.66-20.29 10.73-31.29 16.14-50.56 26.33-38.26 20.24-89 47.07-108.72 57.94-11.3 6.23-25 13.06-36.4 19.26-52.52 28.47-105.55 57.82-158.09 86.61-.11.54-.21 1.08-.31 1.62s-.22 1.19-.33 1.78c14.79-7.48 29.69-15.1 44.8-23.1 45.58-24.11 84.99-42.88 132.85-68.2z" fill="url(#C)"/><path d="m194.73 369.76c17.91-9.06 32.7-17.25 42.91-22.7 24.52-13.06 68.46-36.06 93.28-49.35 12.77-6.83 27.07-14.13 42.91-22.7 28.92-15.65 55-30.35 84-45.7q5.55-2.93 11.29-6c.05-2 .12-3.93.18-5.89l-.24.12c-33.42 17.31-67.49 33.4-102.43 52.53-19.4 10.61-40.36 21.25-49.41 26.14-29.55 16-63.4 33-86.46 45.74-12.46 6.91-27.95 14.59-40 21.16-60.76 33.14-123.89 68.15-180.61 98.89q0 1.16.14 2.28c31.22-15.69 64.21-32.14 97.44-49.72 29.92-15.86 58.27-30.29 87-44.8z" fill="url(#D)"/><path d="m253.87 351c26.34-13.63 48.35-25.39 75.09-39.73 16.78-9 33.94-18.57 47.61-25.61 31.45-16.18 62.19-33.16 92.29-49.88 0-2 .07-3.9.11-5.85-5.17 2.64-10.08 5.14-14.39 7.36-27.91 14.3-58 29.65-89.27 46-12.45 6.49-28.94 15.31-45.18 23.91-32 16.92-60.08 31-94.59 50-11.88 6.55-25.87 14-39.16 21.15-51.48 27.81-104.38 58.02-159.23 86.75-5.23 2.74-10.15 5.38-14.86 8q.41 1.06.89 2.06c33.75-17.09 69.88-35.83 104-53 50.22-25.43 84.06-43.94 136.69-71.16z" fill="url(#E)"/><path d="m248.32 366.48c32-16.58 66.07-34.46 97.19-51.42 22.43-12.24 53.19-28.61 80.27-43.31 13.54-7.34 28.05-15.14 43-23.17 0-1.77 0-3.54 0-5.31-12.85 6.61-25.87 13.21-39.27 19.82-27 13.31-65.76 34.31-95.11 49.07-34.13 17.16-77.92 40.78-102.55 54.67-11.33 6.4-27.19 14.68-37.71 19.95s-21.57 12.09-32.49 18c-42.53 23.16-89.91 49.65-136 74l-7 3.75q.69.64 1.42 1.23c7.36-3.69 14.89-7.44 22.26-11.26 62.97-32.63 145.21-74.5 205.99-106.02z" fill="url(#F)"/><path d="m138.39 435.51c12.21-6.23 27.83-14.7 40.48-21 19.13-9.51 30.85-15.51 43.9-22.4 53.06-28.07 77.87-41.25 116-61.4 11.5-6.07 29.71-16.16 45.67-24.58 24.3-12.82 58.22-30.66 80.76-43.16l3.57-2c0-1.78 0-3.57 0-5.35-38.14 19.35-76.42 38.79-112.77 58-38.43 20.33-61.57 32.43-89.72 47.47-13.59 7.24-29.78 15.34-43.23 22.87-8.72 4.89-23.09 12.54-34.61 18.73-49.62 26.6-104.17 56.84-157.82 86.11 1.06.26 2.15.47 3.28.63 5.11-2.67 10.51-5.52 16.84-8.87 28.61-15.07 57.85-29.85 87.65-45.05z" fill="url(#G)"/><path d="m257.54 386.26 95.24-50.39c16.54-8.75 23.67-12.83 36.56-19.76 28.77-15.47 52.35-28.22 79.69-43 0-1.61-.06-3.21-.09-4.82-11.19 5.81-22.27 11.5-32.78 16.73-20.1 10-32.08 16.14-49.1 25.15-18.42 9.74-30.45 15.9-47 24.45-19.3 10-38.26 20.24-56.89 30.1-19.15 10.13-32.55 17.09-46 24.74-11 6.27-25.17 13.06-36.41 19.26-51.26 28.32-94.55 51-145.29 78.93q4.56-.89 9.11-1.74c54.75-28.2 103.64-52.74 156.67-80.92 13.85-7.31 20.11-10.17 36.29-18.73z" fill="url(#H)"/><path d="m238.17 408.62c33-17.48 46.6-24.84 74.44-39.38s42.34-22.4 77.68-41.1c27.29-14.44 53.23-28.44 79.1-42.51-.06-1.75-.11-3.51-.16-5.26-23.9 12.34-47.56 24.56-72.12 37.06-12.63 6.43-30.2 16-47.46 25.11-28 14.83-51.07 26.4-76.07 40.24-12.88 7.13-28 14.64-41 21.67-44.58 24.16-92.33 50.75-140.72 76.82 2.74-.43 5.47-.87 8.21-1.28 31.67-16.11 65.47-33.35 96.65-49.85 15.69-8.3 24.6-12.6 41.45-21.52z" fill="url(#I)"/><path d="m235.71 422.05c45.45-22.79 127.2-67.06 166.75-88.22 13.54-7.24 27.75-14.9 38.84-21 9.45-5.18 19-10.38 28.59-15.58-.08-1.6-.14-3.19-.21-4.79-28.42 14.54-53.21 28.54-84.44 44.21-34.09 17.09-109.8 57.63-146.24 77.39-9.77 5.29-23.41 12.37-32.5 17.2-28.31 15-56.39 30.15-85 45.77q5.28-.68 10.56-1.3c21.44-11.12 44.08-22.46 63.71-32.52 10.75-5.54 28.82-15.59 39.94-21.16z" fill="url(#J)"/><path d="m221.86 441.49c20.14-10.66 46.28-23.77 60.3-31.49 20.14-11.07 50.09-26.2 70.86-37.49 12-6.5 19.83-10.49 35.43-18.75 14.54-7.69 28.94-15.47 39.48-21.31 13.89-7.69 28.19-15.41 42.58-23.12-.08-1.41-.16-2.81-.24-4.22-23.42 12.1-45.86 23.76-67.52 34.8-16.36 8.35-33 17.59-50.06 26.49-23.59 12.26-49.3 25.65-71.83 38-12.45 6.84-26.39 13.69-39.65 21-9.13 5-17.94 9.92-29.08 15.81-20.06 10.61-39.86 21.42-59.76 32.32 3.3-.32 6.59-.64 9.89-.93l3.51-1.85c17.7-9.37 42.34-21.97 56.09-29.26z" fill="url(#K)"/><path d="m391.55 358.82c-21 10.75-63.16 33-98 51.44-19 10.06-29.46 15.61-42.74 23-9.78 5.47-22.1 11.47-32.51 17.2-12.29 6.76-25.11 13.68-38.24 20.73q4.78-.33 9.56-.63c18.08-9.37 36.61-19 55-28.58 8.46-4.43 21.24-10.82 36.26-18.76 41-21.69 92.11-48.73 125.95-67.05 10.91-5.91 26.77-13.59 39.66-21 8.1-4.65 16.44-9.24 24.86-13.79q-.13-1.82-.25-3.64c-26.04 13.58-51.88 26.89-79.55 41.08z" fill="url(#L)"/><path d="m409.74 361.74c-14.79 7.57-33.59 17.06-47.63 24.78-36.37 20-60.37 32-111 59.14-14.08 7.54-29.06 15.68-44.44 24q5.09-.22 10.19-.39c17.39-9.15 34.15-18.31 54.37-28.87 11-5.71 19.9-10.22 30.41-15.67 21.29-11 50.82-26.78 67.62-35.77 16.07-8.61 51.77-27.23 73-39q15.22-8.47 30-16.5-.17-2.09-.34-4.19c-7.41 3.89-14.67 7.72-21.7 11.43-15.7 8.3-28.14 14.71-40.48 21.04z" fill="url(#M)"/><path d="m395.41 381.85c-23.3 12.62-64.81 33.86-97.84 51.77-15.54 8.42-25.42 13.59-38.5 20.8-9.11 5-18.12 9.83-26.93 14.52q4.54-.08 9.08-.12 9.13-4.77 18.29-9.62c36.16-19.15 80.4-42.55 120.27-63.63 29.31-15.51 43.36-23.36 70.36-37.64 7.54-4 15.3-8.14 23.18-12.38q-.18-1.9-.36-3.8c-11.65 6-22.57 11.61-31.23 16-16.53 8.45-33.54 17.17-46.32 24.1z" fill="url(#N)"/><path d="m304.88 442.71c-10.41 5.62-24.25 12.83-35.43 18.75-4.48 2.37-9.09 4.83-13.77 7.33 2.81 0 5.61 0 8.42.07 5-2.69 10.23-5.49 16-8.46 21-10.76 38-19.09 62.58-32.69 23.08-12.75 40.71-21.61 63.54-34 14.43-7.85 26.7-14 40.14-21.65 8.1-4.6 17.87-9.88 28.08-15.32-.1-.95-.2-1.89-.3-2.84-31.76 16.36-63 32.32-101.19 52.4-23.61 12.39-44.44 23.63-68.07 36.41z" fill="url(#O)"/><path d="m400.75 404.52c-23.67 13-64.52 34.09-96.22 50.9-10.05 5.34-18.28 9.56-26.19 13.75 3 .08 6 .17 9 .28 44.6-23 96.39-51.77 137.57-73.53 12.19-6.44 33.59-18.37 50.87-27.49-.12-1-.24-2-.35-2.95-11.16 5.87-22.13 11.66-32.57 17.19-16.16 8.54-30.28 15.33-42.11 21.85z" fill="url(#P)"/><path d="m387.9 424.27c-32.23 16.48-51.89 27.33-86.61 45.8 2.29.12 4.59.25 6.88.39 14.06-7.51 28.65-15 45-23.66 35.83-18.8 49.83-26.8 93.5-49.86 13.29-7 20.91-11.23 30.38-16.49l.21-.12c-.12-.92-.25-1.85-.36-2.77-4.53 2.43-9.1 4.87-13.73 7.32-21.28 11.26-44.48 23.64-75.27 39.39z" fill="url(#Q)"/><path d="m360.25 451.43c-12.73 6.74-25.82 13.55-38.06 19.94l6.84.52c33.34-17.63 67.36-35.81 99.73-52.94 10.74-5.68 16.05-8.49 25.18-13.74 6.48-3.74 15.86-8.48 24.9-13.18-.11-.76-.22-1.51-.33-2.27-12.07 6.24-24.17 12.54-37.51 19.35-26.29 13.51-48.57 25.29-80.75 42.32z" fill="url(#R)"/><path d="m437.12 423.72c-37.75 20-68.74 35.6-94.28 49.36 2.1.19 4.19.38 6.29.59 3.65-1.91 7.43-3.92 11.36-6.05 23.24-12.6 41-22.42 55.91-29.58 15.19-7.3 43.14-22.92 64.17-34.36-.13-.86-.27-1.72-.4-2.58l-12.17 6.28c-9.11 4.7-18.26 9.62-30.88 16.34z" fill="url(#S)"/><path d="m401.19 455.69c-12.18 6.46-25.13 13-37.62 19.52l4.47.53 61.82-32.74c22.12-11.7 37.06-19.64 52.5-28.12-.1-.62-.21-1.23-.31-1.85-15.38 8.19-31.37 16.61-46.57 24.07-10.48 5.18-21.48 11.79-34.29 18.59z" fill="url(#T)"/><path d="m394.67 471.67-11.34 6 3.53.46c15.1-7.91 29.29-15.33 39.73-20.83 14-7.35 33.63-18.41 50.21-27 2.61-1.35 5.09-2.65 7.51-3.93-.11-.64-.23-1.28-.34-1.93-5.89 3.1-12.27 6.46-19.74 10.42-25.37 13.43-48.48 25.65-69.56 36.81z" fill="url(#U)"/><path d="m402.66 480.42 2.41.38c33.81-18 54-28.84 81.25-43.33-.08-.4-.14-.8-.22-1.21l-4.16 2.2c-17.82 9.54-47.44 25.17-79.28 41.96z" fill="url(#V)"/><path d="m420.33 483.27 1.72.29q18.19-9.6 36.66-19c7.73-3.93 18.45-9.64 29.81-15.7l-.2-1c-3 1.56-6.06 3.15-9.32 4.76-21.56 10.54-39.58 20.7-58.67 30.65z" fill="url(#W)"/><path d="m438.74 486.57 1.43.28c16.66-9 33.37-17.68 49.7-26.26 0-.28 0-.55 0-.83l-7.79 4.14c-12.08 6.39-27.16 14.33-43.34 22.67z" fill="url(#X)"/><path d="m457 489.73 1.39.08 10.09-5.34c7.2-3.81 13.23-7 18.65-9.93.15-.34.29-.69.44-1-11.46 6-21.71 11.43-28.86 15.31z" fill="url(#Y)"/><path d="m101.15 68.65c30.51-15.94 45.85-23.93 75.78-40.08q-7.93-.57-15.78-1.28c-24 12.66-52.69 27.8-71.92 38.47-12.8 7.1-28.93 15.37-41.11 22.17-9.12 5.07-18.5 9.96-27.71 14.92q.52 3.5 1 7c10.88-5.64 22-11.33 33.4-17.11 12.98-6.55 29.32-15.2 46.34-24.09z" fill="url(#Z)"/><path d="m170.61 233.75c30.44-16.39 72.76-38.44 105-55.55 12.23-6.49 30.82-17 44.84-24.56 55.36-30.01 111.14-60.64 165.8-90.64.32-1.71.66-3.42 1-5.13-26.49 13.3-53 26.94-79.9 40.65-43.85 22.33-87.9 44.84-136.24 70.41-15.2 8-24 12.55-40 20.32 17.3-9.16 35.51-18.62 49.24-26.46 12.17-7 31.13-16.64 43.06-23.2 57.15-31.41 108.76-59.95 165.59-90.84q.42-2.3.65-4.49c-11.55 5.99-22.89 11.9-34.65 17.74-15.4 7.61-30.23 15.17-44.87 22.92-42.21 22.33-86.8 43.82-134.15 68.87-17 9-26.37 14-41 20.86 16.8-8.57 34.58-18.59 46.31-24.92 59.15-31.98 115.18-63.11 172.71-94.34 11.69-6.35 23.82-12.81 35.72-19.26a36.34 36.34 0 0 0 -.52-3.81c-28.2 14.21-55.43 27.87-83.28 42.25-46.84 24.19-86.85 43.86-135.76 69.74-16.91 8.95-25.22 13.32-40.33 20.5 17.15-8.65 34.41-18.63 46-24.76 5.66-3 15.67-8.2 23.08-12.21 48.7-26.27 101.43-56.58 150.6-82.59 11.59-6.15 24.49-13.37 37.22-20.53a26 26 0 0 0 -1.51-2.72c-29.45 14.82-58.91 29.2-86.12 43.59-29.38 15.55-60 30.42-87.48 44.61-17.89 9.22-29.71 15.29-46.34 24.09s-25.88 13.78-40.64 20.71c16.54-8.41 35-18.84 45-24.22 29.2-15.72 57.84-31.08 86.92-47.25 38.84-21.53 80.83-43.78 123.44-67.28a25.1 25.1 0 0 0 -3.78-2.51c-29.55 15-58.68 29.92-88.79 45.54-44.36 23-90.63 46.49-137.71 70.77-15.07 7.78-24.09 12.8-40 20.33 16.73-9.05 35.79-18.72 48.76-25.8 69.73-38 137.83-75.15 208.22-114a40.18 40.18 0 0 0 -7.47-.45c-57.13 29.34-111.93 57.87-161.87 82.59-21.47 10.61-33.76 17.45-55.43 28.91-13.44 7.11-22.24 11.39-32.55 16.75l-14.19 7.57c-15.38 8.4-29.1 15.47-43 23.15-13.56 7.48-30.72 16.51-43.06 23.2-14.6 7.9-28.13 15.28-41.74 22.5-11.93 6.31-24.05 12.84-36.28 19.5q.07 4.18.09 8.37c21.1-10.75 42.56-21.57 64.56-32.42 12.49-6.17 31-16.52 43.24-22.87 13.82-7.19 33.56-17.35 51.05-26.18-15 7.87-26.27 14.27-39.49 21.31-20.47 10.89-32 17.35-45.66 24.56-25.08 13.27-49.42 26.43-73.68 39.7q0 4.26 0 8.52c50-25.59 99.33-50.42 154.27-79.14-15.61 8.29-23.74 13-40.79 22-16.5 8.73-28.93 15.5-46 24.75-11.7 6.32-27.7 15.1-39.62 21.79-9.39 5.3-18.68 10.43-27.89 15.46 0 2.62-.07 5.23-.12 7.85 36.61-18.48 73.37-37 111-56.76 12.53-6.6 30.66-16.61 47-24.44-16.45 8.72-24 13.12-41.43 22.35-33 17.43-59.66 32.11-85.62 46.55q-15.49 8.61-31 17c-.06 2.57-.13 5.14-.21 7.7q12.55-6.4 25.05-12.69c41.64-21 90.71-46.72 138.36-71.11-15 8-24.29 13.26-41.44 22.33-16.39 8.67-28.5 15.13-46 24.75-10.82 6-28.08 15.36-39 21.45q-18.78 10.52-37.18 20.57c-.09 2.48-.2 5-.3 7.44 27.39-13.86 53.34-27.07 82.44-42.16 29.68-15.4 58.67-30.25 95.11-49.07-16.7 9-25.37 13.57-38.83 21-25.44 13.94-49 26.16-67.92 36.77-24.34 13.66-47.74 26.25-71 38.78-.13 2.59-.27 5.19-.42 7.78 16.46-8.38 32.89-16.78 49.1-25.12 32.05-16.53 63.97-32.37 91.83-47.37zm59.53-56.57 4.55-2.41c-1.88 2-5.9 3.26-8.6 5 .36-1.19 2.85-1.69 4.05-2.59zm-1.65 13.4c-1.33 1.68-4.81 2.69-7 4.11 1.35-1.69 4.84-2.69 7-4.1zm-8.72-33 4.55-2.41c-1.88 2-5.89 3.27-8.6 5 .37-1.17 2.85-1.68 4.05-2.58zm-1 38.16c-1.33 1.68-4.82 2.69-7 4.11 1.32-1.68 4.8-2.68 6.97-4.1zm-23.66-37.63 4.55-2.41c-1.88 2-5.9 3.26-8.61 5 .35-1.18 2.84-1.7 4.03-2.58zm-6.2 15.81c1-.54 1.71-.88 2.6-1.38-2.09 2.12-7.9 4.28-2.63 1.39zm2.76 11.5c.16-1 2.42-1.42 3.4-2.22-.19 1.05-2.44 1.44-3.43 2.23zm7.61 8.1c1-.55 1.7-.89 2.6-1.38-2.1 2.1-7.88 4.27-2.63 1.38zm1.53-38c.37-1.16 2.86-1.65 4.05-2.56l4.55-2.41c-1.9 1.96-5.92 3.26-8.63 4.97z" fill="url(#aa)"/><path d="m195.2 145.95 14.19-7.57c-4 2.09-8.28 4.34-13.14 7z" fill="url(#ab)"/><path d="m195.2 145.95 14.19-7.57c-4 2.09-8.28 4.34-13.14 7z" fill="url(#ac)"/><path d="m317.4 402.53a4.44 4.44 0 0 1 2.09-3.82l20-14.18c1.58-1.15 3.1-.22 3.1 1.44v6c0 2.16-1.37 3.53-3.1 4.75l-9.36 6.63 9.37 6.65c1.73 1.22 3.1 2.59 3.1 4.75v6c0 1.66-1.51 2.59-3.1 1.44l-20-14.18a4.44 4.44 0 0 1 -2.09-3.82z" fill="#fff"/><path d="m398.76 404.26a4.44 4.44 0 0 1 -2.09 3.82l-20 14.18c-1.58 1.15-3.1.22-3.1-1.44v-6c0-2.16 1.37-3.53 3.1-4.75l9.33-6.67-9.36-6.62c-1.73-1.22-3.1-2.59-3.1-4.75v-6c0-1.66 1.51-2.59 3.1-1.44l20 14.18a4.44 4.44 0 0 1 2.09 3.82z" fill="#fff"/><path d="m242.41 281.83 6.37.34c2.79.15 5.56.22 8.34.22 68.46 0 133.51-43.69 136.35-45.62l5.29-3.6-40.76-148.83-10.21 6.43c-22.49 14.16-48.69 22.47-72.19 27.36l-5.48-24.36-6.36-.69c-3.1-.34-70.86-7.29-129 17.68l-7.2-33.54-26.25 5.64 73 339.91 26.25-5.64-30.71-143c12.11-8.33 34.85-22 62.07-29.09zm104.59-169.88 31.09 113.42c-16.62 10.14-69.38 39.52-122 39.13l-6.56-22.87a117 117 0 0 1 41.1 1.65l13.84 3.16-24.96-110.75c21.63-4.54 45.49-11.85 67.45-23.74zm-181.27 143.32-27.2-126.64c44.8-20.36 98.78-19.29 116.94-18.23l25.45 113.08a143.35 143.35 0 0 0 -44.58 2.13c-29.58 6-54.75 19.44-70.62 29.66z" fill="#fff"/></svg>